<svg xmlns="http://www.w3.org/2000/svg" width="128" height="122" viewBox="0 0 128 122">
    <g fill="#EF7B45" fill-rule="nonzero">
        <path d="M68.8 48.1c1 1.1 2.4 1.2 4.2.1l2.8 3c-.9.6-1.8.5-2.7-.4l-1.1 1c1.4 1.3 2.9 1.4 4.5.2l.8.8.6-.5-.9-.7c.7-.7 1-1.5 1-2.3 0-.8-.3-1.6-.9-2.2-.6-.6-1.2-.9-1.8-1-.6-.1-1.5.2-2.6.9l-2.5-2.7c.7-.5 1.4-.4 2.1.2l1.1-1c-1.2-1.1-2.5-1.1-3.9 0l-.8-.8-.5.3.8.8c-.6.7-.9 1.4-1 2.1-.1.9.2 1.6.8 2.2zm6.3-.7c.4 0 .7.3 1 .6.8.9.9 1.8.2 2.7l-2.7-2.9c.6-.3 1.1-.4 1.5-.4zm-5.4-2.7l2.4 2.6c-.4.2-.8.3-1.2.4-.4 0-.8-.2-1.1-.6-.8-.8-.8-1.6-.1-2.4zM60.9 55.3c-1-.1-1.9.3-2.6.9-1.5 1.3-1.6 3.6-.2 5.1.7.8 1.7 1.2 2.7 1.2.9 0 1.7-.3 2.4-.9.7-.7 1.1-1.5 1.2-2.5 0-1-.3-1.9-.9-2.6-.8-.7-1.7-1.1-2.6-1.2zm1.2 5.2c-.9.8-2.2.7-3-.1-.8-.9-.7-2.2.1-3 .4-.4.9-.5 1.4-.5.6 0 1.1.2 1.6.7.4.4.6 1 .5 1.5.1.5-.2 1-.6 1.4zM85 40.2h.2c.9 0 1.8-.3 2.4-.9 1.5-1.3 1.6-3.6.2-5.1-.7-.7-1.5-1.1-2.5-1.2-1-.1-1.9.3-2.6.9-.7.7-1.1 1.5-1.2 2.5 0 1 .3 1.9.9 2.6.8.7 1.7 1.1 2.6 1.2zM83.8 35c.4-.4.9-.5 1.4-.5.6 0 1.1.2 1.6.7.8.9.7 2.2-.1 3-.4.4-1 .6-1.5.5-.6 0-1.1-.3-1.5-.7-.4-.4-.6-1-.6-1.5 0-.6.3-1.1.7-1.5z"/>
        <path d="M36.9 56.5c0 .2.1.4.2.5l23.3 25.5c.1.2.4.2.6.2.2 0 .4-.1.5-.2l47.3-43.1c.1-.1.2-.3.2-.5s-.1-.4-.2-.5L85.5 12.9c-.3-.3-.8-.3-1.1 0L37.2 56c-.2.1-.3.3-.3.5zm48-42l22.3 24.4L61 81 38.7 56.6l46.2-42.1z"/>
        <path d="M64 70.6c.1.2.4.2.6.2.2 0 .4-.1.5-.2l31.5-28.7c.1-.1.2-.3.2-.5s-.1-.4-.2-.5c-1-1.1-.9-2.8.2-3.8.3-.3.3-.8 0-1.1l-10-10.9c-.3-.3-.8-.3-1.1 0-1 .9-2.5.9-3.6 0 0-.1-.1-.1-.2-.2-.3-.3-.8-.3-1.1 0L49.4 53.6c-.1.1-.2.3-.2.5s.1.4.2.5c.1.1.2.3.3.4v.1c.5.9.4 2-.1 2.8-.1.1-.2.3-.4.4-.3.3-.3.8 0 1.1l10 10.9c.1.1.3.2.5.2s.4-.1.5-.2c1.1-.9 2.8-.8 3.8.3zm-4.2-1.7L50.7 59c.5-.7.8-1.5.8-2.3 0-.9-.2-1.7-.6-2.4l30.5-27.8c1.4 1.1 3.3 1.1 4.7.2l9.1 9.9c-1 1.4-1.1 3.3-.2 4.7L64.5 69.1c-.7-.6-1.6-.8-2.5-.8-.8-.1-1.5.1-2.2.6zM3.9 38.1c.4 0 .8-.3.8-.8V23.7c0-.4-.3-.8-.8-.8s-.8.3-.8.8v13.6c0 .5.4.8.8.8zM3.9 47c.4 0 .8-.3.8-.8v-4.4c0-.4-.3-.8-.8-.8s-.8.3-.8.8v4.4c0 .5.4.8.8.8zM121.6 78.8c-.4 0-.8.3-.8.8v13.6c0 .4.3.8.8.8.4 0 .8-.3.8-.8V79.6c0-.4-.4-.8-.8-.8zM121.6 96.9c-.4 0-.8.3-.8.8v4.4c0 .4.3.8.8.8.4 0 .8-.3.8-.8v-4.4c0-.4-.4-.8-.8-.8zM30.2 39.8l-1.6-1.6c-.3-.3-.8-.3-1.1 0-.3.3-.3.8 0 1.1l1.6 1.6c.1.1.3.2.5.2s.4-.1.5-.2c.4-.3.4-.8.1-1.1zM33.9 43.5c-.3-.3-.8-.3-1.1 0-.3.3-.3.8 0 1.1l1.6 1.6c.1.1.3.2.5.2s.4-.1.5-.2c.3-.3.3-.8 0-1.1l-1.5-1.6zM29.1 43.5l-1.6 1.6c-.3.3-.3.8 0 1.1.1.1.3.2.5.2s.4-.1.5-.2l1.6-1.6c.3-.3.3-.8 0-1.1-.2-.3-.7-.3-1 0zM35.5 38.2c-.3-.3-.8-.3-1.1 0l-1.6 1.6c-.3.3-.3.8 0 1.1.1.1.3.2.5.2s.4-.1.5-.2l1.6-1.6c.4-.4.4-.8.1-1.1zM65.4 9.9c.1.1.3.2.5.2s.4-.1.5-.2c.3-.3.3-.8 0-1.1l-1.6-1.6c-.3-.3-.8-.3-1.1 0-.3.3-.3.8 0 1.1l1.7 1.6zM70.7 15.3c.1.1.3.2.5.2s.4-.1.5-.2c.3-.3.3-.8 0-1.1l-1.6-1.6c-.3-.3-.8-.3-1.1 0-.3.3-.3.8 0 1.1l1.7 1.6zM64.3 15.5c.2 0 .4-.1.5-.2l1.6-1.6c.3-.3.3-.8 0-1.1-.3-.3-.8-.3-1.1 0l-1.6 1.6c-.3.3-.3.8 0 1.1.2.1.4.2.6.2zM69.6 10.1c.2 0 .4-.1.5-.2l1.6-1.6c.3-.3.3-.8 0-1.1-.3-.3-.8-.3-1.1 0L69 8.8c-.3.3-.3.8 0 1.1.2.2.4.2.6.2zM113.5 112.3c-.3-.3-.8-.3-1.1 0-.3.3-.3.8 0 1.1l1.6 1.6c.1.1.3.2.5.2s.4-.1.5-.2c.3-.3.3-.8 0-1.1l-1.5-1.6zM118.8 117.6c-.3-.3-.8-.3-1.1 0-.3.3-.3.8 0 1.1l1.6 1.6c.1.1.3.2.5.2s.4-.1.5-.2c.3-.3.3-.8 0-1.1l-1.5-1.6zM114.1 117.6l-1.6 1.6c-.3.3-.3.8 0 1.1.1.1.3.2.5.2s.4-.1.5-.2l1.6-1.6c.3-.3.3-.8 0-1.1-.2-.3-.7-.3-1 0zM119.4 112.3l-1.6 1.6c-.3.3-.3.8 0 1.1.1.1.3.2.5.2s.4-.1.5-.2l1.6-1.6c.3-.3.3-.8 0-1.1-.2-.3-.7-.3-1 0zM116.5 32.1c2.2 0 3.9-1.8 3.9-3.9 0-2.1-1.8-3.9-3.9-3.9-2.2 0-3.9 1.8-3.9 3.9 0 2.1 1.7 3.9 3.9 3.9zm0-6.3c1.3 0 2.4 1.1 2.4 2.4 0 1.3-1.1 2.4-2.4 2.4-1.3 0-2.4-1.1-2.4-2.4-.1-1.4 1-2.4 2.4-2.4zM6.7 85.8c2.2 0 3.9-1.8 3.9-3.9 0-2.1-1.7-3.9-3.9-3.9s-3.9 1.8-3.9 3.9c0 2.1 1.7 3.9 3.9 3.9zm0-6.3c1.3 0 2.4 1.1 2.4 2.4 0 1.3-1.1 2.4-2.4 2.4-1.3 0-2.4-1.1-2.4-2.4 0-1.3 1-2.4 2.4-2.4zM102.4 6.9h14.7c.4 0 .8-.3.8-.8s-.3-.8-.8-.8h-14.7c-.4 0-.8.3-.8.8s.4.8.8.8zM122 6.9h4.8c.4 0 .8-.3.8-.8s-.3-.8-.8-.8H122c-.4 0-.8.3-.8.8s.4.8.8.8zM126.7 10.5h-10.3c-.4 0-.8.3-.8.8s.3.8.8.8h10.3c.4 0 .8-.3.8-.8s-.3-.8-.8-.8zM112 10.5h-3.3c-.4 0-.8.3-.8.8s.3.8.8.8h3.3c.4 0 .8-.3.8-.8s-.3-.8-.8-.8zM25.6 105.8H10.9c-.4 0-.8.3-.8.8 0 .4.3.8.8.8h14.7c.4 0 .8-.3.8-.8 0-.4-.4-.8-.8-.8zM6 105.8H1.3c-.4 0-.8.3-.8.8 0 .4.3.8.8.8H6c.4 0 .8-.3.8-.8 0-.4-.4-.8-.8-.8zM1.3 102.3h10.3c.4 0 .8-.3.8-.8s-.3-.8-.8-.8H1.3c-.4 0-.8.3-.8.8s.3.8.8.8zM19.3 102.3c.4 0 .8-.3.8-.8s-.3-.8-.8-.8H16c-.4 0-.8.3-.8.8s.3.8.8.8h3.3zM33.6 24.8c-.8-.7-1.3-1.7-1.3-2.7 0-.4-.3-.8-.8-.8-.4 0-.8.3-.8.8 0 1.4.6 2.8 1.8 3.8 1 .8 2.2 1.3 3.5 1.5V30c0 .4.3.8.8.8.4 0 .8-.3.8-.8v-2.6c1.3-.1 2.5-.6 3.5-1.5 1.2-1 1.8-2.4 1.8-3.8s-.6-2.8-1.8-3.8c-1-.8-2.2-1.3-3.5-1.5V9.2c.9.1 1.8.5 2.5 1.1.8.7 1.3 1.7 1.3 2.7 0 .4.3.8.8.8.4 0 .8-.3.8-.8 0-1.4-.6-2.8-1.8-3.8-1-.8-2.2-1.3-3.5-1.5V5.2c0-.4-.3-.8-.8-.8-.4 0-.8.3-.8.8v2.6c-1.3.1-2.5.6-3.5 1.5-1.2 1-1.8 2.4-1.8 3.8s.6 2.8 1.8 3.8c1 .8 2.2 1.3 3.5 1.5V26c-1-.3-1.9-.6-2.5-1.2zm6.4-5.3c.8.7 1.3 1.7 1.3 2.7 0 1-.5 1.9-1.3 2.7-.7.6-1.5 1-2.5 1.1v-7.5c1 0 1.9.4 2.5 1zm-6.4-3.9c-.8-.7-1.3-1.7-1.3-2.7 0-1 .5-1.9 1.3-2.7.7-.6 1.5-1 2.5-1.1v7.5c-1 0-1.9-.4-2.5-1z"/>
        <path d="M36.8 34.2c9.2 0 16.7-7.5 16.7-16.7S46 .8 36.8.8 20.1 8.3 20.1 17.5s7.5 16.7 16.7 16.7zm0-31.8C45.2 2.4 52 9.2 52 17.6c0 8.4-6.8 15.2-15.2 15.2-8.4 0-15.2-6.8-15.2-15.2 0-8.4 6.8-15.2 15.2-15.2zM84.8 90.3l-4.1 4c-1.3 1.2-2 3-2 4.7v5.4c0 .4.3.8.8.8s.8-.3.8-.8V99c0-1.4.6-2.7 1.5-3.7l4.1-4c.3-.3.3-.8 0-1.1-.3-.2-.8-.2-1.1.1z"/>
        <path d="M115.2 50.3c-1.2-1.1-2.9-1.4-4.9-1.1-2.7.4-4.4 3.1-4.4 6.9v17.6c0 .4.3.8.8.8.4 0 .8-.3.8-.8V56c0-3 1.2-5.1 3.1-5.4 1.5-.2 2.7 0 3.6.8 1.1.9 1.6 2.5 1.6 4.6v28.2c0 2.2-.9 4.2-2.4 5.8l-12.6 12.6c-1.1 1.1-1.7 2.6-1.7 4.2v1.6h-23V99c0-2.5 1-4.9 2.8-6.6l16.8-16.3c1.7-1.7 4.5-1.6 6.2.1.8.8 1.3 1.9 1.2 3.1 0 1.2-.5 2.3-1.3 3.1l-8 7.8c-.3.3-.3.8 0 1.1.3.3.8.3 1.1 0l8-7.8c1.1-1.1 1.8-2.6 1.8-4.1 0-1.6-.6-3.1-1.7-4.2s-2.6-1.8-4.1-1.8c-1.6 0-3.1.6-4.2 1.7L77.9 91.4c-2.1 2-3.2 4.8-3.2 7.7v9.5c-2.2.2-3.8 2.1-3.8 4.3v7.6c0 .4.3.8.8.8.4 0 .8-.3.8-.8v-7.6c0-1.6 1.3-2.8 2.8-2.8h25.2c1.6 0 2.8 1.3 2.8 2.8v7.6c0 .4.3.8.8.8.4 0 .8-.3.8-.8v-7.6c0-2.3-1.7-4.1-3.9-4.3V107c0-1.2.5-2.3 1.3-3.1l12.6-12.6c1.8-1.8 2.8-4.3 2.8-6.9V56c-.3-2.5-1-4.5-2.5-5.7z"/>
        <path d="M97.8 114H91c-.4 0-.8.3-.8.8s.3.8.8.8h6.8c.4 0 .8-.3.8-.8s-.4-.8-.8-.8zM53 105.2c.4 0 .8-.3.8-.8V99c0-1.8-.7-3.5-2-4.7l-4.1-4c-.3-.3-.8-.3-1.1 0-.3.3-.3.8 0 1.1l4.1 4c1 1 1.5 2.3 1.5 3.7v5.4c.1.4.4.7.8.7z"/>
        <path d="M57.9 108.5V99c0-2.9-1.2-5.7-3.2-7.7L37.9 75.1c-1.1-1.1-2.6-1.7-4.2-1.7s-3 .7-4.1 1.8c-1.1 1.1-1.7 2.6-1.7 4.2s.7 3 1.8 4.1l8 7.8c.3.3.8.3 1.1 0 .3-.3.3-.8 0-1.1l-8-7.8c-.8-.8-1.3-1.9-1.3-3.1 0-1.2.4-2.3 1.2-3.1.8-.8 1.9-1.3 3.1-1.3 1.2 0 2.3.4 3.1 1.2l16.8 16.3c1.8 1.7 2.8 4.1 2.8 6.6v9.4h-23v-1.6c0-1.6-.6-3.1-1.7-4.2L19 90c-1.5-1.5-2.4-3.6-2.4-5.8V56c0-2.1.6-3.7 1.6-4.6.9-.8 2.2-1 3.6-.8 1.9.3 3.1 2.4 3.1 5.4v17.6c0 .4.3.8.8.8.4 0 .8-.3.8-.8V56c0-3.7-1.7-6.5-4.4-6.9-1.9-.3-3.6.1-4.9 1.1-1.4 1.2-2.2 3.2-2.2 5.8v28.2c0 2.6 1 5 2.8 6.9l12.6 12.6c.8.8 1.3 1.9 1.3 3.1v1.6c-2.2.2-3.9 2-3.9 4.3v7.6c0 .4.3.8.8.8.4 0 .8-.3.8-.8v-7.6c0-1.6 1.3-2.8 2.8-2.8h25.2c1.6 0 2.8 1.3 2.8 2.8v7.6c0 .4.3.8.8.8.4 0 .8-.3.8-.8v-7.6c-.1-2.2-1.8-4-3.9-4.2z"/>
        <path d="M41.4 114h-6.8c-.4 0-.8.3-.8.8s.3.8.8.8h6.8c.4 0 .8-.3.8-.8s-.4-.8-.8-.8z"/>
    </g>
</svg>
