<svg xmlns="http://www.w3.org/2000/svg" width="128" height="114" viewBox="0 0 128 114">
    <g fill="#EF7B45" fill-rule="nonzero">
        <path d="M117.5 34.8c.4 0 .8-.3.8-.8V20.9c0-.4-.3-.8-.8-.8-.4 0-.8.3-.8.8V34c0 .4.4.8.8.8zM117.5 43.3c.4 0 .8-.3.8-.8v-4.2c0-.4-.3-.8-.8-.8-.4 0-.8.3-.8.8v4.2c0 .5.4.8.8.8zM18.3 84.5c-.4 0-.8.3-.8.8v13.1c0 .4.3.8.8.8.4 0 .8-.3.8-.8V85.3c-.1-.4-.4-.8-.8-.8zM18.3 101.9c-.4 0-.8.3-.8.8v4.2c0 .4.3.8.8.8.4 0 .8-.3.8-.8v-4.2c-.1-.5-.4-.8-.8-.8zM6.8 31.4c.1.1.3.2.5.2s.4-.1.5-.2c.3-.3.3-.8 0-1.1L6 28.5c-.3-.3-.8-.3-1.1 0-.3.3-.3.8 0 1.1l1.9 1.8zM10.8 35.3l1.8 1.8c.1.1.3.2.5.2s.4-.1.5-.2c.3-.3.3-.8 0-1.1l-1.8-1.8c-.3-.3-.8-.3-1.1 0-.2.4-.2.9.1 1.1zM5.6 37.3c.2 0 .4-.1.5-.2l1.8-1.8c.3-.3.3-.8 0-1.1-.3-.3-.8-.3-1.1 0L5 36.1c-.3.3-.3.8 0 1.1.2.1.4.1.6.1zM11.3 31.6c.2 0 .4-.1.5-.2l1.8-1.8c.3-.3.3-.8 0-1.1-.3-.3-.8-.3-1.1 0l-1.8 1.8c-.3.3-.3.8 0 1.1.2.1.4.2.6.2zM117 86.5c.1.1.3.2.5.2s.4-.1.5-.2c.3-.3.3-.8 0-1.1l-1.8-1.8c-.3-.3-.8-.3-1.1 0-.3.3-.3.8 0 1.1l1.9 1.8zM122 89.4c-.3-.3-.8-.3-1.1 0-.3.3-.3.8 0 1.1l1.8 1.8c.1.1.3.2.5.2s.4-.1.5-.2c.3-.3.3-.8 0-1.1l-1.7-1.8zM115.2 92.2c.1.1.3.2.5.2s.4-.1.5-.2l1.8-1.8c.3-.3.3-.8 0-1.1-.3-.3-.8-.3-1.1 0l-1.8 1.8c-.2.4-.2.8.1 1.1zM122.7 83.6l-1.8 1.8c-.3.3-.3.8 0 1.1.1.1.3.2.5.2s.4-.1.5-.2l1.8-1.8c.3-.3.3-.8 0-1.1-.2-.2-.7-.2-1 0zM62.2 6.3c.1.1.3.2.5.2s.4-.1.5-.2c.3-.3.3-.8 0-1.1l-1.8-1.8c-.3-.3-.8-.3-1.1 0-.3.3-.3.8 0 1.1l1.9 1.8zM67.9 12c.1.1.3.2.5.2s.4-.1.5-.2c.3-.3.3-.8 0-1.1l-1.8-1.8c-.3-.3-.8-.3-1.1 0-.3.3-.3.8 0 1.1l1.9 1.8zM60.9 12.2c.2 0 .4-.1.5-.2l1.8-1.8c.3-.3.3-.8 0-1.1-.3-.3-.8-.3-1.1 0l-1.8 1.8c-.3.3-.3.8 0 1.1.2.1.4.2.6.2zM66.7 6.5c.2 0 .4-.1.5-.2L69 4.5c.3-.3.3-.8 0-1.1-.3-.3-.8-.3-1.1 0l-1.8 1.8c-.3.3-.3.8 0 1.1.2.1.4.2.6.2zM29.2 104.3c-.3-.3-.8-.3-1.1 0-.3.3-.3.8 0 1.1l1.8 1.8c.1.1.3.2.5.2s.4-.1.5-.2c.3-.3.3-.8 0-1.1l-1.7-1.8zM35 110c-.3-.3-.8-.3-1.1 0-.3.3-.3.8 0 1.1l1.8 1.8c.1.1.3.2.5.2s.4-.1.5-.2c.3-.3.3-.8 0-1.1L35 110zM29.9 110l-1.8 1.8c-.3.3-.3.8 0 1.1.1.1.3.2.5.2s.4-.1.5-.2l1.8-1.8c.3-.3.3-.8 0-1.1-.2-.3-.7-.3-1 0zM35.7 104.3l-1.8 1.8c-.3.3-.3.8 0 1.1.1.1.3.2.5.2s.4-.1.5-.2l1.8-1.8c.3-.3.3-.8 0-1.1-.2-.3-.7-.3-1 0zM102.5 9.1c2.3 0 4.1-1.8 4.1-4.1S104.8.9 102.5.9 98.4 2.7 98.4 5s1.9 4.1 4.1 4.1zm0-6.7c1.4 0 2.6 1.2 2.6 2.6 0 1.4-1.2 2.6-2.6 2.6-1.4 0-2.6-1.2-2.6-2.6 0-1.4 1.2-2.6 2.6-2.6zM4.6 84.4c-2.3 0-4.1 1.8-4.1 4.1s1.8 4.1 4.1 4.1 4.1-1.8 4.1-4.1-1.8-4.1-4.1-4.1zm0 6.7c-1.4 0-2.6-1.2-2.6-2.6 0-1.4 1.2-2.6 2.6-2.6 1.4 0 2.6 1.2 2.6 2.6 0 1.4-1.2 2.6-2.6 2.6zM16.9 3.1h15.5c.4 0 .8-.3.8-.8s-.3-.8-.8-.8H16.9c-.4 0-.8.3-.8.8s.4.8.8.8zM6.8 3.1h5c.4 0 .8-.3.8-.8s-.3-.8-.8-.8h-5c-.4.1-.7.5-.7.9s.3.7.7.7zM6.8 8.5h10.8c.4 0 .8-.3.8-.8s-.3-.7-.8-.7H6.8c-.4 0-.8.3-.8.8s.4.7.8.7zM26.5 7.7c0-.4-.3-.8-.8-.8h-3.5c-.4 0-.8.3-.8.8s.3.8.8.8h3.5c.5 0 .8-.4.8-.8zM110.5 107.8H94.9c-.4 0-.8.3-.8.8 0 .4.3.8.8.8h15.5c.4 0 .8-.3.8-.8s-.3-.8-.7-.8zM120.6 107.8h-5c-.4 0-.8.3-.8.8 0 .4.3.8.8.8h5c.4 0 .8-.3.8-.8-.1-.5-.4-.8-.8-.8zM120.6 102.5h-10.8c-.4 0-.8.3-.8.8 0 .4.3.8.8.8h10.8c.4 0 .8-.3.8-.8-.1-.5-.4-.8-.8-.8zM105.1 104c.4 0 .8-.3.8-.8 0-.4-.3-.8-.8-.8h-3.5c-.4 0-.8.3-.8.8 0 .4.3.8.8.8h3.5zM24.7 22.7v2.5c0 2.6 2.1 4.6 4.6 4.6H91c.1 0 .2 0 .3-.1l11.4-5.1c.3-.1.4-.4.4-.7 0-.3-.2-.6-.4-.7l-11.4-5.1c-.2-.1-.3-.1-.5 0H29.3c-2.5 0-4.6 2.1-4.6 4.6zm1.5 2.5v-2.5c0-1.7 1.4-3.1 3.1-3.1h6.3v8.7h-6.3c-1.7 0-3.1-1.4-3.1-3.1zm10.9-5.6h3.3v8.7h-3.3v-8.7zm54.4 8.5v-8.2l9.2 4.1-9.2 4.1zm-1.5.2H41.9v-8.7H90v8.7z"/>
        <path d="M81.5 24.7h2c.4 0 .8-.3.8-.8 0-.4-.3-.8-.8-.8h-2c-.4 0-.8.3-.8.8s.3.8.8.8zM71.4 24.7h4c.4 0 .8-.3.8-.8 0-.4-.3-.8-.8-.8h-4c-.4 0-.8.3-.8.8.1.5.4.8.8.8zM51.3 24.7h4c.4 0 .8-.3.8-.8 0-.4-.3-.8-.8-.8h-4c-.4 0-.8.3-.8.8.1.5.4.8.8.8zM61.4 24.7h4c.4 0 .8-.3.8-.8 0-.4-.3-.8-.8-.8h-4c-.4 0-.8.3-.8.8s.4.8.8.8zM127.4 62.1c-.2-.3-.7-.4-1-.2-4.9 3.3-9.8 6.9-14.5 10.5-.9.7-1.9 1-2.8.9-.4-.1-1-.3-1.4-.8L91.1 48.3c-.4-.6-.4-1.2-.3-1.6.2-.9.9-1.7 1.8-2.3 3.5-2.1 7-4.4 10.4-6.6.3-.2.4-.7.2-1-.2-.3-.7-.4-1-.2-3.4 2.2-6.9 4.5-10.4 6.6-1.2.7-2.1 1.8-2.4 3H38.6c-.3-1.2-1.2-2.3-2.4-3-3.5-2.1-7-4.3-10.4-6.6-.3-.2-.8-.1-1 .2-.2.3-.1.8.2 1 3.4 2.3 6.9 4.5 10.4 6.6.9.6 1.6 1.4 1.8 2.3v.2c0 .1 0 .3.1.4 0 .3-.1.7-.3 1L20.4 72.5c-.4.5-1 .7-1.4.8-.9.1-1.9-.2-2.8-.9-4.7-3.7-9.6-7.2-14.5-10.5-.3-.2-.8-.1-1 .2-.2.3-.1.8.2 1 4.9 3.3 9.7 6.8 14.4 10.5 1 .8 2.2 1.2 3.3 1.2.2 0 .4 0 .7-.1 1-.2 1.8-.7 2.4-1.4l1.7-2.4c1 .8 3.1 2.6 4 4.5.3.5.4.9.6 1.3.1.3.3.6.4.9-.5.3-1 .8-1.4 1.3l-.9 1.1c-.8 1.1-1.1 2.4-.9 3.8.2 1.4.9 2.5 2 3.3l1.3 1c.9.7 2 1 3 1 .5 0 1-.1 1.5-.2-.3 1.8.4 3.8 2 5l1.1.8c.9.7 2 1 3.1 1 .7 0 1.4-.1 2-.4v1.3c.2 1.4.9 2.6 2.1 3.4l1.1.8c.9.7 2 1 3.1 1 .3 0 .5 0 .8-.1.5-.1 1-.3 1.5-.5v.9c.2 1.3.9 2.4 1.9 3.1l.8.6c.8.6 1.8.9 2.8.9 1.5 0 2.9-.7 3.8-1.9l.6-.8c.1.1.1.3.3.3 1 .7 2.2 1.1 3.5 1.1.4 0 .8 0 1.1-.1 1.6-.3 3-1.2 3.9-2.6 1.1-1.6 1.3-3.4.9-5.1l3.1 2.2c1.1.7 2.3 1.1 3.5 1.1 2 0 3.9-.9 5.1-2.7 1.1-1.5 1.3-3.4.9-5l1.7 1.2c1.1.7 2.3 1.1 3.5 1.1 2 0 3.9-.9 5.1-2.7 1.1-1.5 1.3-3.4.9-5.1l2.2 1.5c1 .7 2.2 1.1 3.5 1.1.4 0 .8 0 1.1-.1 1.6-.3 3-1.2 3.9-2.6 1.9-2.8 1.2-6.6-1.6-8.6L80.4 64c-.2-.1-.4-.2-.6-.1H76c-8 0-9-6.5-9-6.8 0-.4-.4-.7-.7-.7H53.4c-.4 0-.7.3-.7.6-.7 3.8-2 6.4-4.1 7.6-1.5.9-3.1.9-3.9.8V54.5l12.2-6.8h32.5c.1.5.2 1.1.5 1.5l16.6 24.1c.5.8 1.4 1.3 2.4 1.4.2 0 .4.1.7.1 1.1 0 2.3-.4 3.3-1.2 4.7-3.6 9.6-7.2 14.4-10.5.2-.2.3-.7.1-1zM29.3 86.9l-1.3-1c-.8-.6-1.3-1.4-1.4-2.4-.1-.9.1-1.9.7-2.7l.8-1.1c1.2-1.6 3.4-1.9 5-.7l1.3 1c1.4 1 1.8 2.8 1.2 4.3L34 86.5s-.1.1-.1.2c-1.3 1.1-3.2 1.2-4.6.2zm7.7 6.5l-1.1-.8c-.8-.6-1.3-1.4-1.5-2.4-.1-.9.1-1.8.6-2.5l.6-.6.8-1.1c.2-.3.4-.6.5-.9l1.4-1.9c.6-.8 1.4-1.3 2.4-1.5 1-.1 2 .1 2.7.7l1.1.8c1.6 1.2 2 3.5.8 5.2l-3.1 4.2c-1.2 1.7-3.5 2-5.2.8zm11.1 6.8c-1 .1-2-.1-2.7-.7l-1.1-.8c-.8-.6-1.3-1.4-1.5-2.4-.1-1 .1-2 .7-2.7l5.1-6.9c.6-.8 1.4-1.3 2.4-1.5 1-.1 2 .1 2.7.7l1.1.8c.8.6 1.3 1.4 1.5 2.4.1 1-.1 2-.7 2.7l-5.1 6.9c-.6.9-1.5 1.4-2.4 1.5zm11 2.2L58 104c-1.1 1.4-3.1 1.7-4.5.7l-.8-.6c-.7-.5-1.2-1.3-1.3-2.1-.1-.8.1-1.7.6-2.4l1.2-1.6c1.1-1.4 3.1-1.7 4.5-.7l.8.6c1.4 1 1.7 3.1.6 4.5zm-15.6-49c-.2.1-.4.4-.4.7v12.3c0 .3.2.6.5.7.1 0 .8.3 1.9.3 1 0 2.4-.2 3.8-1 2.3-1.4 3.9-4.1 4.7-8.1h11.5c.5 1.9 2.6 7.4 10.4 7.4h3.9l21.6 14.8c2.1 1.4 2.6 4.3 1.2 6.5-1.5 2.1-4.3 2.7-6.5 1.2l-5.5-3.7-15.5-10.8c-.3-.2-.8-.1-1 .2-.2.3-.1.8.2 1l15.5 10.6c2.1 1.4 2.6 4.3 1.2 6.5-1.4 2.1-4.3 2.6-6.5 1.2L69 82.6c-.3-.2-.7-.1-1 .1-.1.1-.2.1-.2.2-.2.3-.1.8.2 1l10.6 7c2.1 1.4 2.6 4.3 1.2 6.5-1.4 2.1-4.3 2.6-6.4 1.2l-10-7.1c-.3-.2-.8-.2-1.1.2-.2.3-.2.8.2 1.1l3.3 2.4c.1.1.1.3.3.3 2.1 1.4 2.6 4.3 1.2 6.5-.7 1-1.8 1.7-3 1.9-1.2.2-2.5 0-3.5-.7-.1-.1-.2-.1-.4-.1.6-1 .9-2.1.7-3.3-.2-1.3-.9-2.4-1.9-3.1l-.8-.6c-1-.8-2.3-1.1-3.5-.9l1.8-2.4c.8-1.1 1.2-2.5 1-3.9-.2-1.4-.9-2.6-2.1-3.4l-1.1-.8c-1.1-.8-2.5-1.2-3.9-1-1.3.2-2.4.9-3.3 1.9-.2-1.3-.9-2.6-2.1-3.5l-1.1-.8c-1.1-.8-2.5-1.2-3.9-1-1.3.2-2.4.8-3.2 1.8-.2-1.3-.9-2.4-2-3.2l-1.3-1c-1.3-.9-2.9-1.2-4.3-.8-.2-.4-.3-.7-.4-1-.2-.4-.4-.8-.6-1.4-1.1-2.2-3.5-4.2-4.5-5L38 49.2c.3-.4.5-1 .5-1.5h15l-10 5.7z"/>
        <path d="M111.5 66.2c2.2 0 4-1.8 4-4s-1.8-4-4-4-4 1.8-4 4 1.8 4 4 4zm0-6.5c1.4 0 2.5 1.1 2.5 2.5s-1.1 2.5-2.5 2.5-2.5-1.1-2.5-2.5 1.1-2.5 2.5-2.5zM16.5 66.2c2.2 0 4-1.8 4-4s-1.8-4-4-4-4 1.8-4 4 1.8 4 4 4zm0-6.5c1.4 0 2.5 1.1 2.5 2.5s-1.1 2.5-2.5 2.5-2.5-1.2-2.5-2.5c0-1.4 1.1-2.5 2.5-2.5z"/>
    </g>
</svg>
