<svg xmlns="http://www.w3.org/2000/svg" width="98" height="128" viewBox="0 0 98 128">
    <g fill="#EF7B45" fill-rule="nonzero">
        <path d="M3.3 72.9c-.4 0-.8.3-.8.8v10.7c0 .4.3.8.8.8.4 0 .8-.3.8-.8V73.7c0-.5-.4-.8-.8-.8zM3.3 87.1c-.4 0-.8.3-.8.8v3.4c0 .4.3.8.8.8.4 0 .8-.3.8-.8v-3.4c0-.5-.4-.8-.8-.8zM94.5 15.1c-.4 0-.8.3-.8.8v10.7c0 .4.3.8.8.8.4 0 .8-.3.8-.8V15.8c-.1-.4-.4-.7-.8-.7zM94.5 29.2c-.4 0-.8.3-.8.8v3.4c0 .4.3.8.8.8.4 0 .8-.3.8-.8V30c-.1-.4-.4-.8-.8-.8zM70.7 87.3c-.3-.3-.8-.3-1.1 0-.3.3-.3.8 0 1.1l1.5 1.5c.1.1.3.2.5.2s.4-.1.5-.2c.3-.3.3-.8 0-1.1l-1.4-1.5zM75.4 92c-.3-.3-.8-.3-1.1 0-.3.3-.3.8 0 1.1l1.5 1.5c.1.1.3.2.5.2s.4-.1.5-.2c.3-.3.3-.8 0-1.1L75.4 92zM71.1 92l-1.5 1.5c-.3.3-.3.8 0 1.1.1.1.3.2.5.2s.4-.1.5-.2l1.5-1.5c.3-.3.3-.8 0-1.1-.2-.3-.7-.3-1 0zM76.9 87.3c-.3-.3-.8-.3-1.1 0l-1.5 1.5c-.3.3-.3.8 0 1.1.1.1.3.2.5.2s.4-.1.5-.2l1.5-1.5c.4-.4.4-.8.1-1.1zM8.3 104.3c-.3-.3-.8-.3-1.1 0-.3.3-.3.8 0 1.1l1.5 1.5c.1.1.3.2.5.2s.4-.1.5-.2c.3-.3.3-.8 0-1.1l-1.4-1.5zM13.1 109c-.3-.3-.8-.3-1.1 0-.3.3-.3.8 0 1.1l1.5 1.5c.1.1.3.2.5.2s.4-.1.5-.2c.3-.3.3-.8 0-1.1l-1.4-1.5zM8.7 109l-1.5 1.5c-.3.3-.3.8 0 1.1.1.1.3.2.5.2s.4-.1.5-.2l1.5-1.5c.3-.3.3-.8 0-1.1-.2-.3-.7-.3-1 0zM13.5 104.3l-1.5 1.5c-.3.3-.3.8 0 1.1.1.1.3.2.5.2s.4-.1.5-.2l1.5-1.5c.3-.3.3-.8 0-1.1-.3-.3-.7-.3-1 0zM8.4 10.9c1.8 0 3.2-1.5 3.2-3.2 0-1.7-1.5-3.2-3.2-3.2-1.8 0-3.2 1.5-3.2 3.2 0 1.7 1.4 3.2 3.2 3.2zm0-4.9c1 0 1.7.8 1.7 1.7 0 .9-.8 1.7-1.7 1.7-1 0-1.7-.8-1.7-1.7 0-.9.8-1.7 1.7-1.7zM90.8 76.2c-1.8 0-3.2 1.5-3.2 3.2 0 1.8 1.5 3.2 3.2 3.2 1.8 0 3.2-1.5 3.2-3.2 0-1.7-1.4-3.2-3.2-3.2zm0 5c-1 0-1.7-.8-1.7-1.7 0-1 .8-1.7 1.7-1.7 1 0 1.7.8 1.7 1.7 0 .9-.7 1.7-1.7 1.7zM18.4 86.1c-2.4 0-4.3 2-4.3 4.3 0 2.4 2 4.3 4.3 4.3 2.4 0 4.3-2 4.3-4.3 0-2.4-1.9-4.3-4.3-4.3zm0 7.2c-1.6 0-2.8-1.3-2.8-2.8 0-1.6 1.3-2.8 2.8-2.8 1.6 0 2.8 1.3 2.8 2.8 0 1.5-1.2 2.8-2.8 2.8zM77.3 4.3h11.5c.4 0 .8-.3.8-.8 0-.4-.3-.8-.8-.8H77.3c-.4 0-.8.3-.8.8 0 .4.4.8.8.8zM92.6 4.3h3.7c.4 0 .8-.3.8-.8 0-.4-.3-.8-.8-.8h-3.7c-.4 0-.8.3-.8.8.1.4.4.8.8.8zM96.4 6.7h-8c-.4 0-.8.3-.8.8 0 .4.3.8.8.8h8c.4 0 .8-.3.8-.8-.1-.5-.4-.8-.8-.8zM84.9 8.2c.4 0 .8-.3.8-.8 0-.4-.3-.8-.8-.8h-2.6c-.4 0-.8.3-.8.8 0 .4.3.8.8.8h2.6zM92.5 111.1H81c-.4 0-.8.3-.8.8s.3.8.8.8h11.5c.4 0 .8-.3.8-.8s-.4-.8-.8-.8zM77.2 111.1h-3.7c-.4 0-.8.3-.8.8s.3.8.8.8h3.7c.4 0 .8-.3.8-.8s-.4-.8-.8-.8zM73.4 108.7h8c.4 0 .8-.3.8-.8 0-.4-.3-.8-.8-.8h-8c-.4 0-.8.3-.8.8.1.4.4.8.8.8zM84.2 107.9c0 .4.3.8.8.8h2.6c.4 0 .8-.3.8-.8 0-.4-.3-.8-.8-.8H85c-.5.1-.8.4-.8.8zM93.6 46.8l-13.5-.1c-.4 0-.8.3-.8.7 0 .4.3.8.7.8l13.5.1c.4 0 .8-.3.8-.7 0-.4-.3-.8-.7-.8zM87.1 57.1l-7.9-1.7c-.4-.1-.8.2-.9.6-.1.4.2.8.6.9l7.9 1.7h.2c.3 0 .7-.2.7-.6.1-.4-.2-.8-.6-.9zM87.2 37.4c.4-.1.6-.6.5-.9-.1-.4-.6-.6-.9-.5L79 38.5c-.4.1-.6.6-.5.9.1.3.4.5.7.5h.2l7.8-2.5zM47.6 15.5c.4 0 .8-.3.8-.8V1.3c0-.4-.3-.8-.8-.8s-.8.3-.8.8v13.5c.1.4.4.7.8.7zM30.5 19.7c.1.2.4.4.6.4.1 0 .3 0 .4-.1.4-.2.5-.7.3-1L24.9 7.3c-.2-.4-.7-.5-1-.3-.4.2-.5.7-.3 1l6.9 11.7zM19.4 32c.3 0 .5-.1.7-.4.2-.4.1-.8-.3-1L8 23.9c-.4-.2-.8-.1-1 .3-.2.4-.1.8.3 1L19 31.9c.1 0 .3.1.4.1zM15.9 47.4c0-.4-.4-.7-.8-.7l-13.5.1c-.4 0-.8.3-.7.8 0 .4.3.7.8.7l13.5-.1c.4 0 .7-.4.7-.8zM7.2 70.7c.1.2.4.4.7.4.1 0 .3 0 .4-.1L20 64.2c.4-.2.5-.7.3-1-.2-.4-.7-.5-1-.3L7.6 69.7c-.4.2-.6.7-.4 1zM87.7 69.8L76 62.9c-.4-.2-.8-.1-1 .3-.2.4-.1.8.3 1L87 71c.1.1.3.1.4.1.3 0 .5-.1.7-.4.1-.3-.1-.7-.4-.9zM88.3 24.3c-.2-.4-.7-.5-1-.3l-11.8 6.6c-.4.2-.5.7-.3 1 .1.2.4.4.7.4.1 0 .3 0 .4-.1l11.8-6.6c.3-.2.4-.7.2-1zM63.8 20c.1.1.3.1.4.1.3 0 .5-.1.6-.4l6.9-11.6c.2-.4.1-.8-.3-1-.4-.2-.8-.1-1 .3L63.5 19c-.2.3-.1.7.3 1zM39.2 15.8c.1.3.4.5.7.5h.2c.4-.1.6-.5.5-.9l-2.4-7.7c-.1-.4-.5-.6-.9-.5-.4.1-.6.5-.5.9l2.4 7.7zM24.6 24.2c.1.1.3.2.5.2s.4-.1.6-.2c.3-.3.3-.8 0-1.1l-6-5.5c-.3-.3-.8-.3-1.1 0-.3.3-.3.8 0 1.1l6 5.5zM8.2 37.1l7.9 1.7h.2c.3 0 .7-.2.7-.6.1-.4-.2-.8-.6-.9l-7.9-1.7c-.4-.1-.8.2-.9.6 0 .4.2.8.6.9zM8 56.8c-.4.1-.6.5-.5.9.1.3.4.5.7.5h.2l7.7-2.5c.4-.1.6-.5.5-.9-.1-.4-.6-.6-.9-.5L8 56.8zM23.6 69.3l-5.5 6c-.3.3-.3.8.1 1.1.1.1.3.2.5.2s.4-.1.6-.2l5.5-6c.3-.3.3-.8-.1-1.1-.4-.3-.9-.3-1.1 0zM70.8 70.1c-.3-.3-.8-.3-1.1.1-.3.3-.3.8.1 1.1l6 5.4c.1.1.3.2.5.2s.4-.1.6-.2c.3-.3.3-.8-.1-1.1l-6-5.5zM70.5 25c.1.1.3.2.5.2s.4-.1.6-.3l5.4-6.1c.3-.3.3-.8-.1-1.1-.3-.3-.8-.3-1.1.1l-5.4 6.1c-.3.4-.3.8.1 1.1zM56.3 16.6h.2c.3 0 .7-.2.7-.6l1.7-8c.1-.4-.2-.8-.6-.9-.4-.1-.8.2-.9.6l-1.7 8c-.1.4.1.8.6.9z"/>
        <path d="M72.8 39.2c-3-9.6-11.3-16.8-21.2-18.3-11-1.7-21.9 3.8-27.2 13.5-4.6 8.5-4.1 17.6 1.7 27.8 3.8 6.7 8.2 15.5 8.2 24v20.1c0 .1 0 .3.1.4L47 127.1c.1.2.4.4.6.4.3 0 .5-.1.6-.4l12.6-20.6c.1-.1.1-.3.1-.4v-3c0-13.5-.1-24.1 5.9-36.7.5-1.1 1.1-2.2 1.6-3.3 3.9-7.4 7.4-14.4 4.4-23.9zM59.9 87.6c-.2 2.6-.3 5.3-.4 8H35.8v-8h24.1zm-15.6 32.2l-8.5-13.9v-.1h.1c1.6 0 3.1-.9 3.9-2.1.8 1.3 2.3 2.1 3.9 2.1s3.1-.9 3.9-2.1c.8 1.3 2.3 2.1 3.9 2.1s3.1-.9 3.9-2.1c.8 1.3 2.3 2.1 3.9 2.1h.1v.1L51 119.8v-.2h-6.7v.2zm15.2-16.7v1.2h-.1c-1.7 0-3.2-1.4-3.2-3.2v-.1-4h3.3v6.1zm-4.8-2c0 1.8-1.4 3.2-3.2 3.2-1.7 0-3.2-1.4-3.2-3.2v-.1-3.7c0-.1 0-.2-.1-.3h6.4l.1 4.1c0-.1 0-.1 0 0zm-7.8 0c0 1.8-1.4 3.2-3.2 3.2-1.7 0-3.2-1.4-3.2-3.2v-.1-4h6.4c0 .1-.1.2-.1.3l.1 3.8c0-.1 0-.1 0 0zm-7.8 0s-.1 0 0 0c0 1.8-1.4 3.2-3.2 3.2h-.1v-7.2H39l.1 4c-.1-.1 0-.1 0 0zm8.5 24.2l-2.5-4.2h5.1l-2.6 4.2zm19.6-62.8c-.5 1.1-1.1 2.2-1.6 3.4-3.4 7-4.9 13.6-5.5 20.3H35.8c0-8.8-4.5-17.8-8.4-24.6-5.5-9.8-6-18.4-1.7-26.4 5-9.2 15.3-14.3 25.7-12.7 9.3 1.4 17.2 8.2 20 17.3 2.7 8.7-.5 15.2-4.2 22.7z"/>
        <path d="M39.9 92h15.5c.4 0 .8-.3.8-.8 0-.4-.3-.8-.8-.8H39.9c-.4 0-.8.3-.8.8.1.5.4.8.8.8zM44.3 35.6c-.1-.4-.6-.6-1-.4-.4.1-.6.6-.4 1 0 .1 1.1 3.1-2.7 4.6-.4.2-.6.6-.4 1 .1.3.4.5.7.5.1 0 .2 0 .3-.1 5.2-2.1 3.6-6.6 3.5-6.6zM45.5 58.1c-1.5.3-2.7.9-3.4 2-1.2 1.8-.8 4-.8 4.1.1.4.4.6.7.6h.1c.4-.1.7-.5.6-.9 0 0-.3-1.7.6-3 .5-.7 1.3-1.2 2.4-1.4.4-.1.7-.5.6-.9 0-.3-.3-.6-.8-.5z"/>
        <path d="M53.4 30.5c-.3-.2-.5-.4-.8-.7-.6-.4-1.3-.6-2-.6-1.2 0-2.3.6-3 1.5-.7-.9-1.8-1.5-3-1.5-.7 0-1.4.2-2 .6-.3.2-.5.4-.7.6-6.5 5.9-9.8 13.1-9.8 21.3 0 9.1 5.8 14.7 10.8 16.8.3.2.7.3 1.1.4.2 0 .4.1.7.1 1.2 0 2.3-.6 3-1.5.7.9 1.8 1.5 3 1.5.2 0 .4 0 .7-.1h.1c.3-.1.7-.2 1-.3 5-2.1 10.8-7.7 10.8-16.8-.1-8.3-3.4-15.4-9.9-21.3zm-8.7 37h-.3l-.9-.3c-1.3-.5-2.7-1.4-4-2.4-.2-1-.9-5 1.2-6.3.4-.2.5-.7.2-1-.2-.4-.7-.5-1-.2-2 1.3-2.3 3.9-2.1 5.8-2.4-2.7-4.2-6.4-4.2-11.2 0-.8 0-1.6.1-2.3.4-.4 1.7-1.6 3.6-1.7 1.5-.1 3.1.6 4.6 1.9.1.1.3.2.5.2s.4-.1.6-.2c.3-.3.3-.8-.1-1.1-1.9-1.7-3.8-2.5-5.7-2.3-1.3.1-2.4.6-3.2 1.1.3-1.8.8-3.5 1.4-5.1.6.9 1.6 2 3.3 2.3h.1c.4 0 .7-.2.7-.6.1-.4-.2-.8-.6-.9-2-.4-2.6-2.1-2.8-2.7.8-1.7 1.8-3.3 3-4.8.2.9.6 2 1.4 3.4.1.2.4.4.6.4.1 0 .3 0 .4-.1.4-.2.5-.7.3-1-1.9-3.3-1.1-4.5-1-4.6.6-.7 1.3-1.4 2.1-2 .2-.2.4-.4.6-.5.3-.2.7-.3 1.2-.3 1.1 0 2 .8 2.2 1.8 0 .2-.1.4-.1.5V42c-.5-.2-1-.4-1.6-.3-.6 0-1.5.3-2.2 1.4-.2.3-.2.8.2 1 .1.1.3.1.4.1.2 0 .5-.1.6-.3.3-.5.7-.7 1.1-.7.5 0 1.1.3 1.5.6v9c-.7.5-2.4 1.4-4.2 1.2-1.2-.1-2.3-.8-3.2-2-.2-.2-.5-.3-.8-.3-.3.1-.5.4-.5.7 0 0-.2 2.9-1.8 3.2-.4.1-.7.5-.6.9.1.4.4.6.7.6h.1c1.6-.3 2.4-1.8 2.7-3 .9.8 2 1.3 3.2 1.4 1.7.2 3.3-.4 4.4-1v11c0 .2 0 .4.1.5-.3.7-1.2 1.5-2.2 1.5zM57.6 63c.1-1.9-.1-4.6-2.1-5.8-.4-.2-.8-.1-1 .2-.2.4-.1.8.2 1 1.9 1.2 1.5 4.7 1.2 6.2-1.3 1.1-2.7 1.9-4 2.4-.3.1-.5.2-.8.3h-.4c-1.1 0-2-.8-2.2-1.8 0-.2.1-.4.1-.5V54c1.1.6 2.7 1.2 4.4 1 1.2-.1 2.2-.6 3.2-1.4.3 1.2 1.1 2.7 2.7 3h.1c.4 0 .7-.2.7-.6.1-.4-.2-.8-.6-.9-1.6-.3-1.8-3.1-1.8-3.2 0-.3-.2-.6-.5-.7-.3-.1-.6 0-.8.3-.9 1.2-2 1.8-3.2 2-1.8.2-3.5-.7-4.2-1.2v-9c.4-.3 1-.6 1.5-.6.4 0 .8.3 1.1.7.1.2.4.3.6.3.2 0 .3 0 .4-.1.3-.2.4-.7.2-1-.7-1-1.6-1.3-2.2-1.4-.6 0-1.1.1-1.6.3V33c0-.2 0-.4-.1-.5.2-1 1.1-1.8 2.2-1.8.4 0 .8.1 1.1.3.2.2.4.3.6.5.7.7 1.4 1.3 2.1 2 0 0 1 1.2-1 4.6-.2.4-.1.8.3 1 .1.1.3.1.4.1.3 0 .5-.1.6-.4.8-1.4 1.2-2.5 1.4-3.4 1.2 1.5 2.2 3.1 3 4.8-.2.6-.8 2.3-2.8 2.7-.4.1-.7.5-.6.9.1.4.4.6.7.6h.1c1.8-.4 2.8-1.4 3.3-2.3.6 1.6 1.1 3.3 1.4 5.1-.8-.5-1.9-1-3.2-1.1-2-.1-3.9.7-5.7 2.3-.3.3-.3.8-.1 1.1.3.3.8.3 1.1.1 1.5-1.4 3.1-2 4.6-1.9 1.8.1 3.1 1.3 3.6 1.7.1.8.1 1.5.1 2.3 0 4.9-1.8 8.6-4.1 11.3z"/>
        <path d="M54.8 42.2c.3 0 .6-.2.7-.5.2-.4 0-.8-.4-1-3.7-1.5-2.8-4.3-2.7-4.6.1-.4-.1-.8-.4-1-.4-.1-.8.1-1 .4 0 0-1.6 4.5 3.6 6.5 0 .1.1.2.2.2zM49.7 58.1c-.4-.1-.8.2-.9.6-.1.4.2.8.6.9 1.1.2 1.9.6 2.4 1.4.9 1.3.6 2.9.6 3-.1.4.2.8.6.9h.1c.4 0 .7-.2.7-.6 0-.1.4-2.3-.8-4.1-.6-1.2-1.7-1.8-3.3-2.1z"/>
    </g>
</svg>
