<svg xmlns="http://www.w3.org/2000/svg" width="128" height="126" viewBox="0 0 128 126">
    <g fill="#EF7B45" fill-rule="nonzero">
        <path d="M117.4 99.2V59v-.1-.5l-4.2-9.3c-.2-.5-1.1-.5-1.4 0l-4.2 9.3c-.1.1-.1.3 0 .5V108.2c0 2.5 2 4.5 4.5 4.5h.8c2.5 0 4.5-2 4.5-4.5v-9zm-4.9-48l3.1 7h-6.2l3.1-7zm3.4 57c0 1.7-1.3 3-3 3h-.8c-1.7 0-3-1.3-3-3v-4.3h6.8v4.3zm0-5.8h-6.8V100h6.8v2.4zm0-3.9h-6.8V59.7h6.8v38.8z"/>
        <path d="M112.5 81.7c.4 0 .8-.3.8-.8v-4c0-.4-.3-.8-.8-.8-.4 0-.8.3-.8.8v4c0 .4.4.8.8.8zM112.5 71.6c.4 0 .8-.3.8-.8v-4c0-.4-.3-.8-.8-.8-.4 0-.8.3-.8.8v4c0 .5.4.8.8.8zM112.5 91.7c.4 0 .8-.3.8-.8v-4c0-.4-.3-.8-.8-.8-.4 0-.8.3-.8.8v4c0 .5.4.8.8.8zM12.1 31.7c0-.4-.3-.8-.8-.8-.4 0-.8.3-.8.8V45c0 .4.3.8.8.8.4 0 .8-.3.8-.8V31.7zM11.3 50.4c-.4 0-.8.3-.8.8v4.7c0 .4.3.8.8.8.4 0 .8-.3.8-.8v-4.7c0-.4-.4-.8-.8-.8zM125.1 76.9c-.4 0-.8.3-.8.8V91c0 .4.3.8.8.8.4 0 .8-.3.8-.8V77.6c0-.4-.3-.7-.8-.7zM125.1 96.4c-.4 0-.8.3-.8.8v4.8c0 .4.3.8.8.8.4 0 .8-.3.8-.8v-4.8c0-.5-.3-.8-.8-.8zM19.5 35.2c0 2.1 1.7 3.7 3.7 3.7 2.1 0 3.7-1.7 3.7-3.7 0-2.1-1.7-3.7-3.7-3.7s-3.7 1.7-3.7 3.7zm3.8-2.2c1.2 0 2.2 1 2.2 2.2 0 1.2-1 2.2-2.2 2.2-1.2 0-2.2-1-2.2-2.2C21 34 22 33 23.3 33zM55.8 115.8c-2.1 0-3.7 1.7-3.7 3.7 0 2.1 1.7 3.7 3.7 3.7 2.1 0 3.7-1.7 3.7-3.7.1-2-1.6-3.7-3.7-3.7zm0 6c-1.2 0-2.2-1-2.2-2.2 0-1.2 1-2.2 2.2-2.2 1.2 0 2.2 1 2.2 2.2.1 1.2-.9 2.2-2.2 2.2zM8.4 18.5c0 .4.3.8.8.8h12.2c.4 0 .8-.3.8-.8 0-.4-.3-.8-.8-.8H9.2c-.4 0-.8.4-.8.8zM5.9 18.5c0-.4-.3-.8-.8-.8H1.3c-.4 0-.8.3-.8.8 0 .4.3.8.8.8h3.9c.4-.1.7-.4.7-.8zM1.3 15.1h8.5c.4 0 .8-.3.8-.8 0-.4-.3-.8-.8-.8H1.3c-.4 0-.8.3-.8.8 0 .4.3.8.8.8zM13.4 15.1h2.7c.4 0 .8-.3.8-.8 0-.4-.3-.8-.8-.8h-2.7c-.4 0-.8.3-.8.8 0 .4.4.8.8.8zM99.9 120.9c0-.4-.3-.8-.8-.8H86.9c-.4 0-.8.3-.8.8 0 .4.3.8.8.8h12.2c.4-.1.8-.4.8-.8zM107.1 120.1h-3.9c-.4 0-.8.3-.8.8 0 .4.3.8.8.8h3.9c.4 0 .8-.3.8-.8-.1-.4-.4-.8-.8-.8zM107.1 124.3h-8.5c-.4 0-.8.3-.8.8 0 .4.3.8.8.8h8.5c.4 0 .8-.3.8-.8-.1-.4-.4-.8-.8-.8zM94.9 124.3h-2.7c-.4 0-.8.3-.8.8 0 .4.3.8.8.8h2.7c.4 0 .8-.3.8-.8 0-.4-.4-.8-.8-.8zM120.5 39.9c-.3-.3-.8-.3-1.1 0-.3.3-.3.8 0 1.1l1.6 1.6c.1.1.3.2.5.2s.4-.1.5-.2c.3-.3.3-.8 0-1.1l-1.5-1.6zM125.7 45.1c-.3-.3-.8-.3-1.1 0-.3.3-.3.8 0 1.1l1.6 1.6c.1.1.3.2.5.2s.4-.1.5-.2c.3-.3.3-.8 0-1.1l-1.5-1.6zM121 45.1l-1.6 1.6c-.3.3-.3.8 0 1.1.1.1.3.2.5.2s.4-.1.5-.2l1.6-1.6c.3-.3.3-.8 0-1.1-.2-.3-.7-.3-1 0zM125.1 42.8c.2 0 .4-.1.5-.2l1.6-1.6c.3-.3.3-.8 0-1.1-.3-.3-.8-.3-1.1 0l-1.6 1.6c-.3.3-.3.8 0 1.1.3.1.4.2.6.2zM17.4 117.2c-.3-.3-.8-.3-1.1 0-.3.3-.3.8 0 1.1l1.6 1.6c.1.1.3.2.5.2s.4-.1.5-.2c.3-.3.3-.8 0-1.1l-1.5-1.6zM22.6 122.4c-.3-.3-.8-.3-1.1 0-.3.3-.3.8 0 1.1l1.6 1.6c.1.1.3.2.5.2s.4-.1.5-.2c.3-.3.3-.8 0-1.1l-1.5-1.6zM18 122.4l-1.6 1.6c-.3.3-.3.8 0 1.1.1.1.3.2.5.2s.4-.1.5-.2l1.6-1.6c.3-.3.3-.8 0-1.1-.3-.3-.7-.3-1 0zM23.2 117.2l-1.6 1.6c-.3.3-.3.8 0 1.1.1.1.3.2.5.2s.4-.1.5-.2l1.6-1.6c.3-.3.3-.8 0-1.1-.3-.3-.7-.3-1 0zM102.4 1.6c-6.1-2.2-12.6-1.9-18.5.9-5.8 2.7-10.3 7.6-12.4 13.7-4 11.1.5 23.3 10.7 29.1.2.6-.6 3.2-1.6 5.5-.1.2-.1.4 0 .6.1.2.2.3.4.4.1 0 .3.1.4.1.8 0 2.1-.7 4.6-2.1 1.2-.7 3-1.7 3.4-1.8 11.7 2.4 23.5-4.2 27.6-15.5 2.2-6.1 1.9-12.6-.9-18.5-2.8-5.8-7.6-10.2-13.7-12.4zM115.5 32c-3.8 10.5-14.9 16.8-25.9 14.5-.7-.2-1.8.4-4.4 2-.8.4-1.8 1.1-2.7 1.5 1.3-3.4 1.5-5.4.4-5.9-9.6-5.4-13.9-17-10.1-27.4C74.8 11 79 6.5 84.5 3.9c3.1-1.4 6.3-2.2 9.6-2.2 2.6 0 5.2.4 7.7 1.3 11.8 4.3 17.9 17.3 13.7 29z"/>
        <path d="M103.9 35.8L79.4 27c-.4-.1-.8.1-1 .5-.1.4.1.8.5 1l24.5 8.8h.3c.3 0 .6-.2.7-.5.1-.4-.1-.9-.5-1zM109 31.8L78 20.6c-.4-.1-.8.1-1 .5-.1.4.1.8.5 1l31 11.2h.3c.3 0 .6-.2.7-.5.1-.4-.1-.9-.5-1zM78.9 15.9c-.1.4.1.8.5 1l31 11.2h.3c.3 0 .6-.2.7-.5.1-.4-.1-.8-.5-1l-31-11.2c-.4-.1-.8.1-1 .5zM84.5 12.9l24.5 8.8h.3c.3 0 .6-.2.7-.5.1-.4-.1-.8-.5-1L85 11.5c-.4-.1-.8.1-1 .5-.1.3.1.7.5.9zM92.6 112.7s0-.1 0 0c.1-.1.2-.1.2-.2 0 0 0-.1.1-.1l.1-.1v-.2V62.3c0-.2 0-.4-.2-.6h-.1l-.2-.2H63.3v-23c0-.4-.3-.8-.8-.8h-9.4c-.4 0-.8.3-.8.8v23h-8.1V47.1H47c.3 0 .6-.2.7-.5.1-.3.1-.6-.2-.8l-8.3-8.3c-.1-.1-.3-.2-.5-.2s-.4.1-.5.2L30 45.8c-.2.2-.3.5-.2.8.1.3.4.5.7.5h2.9v14.4H4.3h-.1c-.1 0-.2.1-.2.1h-.1c-.1.2-.2.4-.2.6v50.1c0 .1.1.1.1.1s0 .1.1.1c.1.1.1.1.2.1s.2.1.3.1h88.2zM53.2 67.6c.2 0 .4-.1.5-.2.1-.1.2-.3.2-.5V39.3h7.9v27.6c0 .4.3.8.8.8h1.8l-6.5 6.5-6.5-6.5 1.8-.1zm-20.8-22l6.5-6.5 6.5 6.5h-1.8c-.2 0-.4.1-.5.2-.1.1-.2.3-.2.5V74H35V46.3c0-.4-.3-.8-.8-.8l-1.8.1zm1 17.4v11.7c0 .4.3.8.8.8h9.4c.4 0 .8-.3.8-.8V63h8.1v3.1h-2.8c-.3 0-.6.2-.7.5-.1.3-.1.6.2.8l8.3 8.3c.1.1.3.2.5.2s.4-.1.5-.2l8.3-8.3c.2-.2.3-.5.2-.8-.1-.3-.4-.5-.7-.5h-2.9V63h26.9L49.9 97.8c-.9.7-2.2.7-3 0L6.5 63h26.9zm-28.2.9l26.3 22.7-26.3 23.7V63.9zm1.2 47.3l26.3-23.6L45.9 99c.7.6 1.6.9 2.5.9.9 0 1.8-.3 2.5-.9L64 87.6l26.3 23.6H6.4zm85.1-.9L65.2 86.6l26.3-22.7v46.4zM28.6 26.9c0 .1.1.1.1.1s0 .1.1.1c.1.1.1.1.2.1s.2.1.3.1h35.8c.1 0 .2 0 .3-.1.1 0 .1-.1.2-.1 0 0 0-.1.1-.1l.1-.1v-.2V6.4v-.2-.1s0-.1-.1-.1c0 0-.1 0-.1-.1 0 0-.1-.1-.2-.1H29.1 29c-.1 0-.1.1-.1.1s-.1 0-.1.1l-.1.1v20.6c-.1.1-.1.1-.1.2zm2.7-1l9.6-8.6 5.1 4.4c.4.3.8.5 1.3.5s.9-.2 1.3-.5l5.1-4.4 9.6 8.6h-32zm33-1l-9.6-8.7L64.3 8v16.9zM63.1 7.1L47.5 20.5c-.2.2-.5.2-.6 0L31.3 7.1h31.8zM30 8l9.6 8.3-9.6 8.6V8z"/>
    </g>
</svg>
