<?xml version="1.0" encoding="UTF-8"?>
<svg width="112px" height="128px" viewBox="0 0 112 128" version="1.1" xmlns="http://www.w3.org/2000/svg" xmlns:xlink="http://www.w3.org/1999/xlink">
    <!-- Generator: Sketch 43.1 (39012) - http://www.bohemiancoding.com/sketch -->
    <title>Group</title>
    <desc>Created with Sketch.</desc>
    <defs></defs>
    <g id="Landing-page" stroke="none" stroke-width="1" fill="none" fill-rule="evenodd">
        <g id="Desktop-HD" transform="translate(-1022.000000, -1256.000000)" fill-rule="nonzero" fill="#041E42">
            <g id="Group" transform="translate(1022.000000, 1256.000000)">
                <path d="M93.9,81.5 C93.7,81.3 93.5,81.2 93.3,81.2 C93.1,81.2 92.8,81.4 92.7,81.6 C91.8,83.1 91,84.4 90.1,85.8 C89.4,86.9 88.6,88.1 87.7,89.5 C87.5,89.9 87.6,90.3 87.9,90.5 C88,90.6 88.2,90.6 88.3,90.6 C88.6,90.6 88.8,90.5 88.9,90.2 C89.7,88.8 90.5,87.7 91.2,86.5 C91.7,85.7 92.2,84.9 92.8,84 C93.3,87.4 93,91.2 91.7,95 L91.7,95 L91.7,95 C91,97.1 90,99.3 88.8,101.3 L88.8,101.3 L88.8,101.3 C86.9,104.4 84.6,107.2 81.8,109.8 L81.8,109.8 L81.8,109.8 C79.7,111.7 77.3,113.4 74.8,114.9 L74.8,114.9 C72.6,116.2 70.3,117.2 67.8,118.1 L67.8,118.1 C67.4,118.3 66.9,118.4 66.5,118.5 L66.5,118.5 L66.5,118.5 C64.7,119.1 62.8,119.5 60.8,119.9 L60.8,119.9 L60.8,119.9 C58.4,120.3 55.9,120.6 53.4,120.6 C53,120.6 52.7,120.9 52.7,121.4 C52.7,121.8 53,122.1 53.5,122.1 L53.5,122.1 C55.8,122.1 58,121.9 60.2,121.5 L60.2,126.5 C60.2,126.9 60.5,127.3 61,127.3 L68.1,127.3 L68.2,127.3 L75.2,127.3 L75.2,127.3 L75.2,127.3 L82.2,127.3 L82.3,127.3 L89.4,127.3 L89.5,127.3 L96.5,127.3 C96.9,127.3 97.3,127 97.3,126.5 L97.3,95.4 C97.3,95 97,94.6 96.5,94.6 L93.4,94.6 C94.4,91.2 94.8,87.8 94.4,84.7 C95.6,86.2 96.8,88 98.2,90.2 C98.4,90.6 98.9,90.7 99.2,90.4 C99.6,90.2 99.7,89.7 99.4,89.4 C97.4,86 95.4,83.5 93.9,81.5 Z M61.7,121.4 C63.5,121.1 65.3,120.6 66.9,120.1 L66.9,120.1 C67,120.1 67.1,120 67.3,120 L67.3,126 L61.7,126 L61.7,121.4 L61.7,121.4 Z M74.5,126 L68.9,126 L68.9,119.5 C70.8,118.8 72.7,117.9 74.5,117 L74.5,126 Z M76,116.1 C78,114.9 79.9,113.6 81.6,112.1 L81.6,126 L76,126 L76,116.1 Z M83.1,110.8 C85.2,108.8 87.1,106.7 88.7,104.4 L88.7,126 L83.1,126 L83.1,110.8 Z M95.8,126 L90.2,126 L90.2,102.1 C91.3,100.2 92.3,98.2 93,96.2 L95.8,96.2 L95.8,126 Z" id="Shape"></path>
                <path d="M87.6,11 L101.2,11 C101.6,11 102,10.7 102,10.2 C102,9.8 101.7,9.4 101.2,9.4 L87.6,9.4 C87.2,9.4 86.8,9.7 86.8,10.2 C86.9,10.7 87.2,11 87.6,11 Z" id="Shape"></path>
                <path d="M78.8,11 L83.2,11 C83.6,11 84,10.7 84,10.2 C84,9.8 83.7,9.4 83.2,9.4 L78.8,9.4 C78.4,9.4 78,9.7 78,10.2 C78,10.7 78.4,11 78.8,11 Z" id="Shape"></path>
                <path d="M78.8,15.7 L88.3,15.7 C88.7,15.7 89.1,15.4 89.1,14.9 C89.1,14.4 88.8,14.1 88.3,14.1 L78.8,14.1 C78.4,14.1 78,14.4 78,14.9 C78,15.4 78.4,15.7 78.8,15.7 Z" id="Shape"></path>
                <path d="M92.3,14.2 C91.9,14.2 91.5,14.5 91.5,15 C91.5,15.5 91.8,15.8 92.3,15.8 L95.4,15.8 C95.8,15.8 96.2,15.5 96.2,15 C96.2,14.5 95.9,14.2 95.4,14.2 L92.3,14.2 Z" id="Shape"></path>
                <path d="M10.1,81.5 L23.7,81.5 C24.1,81.5 24.5,81.2 24.5,80.7 C24.5,80.3 24.2,79.9 23.7,79.9 L10.1,79.9 C9.7,79.9 9.3,80.2 9.3,80.7 C9.3,81.2 9.7,81.5 10.1,81.5 Z" id="Shape"></path>
                <path d="M1.3,81.5 L5.7,81.5 C6.1,81.5 6.5,81.2 6.5,80.7 C6.5,80.3 6.2,79.9 5.7,79.9 L1.3,79.9 C0.9,79.9 0.5,80.2 0.5,80.7 C0.5,81.2 0.8,81.5 1.3,81.5 Z" id="Shape"></path>
                <path d="M11.5,85.4 C11.5,85 11.2,84.6 10.7,84.6 L1.3,84.6 C0.9,84.6 0.5,84.9 0.5,85.4 C0.5,85.8 0.8,86.2 1.3,86.2 L10.8,86.2 C11.1,86.1 11.5,85.8 11.5,85.4 Z" id="Shape"></path>
                <path d="M17.8,84.6 L14.7,84.6 C14.3,84.6 13.9,84.9 13.9,85.4 C13.9,85.8 14.2,86.2 14.7,86.2 L17.8,86.2 C18.2,86.2 18.6,85.9 18.6,85.4 C18.6,85 18.3,84.6 17.8,84.6 Z" id="Shape"></path>
                <path d="M7.7,41.7 C8.1,41.7 8.5,41.4 8.5,40.9 L8.5,29.4 C8.5,29 8.2,28.6 7.7,28.6 C7.2,28.6 6.9,28.9 6.9,29.4 L6.9,41 C6.9,41.4 7.2,41.7 7.7,41.7 Z" id="Shape"></path>
                <path d="M7.7,49.3 C8.1,49.3 8.5,49 8.5,48.5 L8.5,44.8 C8.5,44.4 8.2,44 7.7,44 C7.2,44 6.9,44.3 6.9,44.8 L6.9,48.5 C6.9,48.9 7.2,49.3 7.7,49.3 Z" id="Shape"></path>
                <path d="M76.6,38.5 C76.7,38.6 76.9,38.7 77.1,38.7 C77.3,38.7 77.5,38.6 77.6,38.5 C77.9,38.2 77.9,37.7 77.6,37.4 L76.1,35.9 C75.8,35.6 75.3,35.6 75,35.9 C74.7,36.2 74.7,36.7 75,37 L76.6,38.5 Z" id="Shape"></path>
                <path d="M81,40.8 C80.7,40.5 80.2,40.5 79.9,40.8 C79.6,41.1 79.6,41.6 79.9,41.9 L81.4,43.4 C81.5,43.5 81.7,43.6 81.9,43.6 C82.1,43.6 82.3,43.5 82.4,43.4 C82.7,43.1 82.7,42.6 82.4,42.3 L81,40.8 Z" id="Shape"></path>
                <path d="M75.6,43.6 C75.8,43.6 76,43.5 76.1,43.4 L77.6,41.9 C77.9,41.6 77.9,41.1 77.6,40.8 C77.3,40.5 76.8,40.5 76.5,40.8 L75,42.3 C74.7,42.6 74.7,43.1 75,43.4 C75.2,43.5 75.4,43.6 75.6,43.6 Z" id="Shape"></path>
                <path d="M82.5,35.9 C82.2,35.6 81.7,35.6 81.4,35.9 L79.9,37.4 C79.6,37.7 79.6,38.2 79.9,38.5 C80,38.6 80.2,38.7 80.4,38.7 C80.6,38.7 80.8,38.6 80.9,38.5 L82.4,37 C82.8,36.7 82.8,36.2 82.5,35.9 Z" id="Shape"></path>
                <path d="M104.9,113.5 C104.6,113.2 104.1,113.2 103.8,113.5 C103.5,113.8 103.5,114.3 103.8,114.6 L105.3,116.1 C105.4,116.2 105.6,116.3 105.8,116.3 C106,116.3 106.2,116.2 106.3,116.1 C106.6,115.8 106.6,115.3 106.3,115 L104.9,113.5 Z" id="Shape"></path>
                <path d="M109.8,118.3 C109.5,118 109,118 108.7,118.3 C108.4,118.6 108.4,119.1 108.7,119.4 L110.2,120.9 C110.3,121 110.5,121.1 110.7,121.1 C110.9,121.1 111.1,121 111.2,120.9 C111.5,120.6 111.5,120.1 111.2,119.8 L109.8,118.3 Z" id="Shape"></path>
                <path d="M105.3,118.3 L103.8,119.8 C103.5,120.1 103.5,120.6 103.8,120.9 C103.9,121 104.1,121.1 104.3,121.1 C104.5,121.1 104.7,121 104.8,120.9 L106.3,119.4 C106.6,119.1 106.6,118.6 106.3,118.3 C106.1,118.1 105.6,118.1 105.3,118.3 Z" id="Shape"></path>
                <path d="M109.2,116.3 C109.4,116.3 109.6,116.2 109.7,116.1 L111.2,114.6 C111.5,114.3 111.5,113.8 111.2,113.5 C110.9,113.2 110.4,113.2 110.1,113.5 L108.6,115 C108.3,115.3 108.3,115.8 108.6,116.1 C108.8,116.2 109,116.3 109.2,116.3 Z" id="Shape"></path>
                <path d="M5,117.1 C4.7,116.8 4.2,116.8 3.9,117.1 C3.6,117.4 3.6,117.9 3.9,118.2 L5.4,119.7 C5.5,119.8 5.7,119.9 5.9,119.9 C6.1,119.9 6.3,119.8 6.4,119.7 C6.7,119.4 6.7,118.9 6.4,118.6 L5,117.1 Z" id="Shape"></path>
                <path d="M9.9,122 C9.6,121.7 9.1,121.7 8.8,122 C8.5,122.3 8.5,122.8 8.8,123.1 L10.3,124.6 C10.4,124.7 10.6,124.8 10.8,124.8 C11,124.8 11.2,124.7 11.3,124.6 C11.6,124.3 11.6,123.8 11.3,123.5 L9.9,122 Z" id="Shape"></path>
                <path d="M5.4,122 L3.9,123.5 C3.6,123.8 3.6,124.3 3.9,124.6 C4,124.7 4.2,124.8 4.4,124.8 C4.6,124.8 4.8,124.7 4.9,124.6 L6.4,123.1 C6.7,122.8 6.7,122.3 6.4,122 C6.2,121.7 5.7,121.7 5.4,122 Z" id="Shape"></path>
                <path d="M10.3,117.1 L8.8,118.6 C8.5,118.9 8.5,119.4 8.8,119.7 C8.9,119.8 9.1,119.9 9.3,119.9 C9.5,119.9 9.7,119.8 9.8,119.7 L11.3,118.2 C11.6,117.9 11.6,117.4 11.3,117.1 C11.1,116.8 10.6,116.8 10.3,117.1 Z" id="Shape"></path>
                <path d="M99.3,63.9 C97.4,63.9 95.8,65.5 95.8,67.4 C95.8,69.3 97.4,70.9 99.3,70.9 C101.2,70.9 102.8,69.3 102.8,67.4 C102.8,65.4 101.2,63.9 99.3,63.9 Z M99.3,69.3 C98.2,69.3 97.3,68.4 97.3,67.3 C97.3,66.2 98.2,65.3 99.3,65.3 C100.4,65.3 101.3,66.2 101.3,67.3 C101.3,68.4 100.4,69.3 99.3,69.3 Z" id="Shape"></path>
                <path d="M43.8,39.6 C43.8,37.7 42.2,36.1 40.3,36.1 C38.4,36.1 36.8,37.7 36.8,39.6 C36.8,41.5 38.4,43.1 40.3,43.1 C42.3,43.1 43.8,41.5 43.8,39.6 Z M38.4,39.6 C38.4,38.5 39.3,37.6 40.4,37.6 C41.5,37.6 42.4,38.5 42.4,39.6 C42.4,40.7 41.5,41.6 40.4,41.6 C39.3,41.6 38.4,40.7 38.4,39.6 Z" id="Shape"></path>
                <path d="M53.4,8.7 C53.2,8.6 48,6.3 38.5,9.6 C38.1,9.7 37.9,10.2 38,10.6 C38.1,10.9 38.4,11.1 38.7,11.1 L38.9,11.1 C47.8,8 52.6,10.2 52.7,10.2 C53.1,10.4 53.5,10.2 53.7,9.8 C54,9.3 53.8,8.9 53.4,8.7 Z" id="Shape"></path>
                <path d="M30.1,23.8 C30,23.9 26.8,25.5 22.7,23.8 C22.3,23.6 21.9,23.8 21.7,24.2 C21.5,24.6 21.7,25 22.1,25.2 C23.7,25.9 25.2,26.1 26.5,26.1 C29,26.1 30.7,25.2 30.8,25.1 C31.2,24.9 31.3,24.4 31.1,24.1 C30.9,23.8 30.5,23.6 30.1,23.8 Z" id="Shape"></path>
                <path d="M62.2,113.9 C65.4,113.9 68.1,111.3 68.1,108 L68.1,107.3 C68.1,105.6 67.3,104 66.1,102.9 L68.3,102.9 C71.5,102.9 74.2,100.3 74.2,97 L74.2,96.3 C74.2,94.1 73,92.2 71.2,91.2 C73,90.2 74.2,88.3 74.2,86.1 L74.2,85.4 C74.2,83.2 73,81.3 71.2,80.3 C73,79.3 74.2,77.4 74.2,75.2 L74.2,74.5 C74.2,71.3 71.6,68.6 68.3,68.6 L59.9,68.6 C63.5,66.6 65.9,62.8 65.9,58.4 C65.9,58 65.6,57.6 65.1,57.6 L62.3,57.6 L62.3,2.3 C62.3,1.3 61.5,0.5 60.5,0.5 L58.4,0.5 C57.4,0.5 56.6,1.3 56.6,2.3 L56.6,4.4 C50.2,2 43.7,3.4 37.5,4.8 C30.9,6.3 24.6,7.7 18.2,4.8 C18,4.7 17.7,4.7 17.5,4.9 C17.3,5 17.2,5.3 17.2,5.5 L17.2,28 C17.2,28.3 17.4,28.6 17.6,28.7 C20.5,30 23.4,30.4 26.2,30.4 C30.1,30.4 34,29.5 37.7,28.7 C44.2,27.3 50.3,25.9 56.5,28.5 L56.5,57.6 L30.5,57.6 C28.7,57.6 27,58.5 25.9,60 L19.9,68.6 L11.1,68.6 C10.7,68.6 10.3,68.9 10.3,69.4 C10.3,69.8 10.6,70.2 11.1,70.2 L20.3,70.2 C20.5,70.2 20.8,70.1 20.9,69.9 L27.1,61 C27.9,59.9 29.1,59.3 30.4,59.3 L57.2,59.3 L61.4,59.3 L64.2,59.3 C63.8,64.6 59.4,68.8 54,68.8 L48.3,68.8 L37.8,68.8 C37.4,68.8 37,69.1 37,69.6 C37,70 37.3,70.4 37.8,70.4 L44.5,70.4 C43.3,71.5 42.5,73 42.5,74.8 L42.5,75.5 C42.5,77.7 43.7,79.6 45.5,80.6 C43.7,81.6 42.5,83.5 42.5,85.7 L42.5,86.4 C42.5,88.6 43.7,90.5 45.5,91.5 C43.7,92.5 42.5,94.4 42.5,96.6 L42.5,97 C42.5,99.2 43.7,101.1 45.5,102.1 C43.7,103.1 42.5,105 42.5,107.2 L42.5,107.9 C42.5,109.6 43.3,111.2 44.5,112.3 L29.8,112.3 C28.7,112.3 27.7,112.1 26.7,111.6 L22.7,109.7 C21.3,109 19.7,108.7 18.1,108.7 L11.2,108.7 C10.8,108.7 10.4,109 10.4,109.5 C10.4,109.9 10.7,110.3 11.2,110.3 L18.1,110.3 C19.5,110.3 20.8,110.6 22.1,111.2 L26.1,113.1 C27.3,113.6 28.5,113.9 29.8,113.9 L48.5,113.9 L53.8,113.9 L62.2,113.9 L62.2,113.9 Z M37.4,27.2 C31,28.7 24.8,30 18.6,27.5 L18.6,6.6 C25,9 31.5,7.6 37.7,6.2 C44.2,4.8 50.4,3.4 56.6,6 L56.6,26.8 C50.1,24.4 43.7,25.9 37.4,27.2 Z M58.1,57.5 L58.1,28 L58.1,5.5 L58.1,2.3 C58.1,2.1 58.2,2 58.4,2 L60.5,2 C60.7,2 60.8,2.1 60.8,2.3 L60.8,57.5 L58.1,57.5 Z M44.1,75.1 L44.1,74.4 C44.1,72 46.1,70 48.5,70 L54.2,70 L68.3,70 C70.7,70 72.7,72 72.7,74.4 L72.7,75.1 C72.7,77.5 70.7,79.5 68.3,79.5 L48.5,79.5 C46.1,79.5 44.1,77.5 44.1,75.1 Z M44.1,86.1 L44.1,85.4 C44.1,83 46.1,81 48.5,81 L68.3,81 C70.7,81 72.7,83 72.7,85.4 L72.7,86.1 C72.7,88.5 70.7,90.5 68.3,90.5 L48.5,90.5 C46.1,90.4 44.1,88.5 44.1,86.1 Z M44.1,97 L44.1,96.3 C44.1,93.9 46.1,91.9 48.5,91.9 L68.3,91.9 C70.7,91.9 72.7,93.9 72.7,96.3 L72.7,97 C72.7,99.4 70.7,101.4 68.3,101.4 L62.2,101.4 L48.5,101.4 C46.1,101.4 44.1,99.4 44.1,97 Z M48.5,112.4 C46.1,112.4 44.1,110.4 44.1,108 L44.1,107.3 C44.1,104.9 46.1,102.9 48.5,102.9 L62.2,102.9 C64.6,102.9 66.6,104.9 66.6,107.3 L66.6,108 C66.6,110.4 64.6,112.4 62.2,112.4 L53.8,112.4 L48.5,112.4 Z" id="Shape"></path>
                <path d="M19.2,102.5 L19.2,102.5 C31.6,101.4 35.7,91.8 36.9,87.7 C37,87.3 36.8,86.9 36.4,86.8 C36,86.7 35.6,86.9 35.5,87.3 C34.1,92 30.2,100 19.2,101 C18.8,101 18.5,101.4 18.5,101.8 C18.5,102.2 18.8,102.5 19.2,102.5 Z" id="Shape"></path>
            </g>
        </g>
    </g>
</svg>