<svg xmlns="http://www.w3.org/2000/svg" width="128" height="124" viewBox="0 0 128 124">
    <g fill="#EF7B45" fill-rule="nonzero">
        <path d="M71.6 112.6h15.1c.4 0 .8-.3.8-.8 0-.4-.3-.8-.8-.8H71.6c-.4 0-.8.3-.8.8.1.5.4.8.8.8z"/>
        <path d="M116.6 122.9v-.1c-.9-2.9-1.7-5.8-2.6-8.6-2.1-6.7-8.2-10.5-16-9.9-.6 0-1.3.2-2.1.3l-3-4.4v-5.7c2.5-2.2 4.5-5.3 5.7-9 1.9 0 3.4-2.8 3.4-6.6 0-3.1-1-5.5-2.4-6.3v-.1c.3-2 .5-4.1.6-6.2.6-9-1.8-10.2-6.4-11.6-.4-.1-.7-.2-1.1-.3-3.7-1.2-7.5-1.5-10.1-1.5-1.1 0-2.1.1-3.2.2.2-7.7-1.9-9.7-5.8-11.1.3-.4.6-.9.7-1.1 1.7-3 2.5-6.4 2.3-9.9-.5-9.2-7.7-16.6-16.9-17.2-5.1-.3-9.9 1.4-13.7 4.9-3.7 3.4-5.8 8.3-5.8 13.3 0 2.8.6 5.5 1.9 8 0 0 0 .1.1.1.3.4.6 1 .8 1.6.1.1.1.2.2.4-3.9 1.4-6 3.4-5.8 11.1-1-.1-2.1-.1-3.2-.2-2.5 0-6.4.3-10.1 1.5-.4.1-.7.2-1.1.3-4.6 1.4-7 2.6-6.4 11.6.1 2.1.4 4.2.6 6.2v.1C16 73.5 15 75.9 15 79c0 3.8 1.5 6.6 3.4 6.6 1.3 3.7 3.3 6.8 5.7 9v5.7l-3 4.4c-.8-.1-1.5-.3-2-.3-7.8-.6-13.9 3.2-16 9.9-.9 2.8-1.8 5.7-2.6 8.6v.5l.1.1.1.1.1.1.1.1H115.8c.1 0 .1 0 .1-.1 0 0 .1 0 .1-.1l.1-.1.1-.1V123.1c.4-.1.4-.1.4-.2zm-18.5-17c7-.5 12.6 2.8 14.4 8.8.8 2.5 1.6 5 2.3 7.6h-16c-1-3.3-2-6.6-3-9.7-.7-2.2-1.8-4.1-3.1-5.8.7-.1 1.5-.3 2.3-.4 1.1-.2 2.3-.5 3.1-.5zm-6.7-5.3v.1c0 .1 0 .1.1.1v.1l2.8 4c-1.1.2-2.1.4-2.9.4-3.6-3.3-8.7-5-14.6-4.6-1.6.1-3.2.2-4.9.3.2-.5.5-.9.7-1.4v-.8l-2-3.1v-3.4c3.2 4 7.6 6.2 12.1 6.2 3.1 0 6.1-1 8.7-2.9v5zm-32.8 15.2c-.8-.6-2.6-2.1-4.9-4.7l1.7-6.9h6.5l1.6 6.8c-2.3 2.7-4.2 4.2-4.9 4.8zm3.4-13.1h-6.9l-1.4-2.5h9.8l-1.5 2.5zm2.7 6.8l-1.4-5.9 2.2-3.7c.1-.2.1-.5 0-.8-.1-.2-.4-.4-.7-.4H52.3c-.3 0-.5.1-.7.4-.1.2-.1.5 0 .8l2.2 3.8-1.4 5.9c-2-2.5-4.3-5.9-6.5-10.2l1.9-2.9v-.1s0-.1.1-.1v-.1-6.1c3.1 2.3 6.7 3.6 10.5 3.6s7.4-1.3 10.5-3.6V96.3s0 .1.1.1v.1l1.9 2.9c-1.7 3.8-3.9 7.2-6.2 10.1zM39.3 64.1c.3-.1.5-.3.6-.6v-.2c.4-1.7 1.7-6.2 3-7.8 1.1-1.3 5.5-.7 8 0 .3.1.7-.1.9-.4.2-.3.1-.7-.2-.9-1.6-1.3-1.4-2.6-1.1-3.5 4.7 4.1 8.9 3.8 9 3.8.1 0 10-.1 13.6.3 2.4.3 3.7 5.9 4 8.3V63.4c.1.3.3.5.6.6 1.1.2 2.3 2.8 2.3 6.2 0 3.6-1.3 6.2-2.4 6.2-.1 0-.2 0-.4-.1s-.4-.1-.6 0c-.2.1-.3.3-.4.5-2.9 9.3-9.8 15.3-17.7 15.3-7.9 0-14.8-6-17.7-15.3-.1-.2-.2-.4-.4-.5-.1 0-.2-.1-.3-.1-.1 0-.2 0-.3.1-.1.1-.2.1-.4.1-1.1 0-2.4-2.7-2.4-6.2 0-3.3 1.2-5.9 2.3-6.1zM100.6 79c0 3.1-1.1 5.1-1.9 5.1-.1 0-.1 0-.3-.1-.2-.1-.4-.1-.6 0-.2.1-.3.3-.4.5-2.4 7.7-8.2 12.7-14.7 12.7-4.5 0-8.8-2.5-11.8-6.8l-.3-.3v-1.3c3-2.7 5.4-6.4 6.9-10.9h.1c2.2 0 3.9-3.3 3.9-7.7 0-1.8-.3-3.5-.8-4.8 1.7.5 2.8.4 2.8.4.1 0 8.4-.1 11.3.3 1.8.2 2.9 4.6 3.3 6.8v.2c.1.3.3.5.6.6.8.4 1.9 2.3 1.9 5.3zM82.7 54.5c3.5 0 6.8.5 9.6 1.4.4.1.8.2 1.1.3 4 1.2 5.9 1.8 5.4 10.1 0 .8-.1 1.5-.2 2.3-.7-1.9-1.8-3.8-3.6-4-3-.4-11.2-.3-11.6-.3 0 0-1.5.1-3.5-.8-.1-.1-.3-.1-.4 0-.3-.3-.6-.5-.9-.7v-.2c.3-2.4.6-4.9.8-7.4v-.6c1.2 0 2.2-.1 3.3-.1zm-38-13.1c-.1-.1-.1-.3-.2-.4-.3-.6-.6-1.2-.9-1.6-1.1-2.3-1.7-4.8-1.7-7.4 0-4.6 1.9-9 5.3-12.2 3.4-3.2 7.9-4.8 12.5-4.4 8.4.6 15.1 7.3 15.5 15.7.2 3.2-.6 6.3-2.1 9l-.1.1c-.1.2-.5.8-.8 1.3-.1 0-.2-.1-.4-.1-.4-.1-.9-.3-1.3-.4-.8-.3-1.6-.5-2.4-.6.6-1.5.9-3 .9-4.7 0-4.8-1.7-9.1-5.1-12.8-.4-.5-.9-.9-1.4-1.4-.2-.2-.3-.3-.6-.5-.4-.3-.9-.4-1.4-.4-.8 0-1.5.3-2 .8-.5-.5-1.2-.8-2-.8-.5 0-1 .1-1.5.4-.2.1-.3.3-.5.4-.5.5-1 .9-1.4 1.4-3.4 3.7-5.1 8-5.1 12.8 0 1.7.3 3.2.9 4.7l-2.4.6c-.5.1-.9.3-1.3.4-.1 0-.2.1-.4.1 0 .1 0 .1-.1 0zm5.7-1.3c-.6-1.4-.9-2.8-.9-4.4v-.3c.3-.3 1.1-1 2.2-1 .9-.1 1.9.3 2.9 1.2.3.3.8.3 1.1-.1.3-.3.3-.8-.1-1.1-1.3-1.2-2.6-1.7-4-1.6-.8 0-1.4.3-1.9.6.4-2.8 1.4-5.5 3.2-7.8.2.5.4 1.1.8 1.8.1.2.4.4.6.4.1 0 .3 0 .4-.1.4-.2.5-.7.3-1-1.1-1.9-.8-2.6-.7-2.7.4-.5.9-.9 1.3-1.3.1-.1.3-.2.4-.3.2-.1.4-.2.7-.2.6 0 1.1.4 1.2 1v5.7c-.3-.1-.5-.1-.8-.1-.4 0-1.1.2-1.6 1-.2.3-.2.8.2 1 .1.1.3.1.4.1.2 0 .5-.1.6-.3.3-.4.5-.4.5-.4.2 0 .5.1.7.2v9c-2.2-.1-4.8.1-7.5.7zm8.9-9.7c.2-.2.5-.3.8-.3.1 0 .3 0 .5.4.1.2.4.3.6.3.2 0 .3 0 .4-.1.3-.2.4-.7.2-1-.5-.8-1.2-1-1.6-1-.3 0-.6 0-.9.1v-5.1c0-.1.1-.2.1-.3v-.3c.1-.6.6-1 1.2-1 .2 0 .5.1.6.1.1.1.3.2.4.3.5.4.9.9 1.3 1.3 0 0 .4.8-.7 2.7-.2.4-.1.8.3 1 .1.1.3.1.4.1.3 0 .5-.1.6-.4.4-.7.7-1.3.8-1.8 1.7 2.4 2.8 5 3.2 7.8-.5-.3-1.2-.5-1.9-.6-1.4-.1-2.7.4-4 1.6-.3.3-.3.8-.1 1.1.3.3.8.3 1.1.1 1-.9 1.9-1.3 2.9-1.2 1.1.1 1.9.8 2.2 1v.3c0 1.6-.3 3-.9 4.4-2.8-.5-5.4-.7-7.4-.8v-8.7h-.1zM45.7 42.9c.4-.1.9-.3 1.3-.4 3.4-1.1 7.3-1.7 11.5-1.7s8.2.6 11.6 1.7c.5.1.9.3 1.3.4.2.1.4.1.7.2l.1.1c.1.1.2.1.4.1h.1c4 1.3 5.9 2.7 5.3 11.9-.1 1.2-.2 2.3-.3 3.5-.8-2.5-2.2-5.1-4.4-5.3-3.7-.5-13.4-.4-13.8-.4 0 0-4.2.3-8.6-4.1-.2-.2-.4-.2-.6-.2-.2 0-.4.1-.5.3-.7.9-1.4 2.8-.5 4.6-2.4-.4-6-.7-7.4 1-.9 1-1.7 3-2.3 4.7-.2-1.4-.3-2.8-.4-4.1-.7-10.1 1.7-10.8 6.5-12.3zm-22 13.3c.4-.1.7-.2 1.1-.3 2.8-.9 6.1-1.4 9.6-1.4 1.1 0 2.2.1 3.2.2v.6c.2 2.5.5 5 .8 7.4v.2c-.3.2-.6.4-.9.7h-.4c-2 .9-3.5.8-3.5.8-.3 0-8.5-.1-11.5.3-1.7.2-2.9 2.1-3.6 4-.1-.8-.2-1.6-.2-2.3-.5-8.4 1.3-8.9 5.4-10.2zm-4 28.3c-.1-.2-.2-.4-.4-.5-.2-.1-.4-.1-.6 0-.1 0-.2.1-.3.1-.8 0-1.9-2-1.9-5.1 0-3 1-4.9 1.8-5 .3-.1.5-.3.6-.6V73.1c.3-2.3 1.5-6.6 3.3-6.8 2.1-.2 6.9-.3 9.5-.3h1.8c.1 0 1.2.1 2.8-.4-.5 1.3-.8 3-.8 4.8 0 4.4 1.7 7.7 3.9 7.7h.1c1.5 4.5 3.9 8.2 6.9 10.9v1.3c-.1.1-.3.1-.3.3-3 4.3-7.3 6.8-11.8 6.8-6.4-.2-12.2-5.2-14.6-12.9zm14.7 14.2c4.6 0 8.9-2.3 12.2-6.2v3.4l-2 3.1v.1s0 .1-.1.1v.4c.2.5.5.9.7 1.4-1.6-.1-3.2-.2-4.9-.3-5.9-.5-11 1.2-14.6 4.6-.7-.1-1.8-.2-2.9-.4l2.8-4v-.1s0-.1.1-.1v-.1-4.8c2.6 1.8 5.5 2.9 8.7 2.9zm-29.8 16c1.9-6 7.4-9.3 14.4-8.8.8 0 2 .3 3.1.5.8.1 1.5.3 2.3.4-1.4 1.6-2.4 3.6-3.1 5.8-1 3.2-2 6.4-3 9.7h-16c.7-2.6 1.5-5.1 2.3-7.6zm45 7.6H19.9c.9-3.2 1.9-6.3 2.9-9.3 2.3-7.2 8.9-11.3 17.5-10.6 1.9.1 3.9.2 5.8.3 5.9 10.4 11.9 14.5 12.1 14.7h.2c.1 0 .2.1.3.1.1 0 .2 0 .3-.1h.2c.1-.1 2.6-1.8 5.9-5.7 2.3-2.7 4.3-5.7 6.2-9 1.9-.1 3.9-.2 5.8-.3 8.5-.7 15.2 3.4 17.4 10.7 1 3 1.9 6.1 2.9 9.3H49.6v-.1zM11.5 36.3c.4 0 .8-.3.8-.8V24.4c0-.4-.3-.8-.8-.8s-.8.3-.8.8v11.1c.1.4.4.8.8.8zM10.8 42.7c0 .4.3.8.8.8s.8-.3.8-.8v-3.6c0-.4-.3-.8-.8-.8s-.8.3-.8.8v3.6zM104.5 13.4c.1.1.3.2.5.2s.4-.1.5-.2c.3-.3.3-.8 0-1.1l-1.5-1.5c-.3-.3-.8-.3-1.1 0-.3.3-.3.8 0 1.1l1.6 1.5zM109.4 18.3c.1.1.3.2.5.2s.4-.1.5-.2c.3-.3.3-.8 0-1.1l-1.5-1.5c-.3-.3-.8-.3-1.1 0-.3.3-.3.8 0 1.1l1.6 1.5zM103.6 18.5c.2 0 .4-.1.5-.2l1.5-1.5c.3-.3.3-.8 0-1.1-.3-.3-.8-.3-1.1 0l-1.5 1.5c-.3.3-.3.8 0 1.1.2.2.4.2.6.2zM108.4 13.7c.2 0 .4-.1.5-.2l1.5-1.5c.3-.3.3-.8 0-1.1-.3-.3-.8-.3-1.1 0l-1.5 1.5c-.3.3-.3.8 0 1.1.2.1.4.2.6.2zM108.7 68.2c-.3.3-.3.8 0 1.1l1.5 1.5c.1.1.3.2.5.2s.4-.1.5-.2c.3-.3.3-.8 0-1.1l-1.5-1.5c-.2-.3-.7-.3-1 0zM115.1 75.6c.1.1.3.2.5.2s.4-.1.5-.2c.3-.3.3-.8 0-1.1l-1.5-1.5c-.3-.3-.8-.3-1.1 0-.3.3-.3.8 0 1.1l1.6 1.5zM109.8 75.6l1.5-1.5c.3-.3.3-.8 0-1.1-.3-.3-.8-.3-1.1 0l-1.5 1.5c-.3.3-.3.8 0 1.1.1.1.3.2.5.2s.4-.1.6-.2zM114.1 70.9c.2 0 .4-.1.5-.2l1.5-1.5c.3-.3.3-.8 0-1.1-.3-.3-.8-.3-1.1 0l-1.5 1.5c-.3.3-.3.8 0 1.1.2.2.4.2.6.2zM2.7 67.5c.1.1.3.2.5.2s.4-.1.5-.2c.3-.3.3-.8 0-1.1L2.2 65c-.3-.3-.8-.3-1.1 0-.3.3-.3.8 0 1.1l1.6 1.4zM6.1 70.9l1.5 1.5c.1.1.3.2.5.2s.4-.1.5-.2c.3-.3.3-.8 0-1.1l-1.5-1.5c-.3-.3-.8-.3-1.1 0-.2.3-.2.8.1 1.1zM1.7 72.6c.2 0 .4-.1.5-.2l1.5-1.5c.3-.3.3-.8 0-1.1-.3-.3-.8-.3-1.1 0l-1.5 1.5c-.3.3-.3.8 0 1.1.2.2.4.2.6.2zM6.6 67.8c.2 0 .4-.1.5-.2L8.6 66c.3-.3.3-.8 0-1.1-.3-.3-.8-.3-1.1 0L6 66.4c-.3.3-.3.8 0 1.1.2.2.4.3.6.3zM101.1 44.5c2 0 3.6-1.6 3.6-3.6s-1.6-3.6-3.6-3.6-3.6 1.6-3.6 3.6c0 1.9 1.6 3.6 3.6 3.6zm0-5.7c1.2 0 2.1.9 2.1 2.1 0 1.2-.9 2.1-2.1 2.1-1.2 0-2.1-.9-2.1-2.1 0-1.2.9-2.1 2.1-2.1z"/>
        <path d="M11.5 100.1c2 0 3.6-1.6 3.6-3.6s-1.6-3.6-3.6-3.6-3.6 1.6-3.6 3.6 1.6 3.6 3.6 3.6zm0-5.6c1.2 0 2.1.9 2.1 2.1 0 1.2-.9 2.1-2.1 2.1-1.2 0-2.1-.9-2.1-2.1 0-1.2 1-2.1 2.1-2.1zM13.5 4.8h13.2c.4 0 .8-.3.8-.8 0-.4-.3-.8-.8-.8H13.5c-.4 0-.8.3-.8.8 0 .4.4.8.8.8zM4.9 4.8h4.3c.4 0 .8-.3.8-.8 0-.4-.3-.8-.8-.8H4.9c-.4.1-.8.4-.8.8s.4.8.8.8zM4.9 9.3h9.2c.4 0 .8-.3.8-.8s-.3-.8-.8-.8H4.9c-.4 0-.8.3-.8.8s.4.8.8.8zM18 7.8c-.4 0-.8.3-.8.8s.3.8.8.8h3c.4 0 .8-.3.8-.8s-.4-.8-.8-.8h-3zM126.7 89.9h-13.2c-.4 0-.8.3-.8.8 0 .4.3.8.8.8h13.2c.4 0 .8-.3.8-.8 0-.4-.3-.8-.8-.8zM104.2 90.7c0 .4.3.8.8.8h4.3c.4 0 .8-.3.8-.8 0-.4-.3-.8-.8-.8H105c-.5 0-.8.4-.8.8zM105 96h9.2c.4 0 .8-.3.8-.8 0-.4-.3-.8-.8-.8H105c-.4 0-.8.3-.8.8 0 .4.3.8.8.8zM121.1 94.5h-3c-.4 0-.8.3-.8.8 0 .4.3.8.8.8h3c.4 0 .8-.3.8-.8-.1-.5-.4-.8-.8-.8zM80.6 31.6c-.4 0-.8.3-.8.7 0 .4.3.8.7.8l9.2.1c.4 0 .8-.3.8-.7 0-.4-.3-.8-.7-.8l-9.2-.1zM58.6 10.9c.4 0 .8-.3.8-.8V1c0-.4-.3-.8-.8-.8-.4 0-.8.3-.8.8v9.2c0 .4.3.7.8.7zM46.7 13.6c.1.2.4.4.6.4.1 0 .3 0 .4-.1.4-.2.5-.7.3-1L43.3 5c-.2-.4-.7-.5-1-.3-.4.2-.5.7-.3 1l4.7 7.9zM31 17.4l8 4.5c.1.1.2.1.4.1.3 0 .5-.1.7-.4.2-.4.1-.8-.3-1l-8-4.5c-.4-.2-.8-.1-1 .3-.3.4-.1.8.2 1zM36.5 31.6l-9.2.1c-.4 0-.8.3-.7.8 0 .4.3.7.8.7l9.2-.1c.4 0 .8-.3.7-.8 0-.4-.4-.7-.8-.7zM77.7 22.1c.1 0 .3 0 .4-.1l8-4.5c.4-.2.5-.7.3-1-.2-.4-.7-.5-1-.3l-8 4.5c-.4.2-.5.7-.3 1 .1.3.4.4.6.4zM69.4 13.9c.1.1.3.1.4.1.3 0 .5-.1.6-.4l4.7-7.9c.2-.4.1-.8-.3-1-.4-.2-.8-.1-1 .3l-4.7 7.9c-.2.3 0 .8.3 1z"/>
    </g>
</svg>
