<svg xmlns="http://www.w3.org/2000/svg" width="75" height="80" viewBox="0 0 75 80">
    <g fill="#A99260" fill-rule="nonzero">
        <path d="M1 48v6.438c0 .25.188.5.5.5.25 0 .5-.188.5-.5V48c0-.25-.188-.5-.5-.5-.313 0-.5.25-.5.5zM1.438 59.125c.25 0 .5-.188.5-.5v-2.063c0-.25-.188-.5-.5-.5-.25 0-.5.188-.5.5v2.063c.062.25.25.5.5.5zM72.75 41.688c.25 0 .5-.188.5-.5V34.75c0-.25-.188-.5-.5-.5-.25 0-.5.188-.5.5v6.438c0 .312.25.5.5.5zM72.75 45.875c.25 0 .5-.188.5-.5v-2.063c0-.25-.188-.5-.5-.5-.25 0-.5.188-.5.5v2.063c0 .313.25.5.5.5zM21.063 6.813a.477.477 0 0 0 .312.125c.125 0 .25-.063.313-.125a.49.49 0 0 0 0-.688l-1-1a.49.49 0 0 0-.688 0 .49.49 0 0 0 0 .688l1.063 1zM24.375 10.125a.477.477 0 0 0 .313.125c.125 0 .25-.063.312-.125a.49.49 0 0 0 0-.688l-1-1a.49.49 0 0 0-.688 0 .49.49 0 0 0 0 .688l1.063 1zM20.375 10.25c.125 0 .25-.063.313-.125l1-1a.49.49 0 0 0 0-.688.49.49 0 0 0-.688 0l-1 1a.49.49 0 0 0 0 .688c.125.125.25.125.375.125zM23.688 7c.125 0 .25-.063.312-.125l1-1.063a.49.49 0 0 0 0-.687.48.48 0 0 0-.625.063l-1 1a.49.49 0 0 0 0 .687.477.477 0 0 0 .313.125zM1.5 17.313a.477.477 0 0 0 .313.125c.125 0 .25-.063.312-.125a.49.49 0 0 0 0-.688l-1-1a.49.49 0 0 0-.688 0 .49.49 0 0 0 0 .688l1.063 1zM4.438 18.938a.49.49 0 0 0-.688 0 .49.49 0 0 0 0 .687l1 1a.477.477 0 0 0 .313.125c.125 0 .25-.063.312-.125a.49.49 0 0 0 0-.688l-.938-1zM2.188 19.563a.49.49 0 0 0 0-.688.49.49 0 0 0-.688 0l-1 1a.49.49 0 0 0 0 .688.477.477 0 0 0 .313.125c.125 0 .25-.063.312-.125l1.063-1zM4.813 15.625l-1.063 1a.49.49 0 0 0 0 .688.477.477 0 0 0 .313.125c.125 0 .25-.063.312-.125l1-1a.49.49 0 0 0 0-.688c-.125-.188-.438-.188-.563 0zM55 15.188a.477.477 0 0 0 .313.124c.124 0 .25-.062.312-.124a.49.49 0 0 0 0-.688l-1-1a.49.49 0 0 0-.688 0 .49.49 0 0 0 0 .688l1.063 1zM57.938 16.75a.49.49 0 0 0-.688 0 .49.49 0 0 0 0 .688l1 1a.477.477 0 0 0 .313.125c.124 0 .25-.063.312-.125a.49.49 0 0 0 0-.688l-.938-1zM54.313 18.563c.124 0 .25-.063.312-.125l1-1a.49.49 0 0 0 0-.688.49.49 0 0 0-.688 0l-1 1a.49.49 0 0 0 0 .688c.126.125.25.125.376.125zM58.938 13.5a.49.49 0 0 0-.688 0l-1 1a.49.49 0 0 0 0 .688.477.477 0 0 0 .313.124c.124 0 .25-.062.312-.124l1-1c.25-.25.25-.5.063-.688zM49.125 68.313a.49.49 0 0 0-.688 0 .49.49 0 0 0 0 .687l.75.75a.477.477 0 0 0 .313.125c.125 0 .25-.063.313-.125a.49.49 0 0 0 0-.688l-.688-.75zM51.688 70.813a.49.49 0 0 0-.688 0 .49.49 0 0 0 0 .687l.75.75a.477.477 0 0 0 .313.125c.124 0 .25-.063.312-.125a.49.49 0 0 0 0-.688l-.688-.75zM49.25 70.813l-.75.75a.49.49 0 0 0 0 .687.477.477 0 0 0 .313.125c.124 0 .25-.063.312-.125l.75-.75a.49.49 0 0 0 0-.688c-.125-.187-.438-.187-.625 0zM51.75 68.313l-.75.75a.49.49 0 0 0 0 .687.477.477 0 0 0 .313.125c.124 0 .25-.063.312-.125l.75-.75a.49.49 0 0 0 0-.688c-.125-.187-.438-.187-.625 0zM6.625 74.875a.49.49 0 0 0-.688 0 .49.49 0 0 0 0 .688l.75.75a.477.477 0 0 0 .313.124c.125 0 .25-.062.313-.124a.49.49 0 0 0 0-.688l-.688-.75zM9.188 77.375a.49.49 0 0 0-.688 0 .49.49 0 0 0 0 .688l.75.75a.477.477 0 0 0 .313.124c.124 0 .25-.062.312-.124a.49.49 0 0 0 0-.688l-.688-.75zM6.75 77.375l-.75.75a.49.49 0 0 0 0 .688.477.477 0 0 0 .313.124c.125 0 .25-.062.312-.124l.75-.75a.49.49 0 0 0 0-.688c-.125-.188-.438-.188-.625 0zM9.25 74.875l-.75.75a.49.49 0 0 0 0 .688.477.477 0 0 0 .313.124c.124 0 .25-.062.312-.124l.75-.75a.49.49 0 0 0 0-.688c-.125-.188-.438-.188-.625 0zM72.25 56.25a2.374 2.374 0 1 0 0 4.75 2.374 2.374 0 0 0 2.375-2.375c.063-1.313-1.063-2.375-2.375-2.375zm0 3.813a1.414 1.414 0 0 1-1.438-1.438c0-.813.626-1.438 1.438-1.438.813 0 1.438.626 1.438 1.438 0 .813-.626 1.438-1.438 1.438zM2.938 64.813c-1.063 0-2 .874-2 2 0 1.062.875 2 2 2 1.124 0 2-.876 2-2 0-1.126-.875-2-2-2zm0 3a1.053 1.053 0 0 1-1.063-1.063c0-.563.438-1.063 1.063-1.063.624 0 1.062.438 1.062 1.063s-.438 1.063-1.063 1.063zM18.063 18.688a2.08 2.08 0 0 0 2.062-2.063 2.08 2.08 0 0 0-2.063-2.063A2.08 2.08 0 0 0 16 16.625a2.04 2.04 0 0 0 2.063 2.063zm0-3.188c.625 0 1.125.5 1.125 1.125s-.5 1.125-1.125 1.125a1.12 1.12 0 0 1-1.125-1.125c0-.625.5-1.125 1.125-1.125zM71.75 74h-7c-.25 0-.5.188-.5.5 0 .313.188.5.5.5h7c.25 0 .5-.188.5-.5 0-.313-.25-.5-.5-.5zM60.25 74c-.25 0-.5.188-.5.5 0 .313.188.5.5.5h2.25c.25 0 .5-.188.5-.5 0-.313-.188-.5-.5-.5h-2.25zM65.125 76.375H60.25c-.25 0-.5.188-.5.5 0 .313.188.5.5.5h4.875c.25 0 .5-.188.5-.5 0-.313-.25-.5-.5-.5zM68.75 76.375h-1.563c-.25 0-.5.188-.5.5 0 .313.188.5.5.5h1.563c.25 0 .5-.188.5-.5 0-.313-.25-.5-.5-.5zM19.438 72.25h-7c-.25 0-.5.188-.5.5 0 .25.187.5.5.5h7c.25 0 .5-.188.5-.5-.063-.313-.25-.5-.5-.5zM23.938 72.25h-2.25c-.25 0-.5.188-.5.5 0 .25.187.5.5.5h2.25c.25 0 .5-.188.5-.5 0-.313-.188-.5-.5-.5zM23.938 69.813h-4.875c-.25 0-.5.187-.5.5 0 .312.187.5.5.5h4.875c.25 0 .5-.188.5-.5 0-.313-.188-.5-.5-.5zM17 70.75c.25 0 .5-.188.5-.5 0-.313-.188-.5-.5-.5h-1.563c-.25 0-.5.188-.5.5 0 .313.188.5.5.5H17zM56.75 6.938h7c.25 0 .5-.188.5-.5 0-.25-.188-.5-.5-.5h-7c-.25 0-.5.187-.5.5 0 .25.25.5.5.5zM66 6.938h2.25c.25 0 .5-.188.5-.5 0-.25-.188-.5-.5-.5H66c-.25 0-.5.187-.5.5 0 .25.25.5.5.5zM68.25 8.375h-4.875c-.25 0-.5.188-.5.5 0 .25.188.5.5.5h4.875c.25 0 .5-.188.5-.5 0-.313-.25-.5-.5-.5zM59.75 8.375c-.25 0-.5.188-.5.5 0 .25.188.5.5.5h1.563c.25 0 .5-.188.5-.5 0-.25-.188-.5-.5-.5H59.75z"/>
        <path d="M46 75.188h-2.625l-2.125-9.75h23.375c2.063 0 3.688-1.688 3.688-3.688v-35c0-2.063-1.688-3.688-3.688-3.688h-12a10.34 10.34 0 0 0-2-1.125c-3.938-1.812-5.938-6.5-6.688-8.437-.562-3.25-1.75-6.438-3.5-9.438 0-.062-.062-.125-.062-.125-.438-.812-1-1.687-1.563-2.5L38.25.625c-.188-.25-.625-.25-.75 0l-.563.813A35.597 35.597 0 0 0 35.313 4v.063c-1.063 1.812-1.876 3.75-2.5 5.687-.438 1.25-.75 2.5-.938 3.75-.688 1.813-2.75 6.5-6.688 8.375-.687.313-1.375.75-2 1.125h-12C9.126 23 7.5 24.688 7.5 26.688v35c0 2.062 1.688 3.687 3.688 3.687h23.374L32.5 75.188h-2.625c-1.25 0-2.25 1-2.25 2.25s1 2.25 2.25 2.25H46c1.25 0 2.25-1 2.25-2.25s-1-2.25-2.25-2.25zm4.25-52.5c.688.312 1.375.75 2 1.125 3.75 2.625 4.75 6.375 5 7.75H44.187v-5.875c0-.375 0-.688-.062-1.063v-.063c-.063-.312-.125-.687-.188-1V23.5c.313-1.688.5-3.438.5-5.188 0-.562 0-1.187-.062-1.75 1.188 2.25 3.063 4.813 5.875 6.125zm-7.625 12.25h-1.438c-.374 0-.624-.313-.624-.688v-8.5c0-.688.124-1.438.312-2.125 0-.125.063-.25.125-.313.25-.687.563-1.375 1-2.062.5.813.875 1.563 1.063 2.375v.063c.187.687.25 1.312.25 2.062v8.5c-.063.375-.313.688-.688.688zm-9.375 0c-.375 0-.625-.313-.625-.688v-8.5c0-.688.063-1.375.25-2 0-.063 0-.063.063-.125 0-.125.062-.25.124-.313.25-.687.563-1.375 1-2.062.5.75.876 1.563 1.063 2.375.188.688.313 1.438.313 2.125v8.5c0 .375-.313.688-.626.688H33.25zm3-10v-.188c0-.25-.063-.5-.125-.813h3.688c-.063.25-.063.5-.126.75v.188c0 .25-.062.5-.062.813v5.875H36.25v-6.625zm0 9.312v-1.688h3.313v1.688c0 .75.437 1.313 1.124 1.563-.062 1.124-.437 4.5-2.75 6.874-2.374-2.374-2.687-5.812-2.75-6.874.626-.25 1.063-.813 1.063-1.563zm1.5-32.375l.188-.25.187.25c.438.625.75 1.188 1.125 1.813h-2.625c.375-.688.75-1.25 1.125-1.813zm-4 8.063a25.143 25.143 0 0 1 2.375-5.313h3.688c1.624 2.938 2.75 5.938 3.312 9.063.25 1.5.438 3.124.438 4.687 0 1.125-.063 2.25-.25 3.375-.25-.438-.5-.938-.813-1.375l-.188-.25c-.062-.125-.25-.188-.374-.188-.126 0-.313.063-.376.188l-.187.25c-.563.813-1 1.688-1.313 2.625v.063h-4.187a11.874 11.874 0 0 0-1.313-2.688l-.187-.25c-.063-.125-.25-.188-.375-.188s-.313.063-.375.188l-.188.25c-.312.438-.562.938-.812 1.375-.125-1.125-.25-2.25-.25-3.375 0-2.875.438-5.688 1.375-8.438zm-8.125 12.75c2.813-1.313 4.688-3.938 5.875-6.125-.063.562-.063 1.187-.063 1.75 0 1.75.188 3.5.5 5.187-.187.688-.25 1.438-.25 2.188v5.875H18.626c.25-1.375 1.25-5.125 5-7.75.625-.375 1.25-.75 2-1.125zm-14.438 1.25H22c-.125.125-.25.187-.313.312-.125.063-.187.188-.312.25l-.438.438c-.062.062-.125.187-.25.25-.187.187-.312.375-.437.562l-.125.125c-.188.25-.375.5-.5.688-.063.062-.063.125-.125.187-.125.188-.188.313-.313.5a.474.474 0 0 0-.125.25c-.062.125-.125.313-.25.438-.062.125-.062.187-.125.25l-.187.375c-.063.062-.063.187-.125.25-.063.125-.125.25-.125.375-.063.062-.063.187-.063.25-.062.125-.062.25-.125.312 0 .063-.062.188-.062.25 0 .125-.063.188-.063.313 0 .062-.062.125-.062.187 0 .063-.063.188-.063.25 0 .063 0 .125-.062.188 0 .062-.063.187-.063.25v.625c0 .125.063.25.125.375.063.124.188.124.375.124H31.75V34c0 .688.438 1.313 1.063 1.5-.563 2.688-2 4.875-3.063 6.063-.125-.626-.438-1.188-.938-1.563-.5-.375-1.125-.5-1.75-.375H27c-.188-1.5-1.438-2.625-2.938-2.625-.25 0-.5.063-.75.125-.062-.75-.5-1.5-1.187-1.813-.5-.187-1-.187-1.5 0-.25.126-.438.25-.625.438-.313-.5-.813-.813-1.375-.938-.563-.124-1.188 0-1.688.313-.562.375-.875.875-1 1.563-.062.25.126.5.376.562.25.063.5-.125.562-.375.063-.375.313-.75.625-.938a1.39 1.39 0 0 1 1-.187c.75.188 1.25.938 1.063 1.75-.063.25.125.5.375.563H20c.25 0 .438-.126.438-.376.062-.25.062-.562 0-.812.125-.313.312-.5.562-.625.25-.125.5-.125.75 0 .563.25.813.875.563 1.438-.25.187-.5.437-.688.687a.485.485 0 0 0 .125.625c.188.125.5.063.625-.125.375-.563 1-.875 1.625-.875 1.125 0 2 .938 2 2.125l-.563.563a.485.485 0 0 0 .125.624c.188.126.5.063.625-.124.188-.313.5-.563.875-.626.375-.062.688 0 1 .25.625.438.813 1.376.375 2.063-.125.188-.062.438.063.625a.477.477 0 0 0 .313.125c.125 0 .25-.063.312-.125.125-.125 3.563-3.25 4.438-7.813h.562c.063 1.313.5 5.188 3.375 7.813a.477.477 0 0 0 .313.125c.124 0 .25-.063.312-.125C41 40.875 41.438 37 41.5 35.687h.625c.875 4.626 4.313 7.688 4.438 7.813a.477.477 0 0 0 .312.125c.125 0 .25-.063.313-.125.187-.125.187-.438.062-.625-.438-.688-.25-1.563.375-2.063.313-.187.625-.312 1-.25.375.063.688.313.875.626.125.187.438.25.625.124a.485.485 0 0 0 .125-.624 1.226 1.226 0 0 0-.563-.563c0-1.188.938-2.125 2-2.125.626 0 1.25.313 1.626.875.124.188.437.25.624.125a.485.485 0 0 0 .126-.625c-.188-.25-.438-.5-.688-.688-.25-.562.063-1.25.563-1.437.25-.125.5-.125.75 0s.5.313.562.625c-.063.25-.063.563 0 .813s.25.374.438.374h.062c.25-.062.438-.312.375-.562-.125-.813.313-1.563 1.063-1.75.312-.063.687 0 1 .188.312.187.562.562.624.937.063.25.313.438.563.375.25-.063.438-.313.375-.563a2.63 2.63 0 0 0-1-1.562c-.5-.313-1.125-.438-1.688-.313-.562.126-1.062.5-1.374.938a2.245 2.245 0 0 0-.626-.438c-.5-.187-1-.187-1.5 0-.75.313-1.187 1.063-1.187 1.813-.25-.063-.5-.125-.75-.125-1.5 0-2.75 1.188-2.938 2.625h-.062c-.625-.125-1.188 0-1.75.375-.188.688-.5 1.25-.625 1.875-1.063-1.25-2.563-3.438-3.063-6.063.563-.25 1-.812 1-1.5v-1.687H57.75c.125 0 .25-.063.375-.125.063-.125.125-.25.125-.375v-.063-.625c0-.062 0-.125-.063-.25 0-.062 0-.125-.062-.187 0-.063-.063-.188-.063-.25 0-.063-.062-.125-.062-.25 0-.063-.063-.188-.063-.313 0-.062-.062-.187-.062-.25-.063-.125-.063-.187-.125-.312-.063-.063-.063-.188-.125-.25-.063-.125-.063-.188-.125-.313-.063-.125-.063-.187-.125-.312l-.188-.375c-.062-.125-.124-.188-.124-.313l-.188-.375c-.063-.125-.125-.187-.188-.312-.062-.125-.187-.25-.25-.438-.062-.125-.124-.187-.187-.312-.125-.25-.313-.438-.5-.688-.063-.062-.125-.125-.188-.25-.124-.187-.25-.312-.374-.5-.063-.125-.188-.187-.25-.312-.126-.125-.25-.25-.376-.438l-.312-.312-.313-.313H64.75c1.5 0 2.75 1.25 2.75 2.75v30.375H8.437V26.75c0-1.563 1.25-2.813 2.75-2.813zm-2.75 37.75v-3.626h59v3.626c0 1.5-1.25 2.75-2.75 2.75h-53.5c-1.5.062-2.75-1.188-2.75-2.75zm27.126 3.75h4.75l2.124 9.75h-9l2.126-9.75zM46 78.75H29.875c-.75 0-1.313-.563-1.313-1.313s.563-1.312 1.313-1.312H46c.75 0 1.313.563 1.313 1.313S46.75 78.75 46 78.75z"/>
        <path d="M43.688 59.938h-11.5c-.75 0-1.376.624-1.376 1.374 0 .75.625 1.376 1.375 1.376h11.5c.75 0 1.376-.626 1.376-1.376 0-.812-.626-1.374-1.376-1.374zm0 1.812h-11.5a.427.427 0 0 1-.438-.438c0-.25.188-.437.438-.437h11.5c.25 0 .437.188.437.438s-.188.437-.438.437zM54.313 28.813c.062.125.25.25.374.25.063 0 .188 0 .25-.063.25-.125.313-.438.126-.625-.438-.75-1-1.438-1.626-2.063a.49.49 0 0 0-.687 0 .49.49 0 0 0 0 .688c.625.438 1.125 1.125 1.563 1.813zM48.625 24l.375.188c.75.375 1.5.812 2.188 1.25.062.062.187.062.25.062.124 0 .312-.063.374-.188a.509.509 0 0 0-.124-.687c-.688-.5-1.5-1-2.313-1.375L49 23.062c-.25-.125-.5-.062-.625.188-.063.313.063.625.25.75zM46.688 22.625a.477.477 0 0 0 .312.125c.125 0 .25-.063.375-.188.188-.187.125-.5-.063-.687a15.135 15.135 0 0 1-1.687-1.75c-.188-.188-.438-.25-.688-.063-.187.188-.25.438-.062.688.625.75 1.188 1.375 1.813 1.875zM29 22.75c.125 0 .188-.063.313-.125a17.22 17.22 0 0 0 1.812-1.875c.188-.188.125-.5-.063-.688-.187-.187-.5-.125-.687.063a8.989 8.989 0 0 1-1.688 1.75c-.187.188-.25.438-.062.688.125.125.25.187.375.187zM24.563 25.563c.125 0 .187 0 .25-.063.687-.5 1.375-.938 2.187-1.25l.375-.188c.25-.125.313-.437.188-.625-.125-.25-.438-.312-.625-.187l-.375.188c-.813.375-1.625.875-2.313 1.375-.188.125-.25.437-.125.687.125 0 .25.063.438.063zM22.5 26.25c-.625.625-1.125 1.313-1.625 2.063-.125.25-.063.5.125.625.063.062.188.062.25.062.125 0 .313-.063.375-.25.438-.688.938-1.313 1.5-1.875a.49.49 0 0 0 0-.688c-.125-.125-.438-.125-.625.063zM41.438 16.625c0 .25.187.5.437.5s.5-.188.5-.438c0-4.125-2.188-9-2.25-9.187-.125-.25-.375-.313-.625-.25-.25.125-.313.375-.25.625.063 0 2.188 4.813 2.188 8.75zM34.125 17.125c.25 0 .5-.188.5-.5 0-3.938 2.125-8.75 2.188-8.813.124-.25 0-.5-.25-.625s-.5 0-.626.25c-.062.188-2.312 5.063-2.25 9.188-.062.25.188.5.438.5zM55.313 41.375c.062 0 .124.063.187.063a.526.526 0 0 0 .438-.25c0-.063.687-1.5 2.687-.938.25.063.5-.063.563-.313.062-.25-.063-.5-.313-.562-2.188-.625-3.438.688-3.813 1.5-.124.125 0 .375.25.5zM50.063 43.875c.124 0 .312-.063.374-.188 0 0 .376-.5.813-.562.25 0 .5.063.688.25.187.188.5.125.687-.063.188-.187.125-.5-.063-.687-.562-.5-1.062-.563-1.437-.5-.875.125-1.438.813-1.5.938a.509.509 0 0 0 .125.687c.063.125.188.125.313.125zM54.313 44.188c.062.062.187.062.25.062.187 0 .312-.063.374-.25 0-.063.563-.938 1.438-.813.25 0 .5-.187.5-.437s-.188-.5-.438-.5c-1.5-.125-2.312 1.25-2.312 1.313-.125.187 0 .5.188.624zM17.25 40.188c1.938-.5 2.625.812 2.688.937.062.188.25.25.437.25.063 0 .125 0 .188-.063.25-.124.312-.374.25-.624-.375-.75-1.625-2.063-3.813-1.5-.25.062-.375.312-.313.562.063.375.313.5.563.438zM23.938 43.438c.25-.188.5-.313.687-.25.375.062.75.374.875.562.063.125.25.188.375.188s.188 0 .25-.063c.188-.125.25-.438.125-.688-.063-.062-.625-.812-1.5-.937-.375-.063-.875 0-1.438.5-.187.188-.25.438-.062.688.188.124.438.187.688 0zM18.938 42.75c0 .25.25.438.5.438.875-.063 1.437.812 1.437.812.063.125.25.25.375.25.063 0 .188 0 .25-.063.25-.124.313-.437.188-.624-.063-.063-.875-1.438-2.313-1.313-.25.063-.438.25-.438.5z"/>
    </g>
</svg>
