<?xml version="1.0" encoding="UTF-8"?>
<svg width="128px" height="107px" viewBox="0 0 128 107" version="1.1" xmlns="http://www.w3.org/2000/svg" xmlns:xlink="http://www.w3.org/1999/xlink">
    <!-- Generator: Sketch 43.1 (39012) - http://www.bohemiancoding.com/sketch -->
    <title>Group</title>
    <desc>Created with Sketch.</desc>
    <defs></defs>
    <g id="Landing-page" stroke="none" stroke-width="1" fill="none" fill-rule="evenodd">
        <g id="Desktop-HD" transform="translate(-764.000000, -1277.000000)" fill-rule="nonzero" fill="#041E42">
            <g id="Group" transform="translate(764.000000, 1277.000000)">
                <path d="M6.5,71.5 C6.1,71.5 5.7,71.8 5.7,72.3 L5.7,84 C5.7,84.4 6,84.8 6.5,84.8 C7,84.8 7.3,84.5 7.3,84 L7.3,72.3 C7.3,71.9 7,71.5 6.5,71.5 Z" id="Shape"></path>
                <path d="M6.5,87 C6.1,87 5.7,87.3 5.7,87.8 L5.7,91.6 C5.7,92 6,92.4 6.5,92.4 C7,92.4 7.3,92.1 7.3,91.6 L7.3,87.8 C7.3,87.4 7,87 6.5,87 Z" id="Shape"></path>
                <path d="M123.5,52.5 C123.1,52.5 122.7,52.8 122.7,53.3 L122.7,65 C122.7,65.4 123,65.8 123.5,65.8 C123.9,65.8 124.3,65.5 124.3,65 L124.3,53.3 C124.3,52.9 123.9,52.5 123.5,52.5 Z" id="Shape"></path>
                <path d="M123.5,68.1 C123.1,68.1 122.7,68.4 122.7,68.9 L122.7,72.7 C122.7,73.1 123,73.5 123.5,73.5 C123.9,73.5 124.3,73.2 124.3,72.7 L124.3,68.9 C124.3,68.4 123.9,68.1 123.5,68.1 Z" id="Shape"></path>
                <path d="M49.7,6.4 C49.8,6.5 50,6.6 50.2,6.6 C50.4,6.6 50.6,6.5 50.7,6.4 C51,6.1 51,5.6 50.7,5.3 L49,3.5 C48.7,3.2 48.2,3.2 47.9,3.5 C47.6,3.8 47.6,4.3 47.9,4.6 L49.7,6.4 Z" id="Shape"></path>
                <path d="M55.7,12.3 C55.8,12.4 56,12.5 56.2,12.5 C56.4,12.5 56.6,12.4 56.7,12.3 C57,12 57,11.5 56.7,11.2 L54.9,9.4 C54.6,9.1 54.1,9.1 53.8,9.4 C53.5,9.7 53.5,10.2 53.8,10.5 L55.7,12.3 Z" id="Shape"></path>
                <path d="M48.4,12.6 C48.6,12.6 48.8,12.5 48.9,12.4 L50.7,10.6 C51,10.3 51,9.8 50.7,9.5 C50.4,9.2 49.9,9.2 49.6,9.5 L47.8,11.3 C47.5,11.6 47.5,12.1 47.8,12.4 C48,12.5 48.2,12.6 48.4,12.6 Z" id="Shape"></path>
                <path d="M54.4,6.6 C54.6,6.6 54.8,6.5 54.9,6.4 L56.7,4.6 C57,4.3 57,3.8 56.7,3.5 C56.4,3.2 55.9,3.2 55.6,3.5 L53.8,5.3 C53.5,5.6 53.5,6.1 53.8,6.4 C54,6.5 54.2,6.6 54.4,6.6 Z" id="Shape"></path>
                <path d="M56.3,63.5 C56.4,63.6 56.6,63.7 56.8,63.7 C57,63.7 57.2,63.6 57.3,63.5 C57.6,63.2 57.6,62.7 57.3,62.4 L55.5,60.6 C55.2,60.3 54.7,60.3 54.4,60.6 C54.1,60.9 54.1,61.4 54.4,61.7 L56.3,63.5 Z" id="Shape"></path>
                <path d="M61.5,66.5 C61.2,66.2 60.7,66.2 60.4,66.5 C60.1,66.8 60.1,67.3 60.4,67.6 L62.2,69.4 C62.3,69.5 62.5,69.6 62.7,69.6 C62.9,69.6 63.1,69.5 63.2,69.4 C63.5,69.1 63.5,68.6 63.2,68.3 L61.5,66.5 Z" id="Shape"></path>
                <path d="M54.4,69.4 C54.5,69.5 54.7,69.6 54.9,69.6 C55.1,69.6 55.3,69.5 55.4,69.4 L57.2,67.6 C57.5,67.3 57.5,66.8 57.2,66.5 C56.9,66.2 56.4,66.2 56.1,66.5 L54.3,68.3 C54.1,68.7 54.1,69.1 54.4,69.4 Z" id="Shape"></path>
                <path d="M62.2,60.6 L60.4,62.4 C60.1,62.7 60.1,63.2 60.4,63.5 C60.5,63.6 60.7,63.7 60.9,63.7 C61.1,63.7 61.3,63.6 61.4,63.5 L63.2,61.7 C63.5,61.4 63.5,60.9 63.2,60.6 C63,60.3 62.5,60.3 62.2,60.6 Z" id="Shape"></path>
                <path d="M27.1,7.7 C29.1,7.7 30.8,6.1 30.8,4 C30.8,1.9 29.2,0.3 27.1,0.3 C25.1,0.3 23.4,1.9 23.4,4 C23.4,6.1 25.1,7.7 27.1,7.7 Z M27.1,1.8 C28.3,1.8 29.3,2.8 29.3,4 C29.3,5.2 28.3,6.2 27.1,6.2 C25.9,6.2 24.9,5.2 24.9,4 C24.9,2.8 26,1.8 27.1,1.8 Z" id="Shape"></path>
                <path d="M85,77.4 C83,77.4 81.3,79 81.3,81.1 C81.3,83.1 82.9,84.8 85,84.8 C87,84.8 88.7,83.2 88.7,81.1 C88.7,79 87,77.4 85,77.4 Z M85,83.2 C83.8,83.2 82.8,82.2 82.8,81 C82.8,79.8 83.8,78.8 85,78.8 C86.2,78.8 87.2,79.8 87.2,81 C87.2,82.2 86.2,83.2 85,83.2 Z" id="Shape"></path>
                <path d="M102.6,8.7 L115.2,8.7 C115.6,8.7 116,8.4 116,7.9 C116,7.5 115.7,7.1 115.2,7.1 L102.6,7.1 C102.2,7.1 101.8,7.4 101.8,7.9 C101.9,8.3 102.2,8.7 102.6,8.7 Z" id="Shape"></path>
                <path d="M119.4,8.7 L123.5,8.7 C123.9,8.7 124.3,8.4 124.3,7.9 C124.3,7.5 124,7.1 123.5,7.1 L119.4,7.1 C119,7.1 118.6,7.4 118.6,7.9 C118.7,8.3 119,8.7 119.4,8.7 Z" id="Shape"></path>
                <path d="M123.5,11.5 L114.7,11.5 C114.3,11.5 113.9,11.8 113.9,12.3 C113.9,12.7 114.2,13.1 114.7,13.1 L123.5,13.1 C123.9,13.1 124.3,12.8 124.3,12.3 C124.3,11.8 123.9,11.5 123.5,11.5 Z" id="Shape"></path>
                <path d="M108.1,11.5 C107.7,11.5 107.3,11.8 107.3,12.3 C107.3,12.7 107.6,13.1 108.1,13.1 L111,13.1 C111.4,13.1 111.8,12.8 111.8,12.3 C111.8,11.9 111.5,11.5 111,11.5 L108.1,11.5 Z" id="Shape"></path>
                <path d="M58.9,95.2 L46.2,95.2 C45.8,95.2 45.4,95.5 45.4,96 C45.4,96.4 45.7,96.8 46.2,96.8 L58.8,96.8 C59.2,96.8 59.6,96.5 59.6,96 C59.6,95.5 59.3,95.2 58.9,95.2 Z" id="Shape"></path>
                <path d="M42.1,95.2 L38,95.2 C37.6,95.2 37.2,95.5 37.2,96 C37.2,96.4 37.5,96.8 38,96.8 L42.1,96.8 C42.5,96.8 42.9,96.5 42.9,96 C42.8,95.5 42.5,95.2 42.1,95.2 Z" id="Shape"></path>
                <path d="M38,92.3 L46.8,92.3 C47.2,92.3 47.6,92 47.6,91.5 C47.6,91 47.3,90.7 46.8,90.7 L38,90.7 C37.6,90.7 37.2,91 37.2,91.5 C37.2,92 37.6,92.3 38,92.3 Z" id="Shape"></path>
                <path d="M53.4,92.3 C53.8,92.3 54.2,92 54.2,91.5 C54.2,91 53.9,90.7 53.4,90.7 L50.5,90.7 C50.1,90.7 49.7,91 49.7,91.5 C49.7,92 50,92.3 50.5,92.3 L53.4,92.3 Z" id="Shape"></path>
                <path d="M126.4,34.4 C124.3,32.9 122.1,31.6 119.9,30.3 L119.9,30.3 C112.1,25.9 96.6,21.5 95.9,21.4 C95.3,21.2 94.5,20.9 93.6,20.4 L93.6,20.4 C91.1,19.2 87.8,17 86.2,13.7 C85.8,12.8 85.3,12 84.8,11.2 C80.7,5.4 74.6,4.8 74.3,4.8 C74.1,4.8 73.9,4.9 73.7,5 C73.5,5.1 73.5,5.3 73.5,5.6 L73.5,20.4 L36.2,20.4 L36.2,17.1 C36.2,16.8 36,16.5 35.6,16.4 L1.4,7.9 C1.2,7.8 0.9,7.9 0.8,8 C0.6,8.1 0.5,8.4 0.5,8.6 L0.5,19.9 C0.5,20.3 0.8,20.7 1.3,20.7 L13.3,20.7 L13.3,24.8 C13.3,25.2 13.6,25.6 14.1,25.6 L19,25.6 L19,31.3 L6,31.3 C4.6,31.3 3.2,31.9 2.2,32.9 C1.2,33.9 0.7,35.2 0.7,36.7 C0.7,39.6 3.1,42 6,42 L19,42 L19,47.5 L14,47.5 C13.6,47.5 13.2,47.8 13.2,48.3 L13.2,52.4 L1.2,52.4 C0.8,52.4 0.4,52.7 0.4,53.2 L0.4,64.5 C0.4,64.7 0.5,65 0.7,65.1 C0.8,65.2 1,65.3 1.2,65.3 L1.4,65.3 L11.3,62.9 L15.2,69.5 C15.6,70.2 15.8,71 15.8,71.9 L15.8,83.1 L12.6,105.2 C12.6,105.4 12.6,105.6 12.8,105.8 C12.9,106 13.2,106.1 13.4,106.1 L17.2,106.1 C17.5,106.1 17.8,105.9 17.9,105.6 L22.1,90.8 L26.3,105.6 C26.4,105.9 26.7,106.1 27,106.1 L30.8,106.1 C31,106.1 31.2,106 31.4,105.8 C31.5,105.6 31.6,105.4 31.6,105.2 L28.4,83.1 L28.4,71.5 C28.4,70.7 28.6,69.9 29,69.1 L33.3,61.8 C33.8,61 33.9,60.1 33.8,59.2 L33.5,57 L35.6,56.5 C35.9,56.4 36.2,56.1 36.2,55.8 L36.2,52.5 L73.5,52.5 L73.5,67.3 C73.5,67.5 73.6,67.7 73.7,67.9 C73.8,68 74,68.1 74.2,68.1 L74.3,68.1 C74.6,68.1 80.7,67.5 84.8,61.7 C85.3,60.9 85.8,60.1 86.3,59.2 C87.9,55.9 91.2,53.8 93.7,52.5 L93.7,52.5 C94.4,52.2 95,51.9 95.4,51.7 L94.9,55.2 C94.8,56.1 94.9,57 95.4,57.8 L99.7,65.1 C100.1,65.8 100.3,66.6 100.3,67.5 L100.3,78.7 L97.1,100.8 C97.1,101 97.1,101.2 97.3,101.4 C97.4,101.6 97.7,101.7 97.9,101.7 L101.7,101.7 C102,101.7 102.3,101.5 102.4,101.2 L106.6,86.4 L110.8,101.2 C110.9,101.5 111.2,101.7 111.5,101.7 L115.3,101.7 C115.5,101.7 115.7,101.6 115.9,101.4 C116,101.2 116.1,101 116.1,100.8 L112.9,78.7 L112.9,67.4 C112.9,66.6 113.1,65.8 113.5,65 L117.8,57.6 C118.2,56.9 118.4,56.1 118.3,55.3 L117.3,43.8 C118.2,43.4 119,42.9 119.8,42.5 C121.9,41.3 124.1,39.9 126.3,38.5 C127,38 127.4,37.3 127.4,36.5 C127.5,35.6 127.1,34.9 126.4,34.4 Z M75,6.5 C76.7,6.9 80.7,8.1 83.6,12.2 C84.1,12.9 84.5,13.6 84.9,14.5 C86.1,17.1 88.3,19.1 90.5,20.5 L75,20.5 L75,6.5 Z M50.4,21.9 L50.4,51 L42.8,51 L42.8,21.9 L50.4,21.9 Z M14,19.2 L2,19.2 L2,9.7 L34.7,17.8 L34.7,24 L19.7,24 L19.7,24 L19.7,24 L14.9,24 L14.9,19.9 C14.7,19.5 14.4,19.2 14,19.2 Z M2,36.6 C2,35.6 2.4,34.6 3.1,33.9 C3.8,33.2 4.8,32.8 5.8,32.8 L34.7,32.8 L34.7,40.4 L5.8,40.4 C3.7,40.4 2,38.7 2,36.6 Z M19.4,60.5 C20.2,61.3 21.2,61.8 22.2,61.8 C23.8,61.8 25.3,60.7 26,58.9 L29.2,58.1 C29.2,58.8 29,59.4 28.6,59.9 L24.7,64.3 L20,64.3 L17.1,61.1 L19.4,60.5 Z M24.7,58 C24.3,59.4 23.3,60.3 22.2,60.3 C21.5,60.3 20.8,59.9 20.3,59.2 C19.8,58.5 19.5,57.6 19.5,56.6 C19.5,54.6 20.7,52.9 22.2,52.9 C23.7,52.9 24.9,54.6 24.9,56.6 C24.9,57.1 24.8,57.6 24.7,58 Z M32.1,61 L27.8,68.3 C27.3,69.3 27,70.3 27,71.4 L27,82.7 L27,82.8 L30.1,104.1 L27.7,104.1 L22.9,87.3 C22.8,87 22.5,86.8 22.2,86.8 C21.9,86.8 21.6,87 21.5,87.3 L16.7,104.1 L14.3,104.1 L17.4,82.8 L17.4,82.7 L17.4,71.5 C17.4,70.4 17.1,69.3 16.6,68.4 L13,62.2 L15.4,61.6 L19,65.7 C19.1,65.9 19.3,66 19.6,66 L25,66 C25.2,66 25.4,65.9 25.6,65.7 L29.8,61 C30.5,60.2 30.9,59.1 30.8,58 L30.5,55 L32,55.4 L32.7,59.6 C32.5,60 32.4,60.6 32.1,61 Z M34.7,55.2 L33.4,55.5 L33.3,54.6 C33.3,54.3 33,54.1 32.8,54 L29.8,53.2 C29.6,53.1 29.3,53.2 29.1,53.4 C28.9,53.6 28.8,53.8 28.8,54.1 L29.1,56.7 L26.5,57.3 L26.5,56.6 C26.5,53.7 24.6,51.4 22.3,51.4 C20,51.4 18.1,53.7 18.1,56.6 C18.1,56.9 18.1,57.2 18.2,57.5 L18.2,57.7 C18.2,57.9 18.3,58.2 18.4,58.4 L18.4,58.5 C18.5,58.7 18.6,59 18.7,59.2 L2,63.2 L2,53.7 L14,53.7 C14.4,53.7 14.8,53.4 14.8,52.9 L14.8,48.8 L34.7,48.8 L34.7,55.2 Z M35.4,47.3 L20.3,47.3 L20.3,41.8 L35.4,41.8 C35.8,41.8 36.2,41.5 36.2,41 L36.2,32 C36.2,31.6 35.9,31.2 35.4,31.2 L20.3,31.2 L20.3,25.5 L35.4,25.5 C35.8,25.5 36.2,25.2 36.2,24.7 L36.2,21.8 L41.3,21.8 L41.3,51 L36.2,51 L36.2,48.1 C36.2,47.7 35.8,47.3 35.4,47.3 Z M84.9,58.5 C84.5,59.3 84.1,60.1 83.6,60.8 C80.8,64.9 76.7,66.1 75,66.5 L75,52.5 L90.5,52.5 C88.3,53.9 86.1,55.8 84.9,58.5 Z M116.6,56.9 L112.3,64.3 C111.7,65.2 111.5,66.3 111.5,67.4 L111.5,78.7 L111.5,78.8 L114.6,100.1 L112.2,100.1 L107.4,83.3 C107.3,83 107,82.8 106.7,82.8 C106.4,82.8 106.1,83 106,83.3 L101.2,100.1 L98.8,100.1 L101.9,78.8 L101.9,78.7 L101.9,67.4 C101.9,66.3 101.6,65.2 101.1,64.3 L96.7,57 C96.4,56.5 96.3,55.9 96.4,55.4 L97.1,51.2 L98.6,50.8 L98.3,53.8 C98.2,54.9 98.5,56 99.3,56.8 L103.5,61.5 C103.6,61.7 103.8,61.8 104.1,61.8 L109.5,61.8 C109.7,61.8 109.9,61.7 110.1,61.5 L114.3,56.8 C115,56 115.4,54.9 115.3,53.8 L114.5,45.4 L116.2,44.7 L117.1,55.4 C117,55.9 116.9,56.4 116.6,56.9 Z M113.5,54 C113.6,54.7 113.3,55.3 112.9,55.8 L108.9,60.2 L104.2,60.2 L100.3,55.8 C99.8,55.3 99.6,54.6 99.7,53.9 L100.1,50.2 C101.1,49.9 102.2,49.5 103.4,49.2 C102.8,50.1 102.4,51.2 102.4,52.5 C102.4,55.4 104.3,57.7 106.6,57.7 C108.9,57.7 110.8,55.4 110.8,52.5 C110.8,50.3 109.6,48.3 108,47.6 C109.6,47 111.2,46.4 112.8,45.8 L113.5,54 Z M106.6,48.8 C108.1,48.8 109.3,50.5 109.3,52.5 C109.3,54.5 108.1,56.2 106.6,56.2 C105.1,56.2 103.9,54.5 103.9,52.5 C103.9,50.5 105.1,48.8 106.6,48.8 Z M125.6,37.2 C123.5,38.7 121.3,40 119.2,41.2 C111.6,45.5 95.7,50 95.5,50 C94.9,50.2 94.1,50.5 93.3,50.9 L51.9,50.9 L51.9,21.9 L93.2,21.9 C94.1,22.3 94.9,22.6 95.5,22.9 C95.7,22.9 111.6,27.4 119.2,31.7 L119.2,31.7 C121.3,32.9 123.5,34.2 125.6,35.7 C125.9,35.9 126,36.2 126,36.5 C126,36.8 125.8,37.1 125.6,37.2 Z" id="Shape"></path>
                <path d="M66.7,31.9 C64.2,31.9 62.2,33.9 62.2,36.4 C62.2,38.9 64.2,40.9 66.7,40.9 C69.2,40.9 71.2,38.9 71.2,36.4 C71.2,33.9 69.2,31.9 66.7,31.9 Z M66.7,39.8 C64.8,39.8 63.3,38.3 63.3,36.4 C63.3,34.5 64.8,33 66.7,33 C68.6,33 70.1,34.5 70.1,36.4 C70.1,38.3 68.6,39.8 66.7,39.8 Z" id="Shape"></path>
                <path d="M81.1,31.9 C78.6,31.9 76.6,33.9 76.6,36.4 C76.6,38.9 78.6,40.9 81.1,40.9 C83.6,40.9 85.6,38.9 85.6,36.4 C85.6,33.9 83.6,31.9 81.1,31.9 Z M81.1,39.8 C79.2,39.8 77.7,38.3 77.7,36.4 C77.7,34.5 79.2,33 81.1,33 C83,33 84.5,34.5 84.5,36.4 C84.5,38.3 82.9,39.8 81.1,39.8 Z" id="Shape"></path>
                <path d="M95.5,31.9 C93,31.9 91,33.9 91,36.4 C91,38.9 93,40.9 95.5,40.9 C98,40.9 100,38.9 100,36.4 C100,33.9 97.9,31.9 95.5,31.9 Z M95.5,39.8 C93.6,39.8 92.1,38.3 92.1,36.4 C92.1,34.5 93.6,33 95.5,33 C97.4,33 98.9,34.5 98.9,36.4 C98.8,38.3 97.3,39.8 95.5,39.8 Z" id="Shape"></path>
            </g>
        </g>
    </g>
</svg>