<svg xmlns="http://www.w3.org/2000/svg" width="124" height="128" viewBox="0 0 124 128">
    <g fill="#EF7B45" fill-rule="nonzero">
        <path d="M7.6 20.1c.4 0 .8-.3.8-.8v-12c0-.4-.3-.8-.8-.8s-.8.4-.8.8v12.1c0 .3.3.7.8.7zM7.6 27.9c.4 0 .8-.3.8-.8v-3.9c0-.4-.3-.8-.8-.8s-.8.3-.8.8v3.9c0 .5.3.8.8.8zM109.6 94.8c-.4 0-.8.3-.8.8v12.1c0 .4.3.8.8.8s.8-.3.8-.8V95.6c0-.4-.3-.8-.8-.8zM109.6 110.8c-.4 0-.8.3-.8.8v3.9c0 .4.3.8.8.8s.8-.3.8-.8v-3.9c0-.4-.3-.8-.8-.8zM20.4 3.2c.1.1.3.2.5.2s.4-.1.5-.2c.3-.3.3-.8 0-1.1L20 .7c-.3-.3-.8-.3-1.1 0-.3.3-.3.8 0 1.1l1.5 1.4zM25.1 8c.1.1.3.2.5.2s.4-.1.5-.2c.3-.3.3-.8 0-1.1l-1.5-1.5c-.3-.3-.8-.3-1.1 0-.3.3-.3.8 0 1.1L25.1 8zM19.5 8.2c.2 0 .4-.1.5-.2l1.5-1.5c.3-.3.3-.8 0-1.1-.3-.3-.8-.3-1.1 0L19 6.9c-.3.3-.3.8 0 1.1.1.1.3.2.5.2zM24.2 3.5c.2 0 .4-.1.5-.2l1.5-1.5c.3-.3.3-.8 0-1.1-.3-.3-.8-.3-1.1 0l-1.5 1.5c-.3.3-.3.8 0 1.1.2.1.4.2.6.2zM117 83.2c-.3-.3-.8-.3-1.1 0-.3.3-.3.8 0 1.1l1.5 1.5c.1.1.3.2.5.2s.4-.1.5-.2c.3-.3.3-.8 0-1.1l-1.4-1.5zM121.7 87.9c-.3-.3-.8-.3-1.1 0-.3.3-.3.8 0 1.1l1.5 1.5c.1.1.3.2.5.2s.4-.1.5-.2c.3-.3.3-.8 0-1.1l-1.4-1.5zM117.4 87.9l-1.5 1.5c-.3.3-.3.8 0 1.1.1.1.3.2.5.2s.4-.1.5-.2l1.5-1.5c.3-.3.3-.8 0-1.1-.3-.2-.7-.2-1 0zM121.2 86c.2 0 .4-.1.5-.2l1.5-1.5c.3-.3.3-.8 0-1.1-.3-.3-.8-.3-1.1 0l-1.5 1.5c-.3.3-.3.8 0 1.1.2.1.4.2.6.2zM1.9 96.6c-.3-.3-.8-.3-1.1 0-.3.3-.3.8 0 1.1l1.5 1.5c.1.1.3.2.5.2s.4-.1.5-.2c.3-.3.3-.8 0-1.1l-1.4-1.5zM7.6 104.1c.2 0 .4-.1.5-.2.3-.3.3-.8 0-1.1l-1.5-1.5c-.3-.3-.8-.3-1.1 0-.3.3-.3.8 0 1.1l1.5 1.5c.2.1.4.2.6.2zM2.3 101.3l-1.5 1.5c-.3.3-.3.8 0 1.1.1.1.3.2.5.2s.4-.1.5-.2l1.5-1.5c.3-.3.3-.8 0-1.1-.2-.3-.7-.3-1 0zM6.1 99.4c.2 0 .4-.1.5-.2l1.5-1.5c.3-.3.3-.8 0-1.1-.3-.3-.8-.3-1.1 0l-1.5 1.5c-.3.3-.3.8 0 1.1.2.1.4.2.6.2zM117.2 25.2c0-2-1.6-3.6-3.6-3.6s-3.6 1.6-3.6 3.6 1.6 3.6 3.6 3.6 3.6-1.6 3.6-3.6zm-3.6 2.1c-1.1 0-2.1-.9-2.1-2.1 0-1.1.9-2.1 2.1-2.1 1.1 0 2.1.9 2.1 2.1 0 1.2-.9 2.1-2.1 2.1zM90.2 120.4c-2 0-3.6 1.6-3.6 3.6s1.6 3.6 3.6 3.6 3.6-1.6 3.6-3.6-1.6-3.6-3.6-3.6zm0 5.6c-1.1 0-2.1-.9-2.1-2.1 0-1.1.9-2.1 2.1-2.1 1.1 0 2.1.9 2.1 2.1 0 1.2-.9 2.1-2.1 2.1zM43.6 71.8c2 0 3.6-1.6 3.6-3.6s-1.6-3.6-3.6-3.6-3.6 1.6-3.6 3.6 1.6 3.6 3.6 3.6zm0-5.6c1.1 0 2.1.9 2.1 2.1 0 1.1-.9 2.1-2.1 2.1-1.1 0-2.1-.9-2.1-2.1 0-1.2.9-2.1 2.1-2.1zM94.2 5.8h13c.4 0 .8-.3.8-.8s-.3-.8-.8-.8h-13c-.4 0-.8.3-.8.8s.4.8.8.8zM111.5 5.8h4.2c.4 0 .8-.3.8-.8s-.3-.8-.8-.8h-4.2c-.4 0-.8.3-.8.8s.4.8.8.8zM115.7 8.8h-9.1c-.4 0-.8.3-.8.8s.3.8.8.8h9.1c.4 0 .8-.3.8-.8s-.3-.8-.8-.8zM99.8 8.8c-.4 0-.8.3-.8.8s.3.8.8.8h2.9c.4 0 .8-.3.8-.8s-.3-.8-.8-.8h-2.9zM29.1 126h-13c-.4 0-.8.3-.8.8 0 .4.3.8.8.8h13c.4 0 .8-.3.8-.8s-.4-.8-.8-.8zM11.8 126H7.6c-.4 0-.8.3-.8.8 0 .4.3.8.8.8h4.2c.4 0 .8-.3.8-.8-.1-.5-.4-.8-.8-.8zM6.8 122.3c0 .4.3.8.8.8h9.1c.4 0 .8-.3.8-.8 0-.4-.3-.8-.8-.8H7.6c-.5 0-.8.4-.8.8zM23.5 123c.4 0 .8-.3.8-.8 0-.4-.3-.8-.8-.8h-2.9c-.4 0-.8.3-.8.8 0 .4.3.8.8.8h2.9zM78.4 82.3l-4.3 4.2c-1.3 1.3-2.1 3.1-2.1 4.9v5.7c0 .4.3.8.8.8s.8-.3.8-.8v-5.7c0-1.4.6-2.9 1.6-3.9l4.3-4.2c.3-.3.3-.8 0-1.1-.3-.2-.8-.2-1.1.1z"/>
        <path d="M110.3 39.3c-1.3-1.1-3-1.5-5.1-1.2-2.8.5-4.6 3.3-4.6 7.2v19.5c0 .4.3.8.8.8.4 0 .8-.3.8-.8V45.3c0-3.1 1.3-5.4 3.3-5.7 1.6-.3 2.9 0 3.8.8 1.1 1 1.7 2.6 1.7 4.9v30.6c0 2.3-.9 4.5-2.5 6.1L95.2 95.3c-1.2 1.2-1.8 2.7-1.8 4.3v1.7H69.2v-9.9c0-2.6 1.1-5.1 2.9-6.9l17.6-17.1c1.8-1.8 4.8-1.7 6.5.1.9.9 1.3 2.1 1.3 3.3 0 1.2-.5 2.4-1.4 3.2l-8.4 8.1c-.3.3-.3.8 0 1.1.3.3.8.3 1.1 0l8.4-8.1c1.2-1.1 1.8-2.7 1.9-4.3 0-1.6-.6-3.2-1.7-4.4-2.4-2.4-6.2-2.5-8.7-.1L71.1 83.4c-2.2 2.1-3.4 5-3.4 8v9.9c-2.3.2-4 2.1-4 4.5v8c0 .4.3.8.8.8.4 0 .8-.3.8-.8v-8c0-1.7 1.3-3 3-3h26.4c1.7 0 3 1.3 3 3v8c0 .4.3.8.8.8.4 0 .8-.3.8-.8v-8c0-2.4-1.8-4.3-4.1-4.5v-1.7c0-1.2.5-2.4 1.4-3.3L109.9 83c1.9-1.9 3-4.5 3-7.2V45.3c-.4-2.7-1.2-4.7-2.6-6z"/>
        <path d="M92.8 108c0-.4-.3-.8-.8-.8h-7.1c-.4 0-.8.3-.8.8 0 .4.3.8.8.8H92c.5-.1.8-.4.8-.8zM45 97.9c.4 0 .8-.3.8-.8v-5.7c0-1.9-.8-3.6-2.1-4.9l-4.3-4.2c-.3-.3-.8-.3-1.1 0-.3.3-.3.8 0 1.1l4.3 4.2c1 1 1.6 2.4 1.6 3.9v5.7c.1.4.4.7.8.7z"/>
        <path d="M50.1 101.4v-9.9c0-3-1.2-5.9-3.4-8L29.1 66.4c-2.4-2.4-6.3-2.3-8.7.1-1.1 1.2-1.8 2.7-1.7 4.4 0 1.6.7 3.2 1.9 4.3l8.4 8.1c.3.3.8.3 1.1 0 .3-.3.3-.8 0-1.1l-8.4-8.1c-.9-.9-1.4-2-1.4-3.2 0-1.2.4-2.4 1.3-3.3 1.8-1.8 4.7-1.9 6.5-.1l17.6 17.1c1.9 1.8 2.9 4.3 2.9 6.9v9.9H24.4v-1.7c0-1.6-.6-3.2-1.8-4.3L9.3 82c-1.6-1.6-2.5-3.8-2.5-6.1V45.3c0-2.2.6-3.9 1.7-4.9.9-.8 2.3-1.1 3.8-.8 2 .3 3.3 2.6 3.3 5.7v19.5c0 .4.3.8.8.8.4 0 .8-.3.8-.8V45.3c0-3.9-1.8-6.7-4.6-7.2-2-.3-3.8.1-5.1 1.2-1.5 1.3-2.3 3.3-2.3 6v30.6c0 2.7 1.1 5.2 3 7.2l13.3 13.3c.9.9 1.4 2 1.4 3.3v1.7c-2.3.2-4.1 2.1-4.1 4.5v8c0 .4.3.8.8.8.4 0 .8-.3.8-.8v-8c0-1.7 1.3-3 3-3h26.4c1.7 0 3 1.3 3 3v8c0 .4.3.8.8.8.4 0 .8-.3.8-.8v-8c-.3-2.4-2-4.3-4.3-4.5z"/>
        <path d="M32.9 107.2h-7.1c-.4 0-.8.3-.8.8 0 .4.3.8.8.8h7.1c.4 0 .8-.3.8-.8-.1-.4-.4-.8-.8-.8zM59.6 46.9V49c0 .4.3.8.8.8.4 0 .8-.3.8-.8v-2.1h3c4.5 0 8.2-3.7 8.2-8.2V38c0-3.8-2.6-6.9-6-7.9 2.3-1.4 3.9-4 3.9-6.9v-.7c0-4.5-3.7-8.2-8.2-8.2h-.9v-2.1c0-.4-.3-.8-.8-.8-.4 0-.8.3-.8.8v2.1h-3.4v-2.1c0-.4-.3-.8-.8-.8-.4 0-.8.3-.8.8v2.1h-7.5c-.4 0-.8.3-.8.8s.3.8.8.8h2.1v29.6h-2.1c-.4 0-.8.3-.8.8 0 .4.3.8.8.8h7.5V49c0 .4.3.8.8.8.4 0 .8-.3.8-.8v-2.1h3.4zm9-24.4v.7c0 3.7-3 6.7-6.7 6.7H50.8v-14H62c3.6-.1 6.6 2.9 6.6 6.6zm-17.8 8.9H64.1c3.7 0 6.7 3 6.7 6.7v.7c0 3.7-3 6.7-6.7 6.7H50.8V31.4zM83 16.8c.1.2.4.4.7.4.1 0 .3 0 .4-.1.4-.2.5-.7.3-1-.8-1.4-1.8-2.8-2.9-4.1-.3-.3-.7-.4-1.1-.1-.3.3-.4.7-.1 1.1.9 1.1 1.9 2.5 2.7 3.8zM76.8 52.6c.1.2.4.3.6.3.2 0 .3-.1.5-.2 1.3-1.1 2.5-2.3 3.6-3.6.3-.3.2-.8-.1-1.1-.3-.3-.8-.2-1.1.1-1 1.2-2.2 2.4-3.4 3.4-.3.3-.4.8-.1 1.1zM86 39.5c-.4-.1-.8.1-1 .5-.5 1.5-1.2 2.9-2 4.3-.2.4-.1.8.3 1 .1.1.2.1.4.1.3 0 .5-.1.7-.4.8-1.5 1.6-3 2.1-4.6.1-.3-.1-.7-.5-.9zM86.2 25.7c.1.4.4.6.7.6h.1c.4-.1.7-.5.6-.9-.3-1.7-.7-3.3-1.3-4.9-.1-.4-.6-.6-1-.4-.4.1-.6.6-.4 1 .6 1.5 1.1 3.1 1.3 4.6zM86.7 30.5v.1c0 1.6-.1 3.2-.4 4.8-.1.4.2.8.6.9h.1c.4 0 .7-.3.7-.6.3-1.6.4-3.3.4-5v-.1c0-.4-.3-.8-.8-.8-.3-.1-.6.3-.6.7zM72.9 6.8c1.4.8 2.7 1.7 3.9 2.7.1.1.3.2.5.2s.4-.1.6-.3c.3-.3.2-.8-.1-1.1-1.3-1.1-2.7-2-4.1-2.9-.4-.2-.8-.1-1 .3-.3.5-.2.9.2 1.1zM54.3 3.7h.1c1.6-.3 3.2-.4 4.8-.4.4 0 .8-.3.8-.8 0-.4-.3-.8-.8-.8-1.7 0-3.4.2-5 .5-.4.1-.7.5-.6.9 0 .3.4.6.7.6zM31.2 31.4c.4 0 .8-.4.8-.8 0-1.6.1-3.2.4-4.7.1-.4-.2-.8-.6-.9-.4-.1-.8.2-.9.6-.3 1.6-.4 3.3-.4 4.9v.1c-.1.5.3.8.7.8zM31.5 34.8c-.4.1-.7.5-.6.9.3 1.7.7 3.3 1.3 4.9.1.3.4.5.7.5h.3c.4-.1.6-.6.4-1-.5-1.5-1-3-1.2-4.6-.1-.5-.5-.8-.9-.7zM32.6 21.8h.3c.3 0 .6-.2.7-.5.5-1.5 1.2-2.9 2-4.3.2-.4.1-.8-.3-1-.4-.2-.8-.1-1 .3-.8 1.5-1.5 3-2.1 4.6-.2.3 0 .7.4.9zM65 58.2c-.1-.4-.5-.7-.9-.6-1.6.3-3.2.4-4.8.4-.4 0-.8.3-.8.8s.3.8.8.8c1.7 0 3.4-.2 5-.4.5-.2.7-.6.7-1zM54.6 57.6c-1.6-.3-3.1-.7-4.6-1.2-.4-.1-.8.1-1 .5-.1.4.1.8.5 1 1.6.6 3.2 1 4.9 1.3h.1c.4 0 .7-.3.7-.6.1-.6-.2-1-.6-1zM45.2 7c.1 0 .3 0 .4-.1 1.4-.8 2.8-1.5 4.3-2 .4-.1.6-.6.4-1-.1-.4-.6-.6-1-.4-1.6.6-3.1 1.3-4.6 2.1-.4.2-.5.7-.3 1 .3.3.5.4.8.4zM73 54.3c-1.4.8-2.8 1.5-4.3 2-.4.1-.6.6-.4 1 .1.3.4.5.7.5h.3c1.6-.6 3.1-1.3 4.6-2.1.4-.2.5-.7.3-1-.4-.5-.8-.6-1.2-.4zM64 3.6c1.6.3 3.1.7 4.6 1.2h.3c.3 0 .6-.2.7-.5.1-.4-.1-.8-.5-1-1.6-.6-3.2-1-4.9-1.3-.4-.1-.8.2-.9.6 0 .6.3 1 .7 1zM45.3 55.7c.3 0 .5-.1.7-.4.2-.4.1-.8-.3-1-1.4-.8-2.7-1.7-3.9-2.7-.3-.3-.8-.2-1.1.1-.3.3-.2.8.1 1.1 1.3 1.1 2.7 2 4.1 2.9h.4zM34.6 44.1c-.4.2-.5.7-.3 1 .8 1.4 1.8 2.8 2.9 4.1.1.2.4.3.6.3.2 0 .3-.1.5-.2.3-.3.4-.7.1-1.1-1-1.2-1.9-2.5-2.7-3.9-.3-.3-.8-.4-1.1-.2zM37.7 13.3c.2 0 .4-.1.6-.3 1-1.2 2.1-2.4 3.4-3.4.3-.2.3-.7 0-1-.3-.3-.7-.4-1.1-.1-1.3 1.1-2.5 2.3-3.5 3.6-.3.3-.2.8.1 1.1.2.1.3.1.5.1z"/>
    </g>
</svg>
