<svg xmlns="http://www.w3.org/2000/svg" width="120" height="128" viewBox="0 0 120 128">
    <g fill="#EF7B45" fill-rule="nonzero">
        <path d="M25 35.7c.4 0 .8-.3.8-.8V24c0-.4-.3-.8-.8-.8s-.8.3-.8.8v11c.1.4.4.7.8.7zM25 42.8c.4 0 .8-.3.8-.8v-3.6c0-.4-.3-.8-.8-.8s-.8.3-.8.8V42c.1.5.4.8.8.8zM116.2 50.7v11c0 .4.3.8.8.8.4 0 .8-.3.8-.8v-11c0-.4-.3-.8-.8-.8-.4 0-.8.3-.8.8zM117 69.5c.4 0 .8-.3.8-.8v-3.6c0-.4-.3-.8-.8-.8-.4 0-.8.3-.8.8v3.6c0 .5.4.8.8.8zM5.5 18.8c.1.1.3.2.5.2s.4-.1.5-.2c.3-.3.3-.8 0-1.1L4.9 16c-.3-.3-.8-.3-1.1 0-.3.3-.3.8 0 1.1l1.7 1.7zM11.1 24.4c.1.1.3.2.5.2s.4-.1.5-.2c.3-.3.3-.8 0-1.1l-1.7-1.7c-.3-.3-.8-.3-1.1 0-.3.3-.3.8 0 1.1l1.8 1.7zM4.3 24.6c.2 0 .4-.1.5-.2l1.7-1.7c.3-.3.3-.8 0-1.1-.3-.3-.8-.3-1.1 0l-1.7 1.7c-.3.3-.3.8 0 1.1.3.1.5.2.6.2zM9.9 19c.2 0 .4-.1.5-.2l1.7-1.7c.3-.3.3-.8 0-1.1-.3-.3-.8-.3-1.1 0l-1.7 1.7c-.3.3-.3.8 0 1.1.3.1.5.2.6.2zM83.5 25.9c.1.1.3.2.5.2s.4-.1.5-.2c.3-.3.3-.8 0-1.1l-1.7-1.7c-.3-.3-.8-.3-1.1 0-.3.3-.3.8 0 1.1l1.8 1.7zM89.1 31.5c.1.1.3.2.5.2s.4-.1.5-.2c.3-.3.3-.8 0-1.1l-1.7-1.7c-.3-.3-.8-.3-1.1 0-.3.3-.3.8 0 1.1l1.8 1.7zM82.3 31.7c.2 0 .4-.1.5-.2l1.7-1.7c.3-.3.3-.8 0-1.1-.3-.3-.8-.3-1.1 0l-1.7 1.7c-.3.3-.3.8 0 1.1.3.2.5.2.6.2zM87.9 26.1c.2 0 .4-.1.5-.2l1.7-1.7c.3-.3.3-.8 0-1.1-.3-.3-.8-.3-1.1 0l-1.7 1.7c-.3.3-.3.8 0 1.1.3.2.5.2.6.2zM113.6 89.3l-1.7-1.7c-.3-.3-.8-.3-1.1 0-.3.3-.3.8 0 1.1l1.7 1.7c.1.1.3.2.5.2s.4-.1.5-.2c.4-.3.4-.8.1-1.1zM117.5 93.2c-.3-.3-.8-.3-1.1 0-.3.3-.3.8 0 1.1l1.7 1.7c.1.1.3.2.5.2s.4-.1.5-.2c.3-.3.3-.8 0-1.1l-1.6-1.7zM112.6 93.2l-1.7 1.7c-.3.3-.3.8 0 1.1.1.1.3.2.5.2s.4-.1.5-.2l1.7-1.7c.3-.3.3-.8 0-1.1-.2-.3-.7-.3-1 0zM116.5 90.4c.1.1.3.2.5.2s.4-.1.5-.2l1.7-1.7c.3-.3.3-.8 0-1.1-.3-.3-.8-.3-1.1 0l-1.7 1.7c-.2.3-.2.8.1 1.1zM24.5 94.1c.1.1.3.2.5.2s.4-.1.5-.2c.3-.3.3-.8 0-1.1l-1.7-1.7c-.3-.3-.8-.3-1.1 0-.3.3-.3.8 0 1.1l1.8 1.7zM28.4 97.9l1.7 1.7c.1.1.3.2.5.2s.4-.1.5-.2c.3-.3.3-.8 0-1.1l-1.7-1.7c-.3-.3-.8-.3-1.1 0-.2.4-.2.8.1 1.1zM22.8 99.7c.1.1.3.2.5.2s.4-.1.5-.2l1.7-1.7c.3-.3.3-.8 0-1.1-.3-.3-.8-.3-1.1 0l-1.7 1.7c-.2.3-.2.8.1 1.1zM28.9 94.3c.2 0 .4-.1.5-.2l1.7-1.7c.3-.3.3-.8 0-1.1-.3-.3-.8-.3-1.1 0L28.4 93c-.3.3-.3.8 0 1.1.1.1.3.2.5.2zM105.5 41.2c1.9 0 3.5-1.6 3.5-3.5s-1.6-3.5-3.5-3.5-3.5 1.6-3.5 3.5c0 2 1.6 3.5 3.5 3.5zm0-5.4c1.1 0 2 .9 2 2s-.9 2-2 2-2-.9-2-2 .9-2 2-2zM6.3 63.2c1.9 0 3.5-1.6 3.5-3.5s-1.6-3.5-3.5-3.5-3.5 1.6-3.5 3.5 1.5 3.5 3.5 3.5zm0-5.5c1.1 0 2 .9 2 2s-.9 2-2 2-2-.9-2-2 .9-2 2-2zM84.5 95.5c0 1.9 1.6 3.5 3.5 3.5s3.5-1.6 3.5-3.5S89.9 92 88 92c-2 0-3.5 1.5-3.5 3.5zm5.4 0c0 1.1-.9 2-2 2s-2-.9-2-2 .9-2 2-2 2 .9 2 2zM96.2 9.7h11.9c.4 0 .8-.3.8-.8s-.3-.8-.8-.8H96.2c-.4 0-.8.3-.8.8s.4.8.8.8zM112 9.7h3.8c.4 0 .8-.3.8-.8s-.3-.8-.8-.8H112c-.4 0-.8.3-.8.8s.4.8.8.8zM116.6 13c0-.4-.3-.8-.8-.8h-8.3c-.4 0-.8.3-.8.8s.3.8.8.8h8.3c.5 0 .8-.4.8-.8zM104.8 13c0-.4-.3-.8-.8-.8h-2.7c-.4 0-.8.3-.8.8s.3.8.8.8h2.7c.4 0 .8-.4.8-.8zM101.4 74.2c.1.2.4.4.6.4.1 0 .3 0 .4-.1.4-.2.5-.7.2-1-.7-1.2-1.5-2.3-2.4-3.3-.3-.3-.7-.4-1.1-.1-.3.3-.4.7-.1 1.1.9.9 1.7 1.9 2.4 3zM85.5 61c.6.4 1.3.7 1.9 1 2.4 1.1 4.6 2.5 6.5 4 .1.1.3.2.5.2s.4-.1.6-.3c.3-.3.2-.8-.1-1.1-2.1-1.6-4.3-3-6.8-4.1l-1.8-.9c-.4-.2-.8-.1-1 .3-.3.2-.2.7.2.9zM79.5 56.3c.1.1.3.2.5.2s.4-.1.5-.2c.3-.3.3-.8 0-1.1-.9-.9-1.8-1.9-2.6-3-.3-.3-.7-.4-1.1-.1-.3.3-.4.7-.1 1.1.9 1.1 1.8 2.2 2.8 3.1zM39.8 52.2c-.3-.3-.8-.2-1.1.1-.8 1.1-1.7 2.1-2.6 3-.3.3-.3.8 0 1.1.1.1.3.2.5.2s.4-.1.5-.2c.9-.9 1.8-2 2.7-3.1.3-.4.3-.9 0-1.1zM30.4 59.7c-.6.3-1.2.7-1.8.9-2.5 1.2-4.7 2.6-6.8 4.1-.3.3-.4.7-.1 1.1.1.2.4.3.6.3.2 0 .3-.1.5-.2 2-1.5 4.2-2.9 6.5-4 .6-.3 1.3-.6 1.9-1 .4-.2.5-.7.3-1-.2-.3-.7-.4-1.1-.2zM16.4 70.1c-.9 1.1-1.7 2.2-2.4 3.3-.2.4-.1.8.2 1 .1.1.3.1.4.1.2 0 .5-.1.6-.4.7-1.1 1.5-2.2 2.3-3.2.3-.3.2-.8-.1-1.1-.3-.1-.7 0-1 .3z"/>
        <path d="M113.3 105c-1.2-.8-2.7-1.1-4.1-.8-1.6.4-3 1.4-3.7 2.8-.5-.6-1.1-1.2-1.9-1.5-1.2-.5-2.4-.5-3.6 0-1.9.8-3 2.9-2.9 5-.8-.3-1.6-.4-2.4-.4-3.8 0-7 3.1-7.3 7.1-.2-.1-.4-.1-.6-.2-1.5-.3-2.9.1-4.1.9-1.6 1.1-2.4 3-2.4 4.9-2.8-3.1-7.5-9.4-9-17.4 1.6-.4 2.8-1.9 2.8-3.7v-18H110c.2 0 .4-.1.6-.2.1-.2.2-.4.2-.6 0-.6-1.3-14-14.1-23-1.7-1.2-3.5-2.3-5.5-3.2-10.4-4.9-15.9-17.3-17.7-22.4-1.5-8.5-4.6-16.9-9.2-24.8-1.2-2.2-2.6-4.4-4.1-6.6L58.8.8c-.1-.2-.4-.3-.6-.3-.2 0-.5.1-.6.3l-1.4 2.1c-1.5 2.2-2.9 4.4-4.1 6.6-2.8 4.8-5 9.9-6.6 14.9-1.1 3.3-1.9 6.5-2.5 9.9-1.8 5.1-7.2 17.5-17.7 22.4-2 .9-3.8 2-5.5 3.2-12.8 9-14 22.4-14.1 23 0 .2.1.4.2.6.1.2.3.2.6.2h35.9v18c0 1.8 1.2 3.3 2.8 3.7-1.5 8-6.2 14.3-9 17.4 0-1.9-.8-3.8-2.4-4.9-1.2-.9-2.7-1.2-4.1-.9-.2 0-.4.1-.6.2-.3-3.9-3.4-7.1-7.3-7.1-.8 0-1.7.2-2.4.4.2-2.1-.9-4.1-2.9-5-1.1-.5-2.4-.5-3.6 0-.8.3-1.4.8-1.9 1.5-.8-1.4-2.1-2.5-3.7-2.8-1.4-.3-2.9 0-4.1.8-1.3.9-2.2 2.2-2.5 3.7-.1.4.2.8.6.9.4.1.8-.2.9-.6.2-1.2.9-2.1 1.8-2.8.9-.6 1.9-.8 3-.6 2.2.5 3.6 2.8 3.2 5.1-.1.4.2.8.6.9h.1c.4 0 .7-.2.7-.6.1-.7.1-1.5 0-2.2v-.1c.3-.9 1-1.5 1.8-1.9.8-.3 1.6-.3 2.4 0 1.7.7 2.4 2.7 1.8 4.5v.1c-.7.5-1.3 1.1-1.8 1.9-.2.3-.1.8.2 1 .3.2.8.1 1-.2 1.1-1.6 2.8-2.6 4.7-2.6 3.2 0 5.8 2.7 5.8 6.1v.1c-.6.4-1.1.9-1.5 1.6-.2.3-.1.8.2 1 .3.2.8.1 1-.2.6-1 1.6-1.6 2.6-1.8 1-.2 2.1 0 3 .7 1.9 1.3 2.3 4 1.1 6-.2.3-.1.7.1 1 .1.1.3.2.5.2s.4-.1.5-.2c.4-.3 9.4-8.5 11.6-20.6H49c.1 2.9 1 13.5 8.7 20.6.1.1.3.2.5.2s.4-.1.5-.2c7.8-7 8.6-17.6 8.7-20.6h2.4C72 117.5 81 125.6 81.4 126c.1.1.3.2.5.2s.4-.1.5-.2c.3-.2.3-.7.1-1-1.3-2-.8-4.7 1.1-6 .9-.6 1.9-.9 3-.7 1.1.2 2 .8 2.6 1.8.2.3.7.4 1 .2.3-.2.4-.7.2-1-.4-.6-.9-1.2-1.5-1.6v-.1c0-3.4 2.6-6.1 5.8-6.1 1.9 0 3.6 1 4.7 2.6.2.3.7.4 1 .2.3-.2.4-.7.2-1-.5-.7-1.1-1.4-1.8-1.9v-.1c-.7-1.7.1-3.8 1.8-4.5.8-.3 1.6-.3 2.4 0 .8.3 1.5 1 1.8 1.9v.1c-.1.7-.1 1.4 0 2.2.1.4.4.6.7.6h.1c.4-.1.7-.5.6-.9-.5-2.3 1-4.6 3.2-5.1 1-.2 2.1 0 3 .6 1 .6 1.6 1.6 1.8 2.8.1.4.5.7.9.6.4-.1.7-.5.6-.9-.2-1.5-1.1-2.8-2.4-3.7zm-40.7-3.2c0 1.2-1 2.3-2.2 2.3h-3.8c-1.2 0-2.1-1-2.1-2.3V79.6c0-1.9.3-3.8.8-5.7l.3-.9c.7-2.1 1.7-4.1 3-6.1 1.5 2.3 2.6 4.6 3.2 7l.1.2c.5 1.8.7 3.6.7 5.4v22.3zm18-43.6c1.9.9 3.7 1.9 5.2 3.1 10.5 7.3 12.9 18.1 13.3 21.1H74.6V47.5c.1-.1.1-.2.1-.3 0-2.3-.1-4.7-.3-7 2.8 6.1 8 14.2 16.2 18zM46.7 25c1.6-5 3.8-9.9 6.5-14.7 1.2-2.2 2.6-4.4 4.1-6.5l.8-1.2.9 1.2c1.5 2.2 2.9 4.4 4.1 6.5 4.5 7.8 7.5 16.1 9 24.5v.1c.6 3.3.9 6.8 1 10.3v27.7c-.7-2.4-1.9-4.8-3.5-7.2l-.4-.6c-.1-.2-.4-.3-.6-.3-.3 0-.5.1-.6.3l-.5.6c-1.5 2.1-2.6 4.4-3.4 6.7-.1.3-.2.7-.3 1-.6 2-.8 4.1-.8 6.1v2.8h-9.7v-2.8c0-2-.3-4-.8-6.1-.7-2.6-1.9-5.2-3.6-7.7l-.5-.6c-.1-.2-.3-.3-.6-.3-.2 0-.5.1-.6.3l-.4.6c-1.5 2.1-2.6 4.4-3.4 6.7-.1.2-.1.5-.2.7v-26c-.1-7.3 1.1-14.8 3.5-22.1zM20.5 61.2c1.6-1.1 3.3-2.2 5.2-3.1 8.2-3.9 13.4-11.9 16.3-18-.2 1.7-.3 3.3-.3 5v37.1H7.1c.5-2.9 2.9-13.6 13.4-21zm23.2 40.6V79.5c0-1.8.2-3.7.7-5.5 0 0 0-.1.1-.2l.3-.9c.7-2.1 1.7-4.1 3-6.1 1.5 2.3 2.6 4.6 3.3 7 .5 1.9.8 3.8.8 5.7v22.3c0 1.3-1 2.3-2.1 2.3H46c-1.3 0-2.3-1-2.3-2.3zm14.4 22.8c-6.8-6.6-7.6-16.5-7.7-19.1 1.7-.4 2.9-1.9 2.9-3.7v-18H63v18c0 1.8 1.2 3.3 2.9 3.7-.1 2.6-.9 12.5-7.8 19.1zM112.8 115.4c-6.8-1.8-9.3 3.5-9.4 3.6-.2.4 0 .8.4 1 .1 0 .2.1.3.1.3 0 .6-.2.7-.4.1-.2 2-4.3 7.6-2.8.4.1.8-.1.9-.5.1-.4-.1-.9-.5-1zM92.8 123.2c-2.1.2-3.5 2.1-3.6 2.2-.2.3-.2.8.2 1.1.1.1.3.1.4.1.2 0 .5-.1.6-.3 0 0 1.1-1.4 2.5-1.6.8-.1 1.5.2 2.2.8.3.3.8.2 1.1-.1.3-.3.2-.8-.1-1.1-1-.9-2.2-1.3-3.3-1.1zM106.6 123.2c-3.6-.3-5.6 3-5.6 3.1-.2.4-.1.8.3 1 .1.1.3.1.4.1.3 0 .5-.1.6-.4 0 0 1.6-2.6 4.2-2.4.4 0 .8-.3.8-.7 0-.2-.3-.6-.7-.7zM11.6 119.7c.1.3.4.4.7.4.1 0 .2 0 .3-.1.4-.2.5-.6.4-1 0-.1-2.6-5.4-9.4-3.6-.4.1-.6.5-.5.9.1.4.5.6.9.5 5.5-1.4 7.5 2.7 7.6 2.9zM23.6 123.2c-1.2-.1-2.3.3-3.4 1.2-.3.3-.4.7-.1 1.1.3.3.7.4 1.1.1.7-.6 1.5-.9 2.2-.8 1.5.2 2.5 1.6 2.5 1.6.1.2.4.3.6.3.2 0 .3 0 .4-.1.3-.2.4-.7.2-1.1 0-.2-1.4-2.1-3.5-2.3zM9.7 123.2c-.4 0-.7.4-.7.8s.4.7.8.7c2.6-.3 4.2 2.4 4.2 2.4.1.2.4.4.6.4.1 0 .3 0 .4-.1.4-.2.5-.7.3-1 0-.2-2-3.5-5.6-3.2z"/>
        <path d="M53.9 47c-.9-.8-1.5-1.9-1.5-3 0-.4-.3-.8-.8-.8-.4 0-.8.3-.8.8 0 1.6.7 3 2 4.1 1.1.9 2.4 1.5 3.9 1.6v2.9c0 .4.3.8.8.8.4 0 .8-.3.8-.8v-2.9c1.5-.1 2.8-.7 3.9-1.6 1.3-1.1 2-2.6 2-4.1 0-1.5-.7-3-2-4.1-1.1-.9-2.4-1.5-3.9-1.6v-8.6c1.1.1 2.1.6 2.9 1.2.9.8 1.5 1.9 1.5 3 0 .4.3.8.8.8.4 0 .8-.3.8-.8 0-1.6-.7-3-2-4.1-1.1-.9-2.4-1.5-3.9-1.6v-2.9c0-.4-.3-.8-.8-.8-.4 0-.8.3-.8.8v2.9c-1.5.1-2.8.7-3.9 1.6-1.3 1.1-2 2.6-2 4.1 0 1.5.7 3 2 4.1 1.1.9 2.4 1.5 3.9 1.6v8.6c-1.1-.1-2.1-.5-2.9-1.2zm7.3-6c.9.8 1.5 1.9 1.5 3s-.5 2.2-1.5 3c-.8.7-1.8 1.1-2.9 1.2v-8.5c1.1.2 2.1.6 2.9 1.3zm-7.3-4.1c-.9-.8-1.5-1.9-1.5-3s.5-2.2 1.5-3c.8-.7 1.8-1.1 2.9-1.2v8.5c-1.1-.2-2.1-.6-2.9-1.3z"/>
    </g>
</svg>
