<svg xmlns="http://www.w3.org/2000/svg" width="64" height="64" viewBox="0 0 64 64">
    <g fill="none" fill-rule="nonzero">
        <path fill="#BEBEBE" d="M63.826 32c0 17.58-14.25 31.832-31.83 31.832S.163 49.581.163 32.001 14.415.169 31.995.169s31.831 14.252 31.831 31.832"/>
        <path fill="#BEBEBE" d="M57.068 32.001c0 13.847-11.225 25.073-25.073 25.073-13.847 0-25.073-11.226-25.073-25.073 0-13.848 11.226-25.074 25.073-25.074 13.848 0 25.073 11.226 25.073 25.074"/>
        <path fill="#FFF" d="M30.135 40.504l2.067-7.785 4.895-1.788 1.218-4.576-.042-.113-4.818 1.76 3.472-13.072H27.08l-4.54 17.06-3.79 1.384-1.253 4.717 3.787-1.384-2.676 10.054h26.204l1.68-6.257H30.135"/>
    </g>
</svg>
