<svg xmlns="http://www.w3.org/2000/svg" width="171" height="48" viewBox="0 0 171 48">
    <g fill="none" fill-rule="evenodd">
        <path fill="#041E42" d="M40.848 12.352h3.528V28h-3.528V12.352zm6.08 7.92c0-1.296.2-2.452.6-3.468.4-1.016.94-1.876 1.62-2.58a6.87 6.87 0 0 1 2.376-1.608 7.533 7.533 0 0 1 2.868-.552c.976 0 1.86.204 2.652.612.792.408 1.452.884 1.98 1.428l-1.944 2.184a5.488 5.488 0 0 0-1.212-.864c-.408-.208-.884-.312-1.428-.312-.544 0-1.052.116-1.524.348a3.678 3.678 0 0 0-1.236.996c-.352.432-.628.96-.828 1.584-.2.624-.3 1.328-.3 2.112 0 1.616.344 2.868 1.032 3.756.688.888 1.608 1.332 2.76 1.332.64 0 1.2-.128 1.68-.384s.912-.592 1.296-1.008l1.944 2.136c-.656.768-1.404 1.344-2.244 1.728a6.473 6.473 0 0 1-2.724.576 7.9 7.9 0 0 1-2.856-.516 6.668 6.668 0 0 1-2.352-1.524c-.672-.672-1.2-1.508-1.584-2.508-.384-1-.576-2.156-.576-3.468zm19.784 8.016c-1.056 0-2.02-.188-2.892-.564a6.288 6.288 0 0 1-2.244-1.62c-.624-.704-1.108-1.56-1.452-2.568-.344-1.008-.516-2.152-.516-3.432 0-1.28.172-2.42.516-3.42.344-1 .828-1.84 1.452-2.52a6.234 6.234 0 0 1 2.244-1.56c.872-.36 1.836-.54 2.892-.54 1.056 0 2.02.18 2.892.54.872.36 1.62.884 2.244 1.572.624.688 1.108 1.532 1.452 2.532.344 1 .516 2.132.516 3.396 0 1.28-.172 2.424-.516 3.432-.344 1.008-.828 1.864-1.452 2.568a6.288 6.288 0 0 1-2.244 1.62c-.872.376-1.836.564-2.892.564zm0-3.048c1.072 0 1.92-.46 2.544-1.38.624-.92.936-2.172.936-3.756 0-1.568-.312-2.792-.936-3.672-.624-.88-1.472-1.32-2.544-1.32s-1.92.44-2.544 1.32c-.624.88-.936 2.104-.936 3.672 0 1.584.312 2.836.936 3.756.624.92 1.472 1.38 2.544 1.38zm11.072 1.632v6.336h-1.056V16.48h.912l.096 1.44h.072c.56-.448 1.172-.848 1.836-1.2a4.375 4.375 0 0 1 2.076-.528c1.536 0 2.688.532 3.456 1.596.768 1.064 1.152 2.492 1.152 4.284 0 .976-.136 1.848-.408 2.616-.272.768-.644 1.42-1.116 1.956a4.817 4.817 0 0 1-1.632 1.224c-.616.28-1.26.42-1.932.42-.544 0-1.104-.124-1.68-.372a9.066 9.066 0 0 1-1.776-1.044zm0-1.008c.672.544 1.296.928 1.872 1.152.576.224 1.088.336 1.536.336.576 0 1.112-.128 1.608-.384s.92-.616 1.272-1.08c.352-.464.628-1.02.828-1.668.2-.648.3-1.364.3-2.148 0-.704-.068-1.36-.204-1.968-.136-.608-.348-1.132-.636-1.572a3.04 3.04 0 0 0-1.128-1.032c-.464-.248-1.024-.372-1.68-.372-.576 0-1.172.164-1.788.492-.616.328-1.276.796-1.98 1.404v6.84zm11.6-9.384h.912l.096 2.136h.072c.384-.72.852-1.304 1.404-1.752a2.876 2.876 0 0 1 1.86-.672c.224 0 .424.016.6.048s.36.096.552.192l-.24.96a2.35 2.35 0 0 0-.504-.156 3.465 3.465 0 0 0-.552-.036c-.512 0-1.052.22-1.62.66-.568.44-1.076 1.204-1.524 2.292V28h-1.056V16.48zm6.008 5.784c0-.96.14-1.82.42-2.58.28-.76.656-1.396 1.128-1.908a4.873 4.873 0 0 1 3.612-1.584c.688 0 1.348.136 1.98.408a4.823 4.823 0 0 1 1.656 1.176c.472.512.848 1.148 1.128 1.908.28.76.42 1.62.42 2.58s-.14 1.812-.42 2.556c-.28.744-.656 1.372-1.128 1.884a4.823 4.823 0 0 1-1.656 1.176 4.958 4.958 0 0 1-1.98.408 4.873 4.873 0 0 1-3.612-1.584c-.472-.512-.848-1.14-1.128-1.884-.28-.744-.42-1.596-.42-2.556zm1.104 0c0 .752.104 1.44.312 2.064.208.624.492 1.16.852 1.608.36.448.788.796 1.284 1.044a3.545 3.545 0 0 0 1.608.372 3.62 3.62 0 0 0 1.62-.372 3.797 3.797 0 0 0 1.296-1.044c.36-.448.644-.984.852-1.608a6.496 6.496 0 0 0 .312-2.064c0-.768-.104-1.464-.312-2.088a5.284 5.284 0 0 0-.852-1.62 3.74 3.74 0 0 0-1.296-1.056 3.62 3.62 0 0 0-1.62-.372c-.576 0-1.112.124-1.608.372s-.924.6-1.284 1.056c-.36.456-.644.996-.852 1.62-.208.624-.312 1.32-.312 2.088zm12.296-5.784h.912l.096 1.776h.072a7.47 7.47 0 0 1 1.716-1.476c.632-.392 1.268-.588 1.908-.588.928 0 1.64.212 2.136.636.496.424.848.996 1.056 1.716.672-.72 1.324-1.292 1.956-1.716.632-.424 1.284-.636 1.956-.636 2.304 0 3.456 1.472 3.456 4.416V28h-1.08v-7.248c0-1.232-.208-2.14-.624-2.724-.416-.584-1.064-.876-1.944-.876-1.04 0-2.192.72-3.456 2.16V28h-1.056v-7.248c0-1.232-.208-2.14-.624-2.724-.416-.584-1.072-.876-1.968-.876-1.04 0-2.192.72-3.456 2.16V28h-1.056V16.48zm18.128 5.784c0-.96.14-1.82.42-2.58.28-.76.656-1.396 1.128-1.908a4.873 4.873 0 0 1 3.612-1.584c.688 0 1.348.136 1.98.408a4.823 4.823 0 0 1 1.656 1.176c.472.512.848 1.148 1.128 1.908.28.76.42 1.62.42 2.58s-.14 1.812-.42 2.556c-.28.744-.656 1.372-1.128 1.884a4.823 4.823 0 0 1-1.656 1.176 4.958 4.958 0 0 1-1.98.408 4.873 4.873 0 0 1-3.612-1.584c-.472-.512-.848-1.14-1.128-1.884-.28-.744-.42-1.596-.42-2.556zm1.104 0c0 .752.104 1.44.312 2.064.208.624.492 1.16.852 1.608.36.448.788.796 1.284 1.044a3.545 3.545 0 0 0 1.608.372 3.62 3.62 0 0 0 1.62-.372 3.797 3.797 0 0 0 1.296-1.044c.36-.448.644-.984.852-1.608a6.496 6.496 0 0 0 .312-2.064c0-.768-.104-1.464-.312-2.088a5.284 5.284 0 0 0-.852-1.62A3.74 3.74 0 0 0 133.7 17.5a3.62 3.62 0 0 0-1.62-.372c-.576 0-1.112.124-1.608.372s-.924.6-1.284 1.056c-.36.456-.644.996-.852 1.62-.208.624-.312 1.32-.312 2.088z"/>
        <path fill="#A99260" d="M48.53 37.72l-.83.12L46 44.1h-.41l-1.76-5.23-1.65 5.23h-.4l-1.81-6.28-.83-.1v-.41h2.72v.41l-.92.11 1.24 4.59 1.52-4.58-.99-.12v-.41h2.71v.41l-1 .12 1.49 4.63 1.28-4.62-.93-.13v-.41h2.27v.41zm2.4 3.43c.24 0 .4-.05.48-.15.08-.1.12-.223.12-.37 0-.14-.028-.275-.085-.405a1.122 1.122 0 0 0-.57-.585c-.13-.06-.272-.09-.425-.09-.14 0-.285.028-.435.085a1.1 1.1 0 0 0-.41.28c-.123.13-.23.297-.32.5s-.148.448-.175.735h1.82zm-1.84.43c.013.62.167 1.097.46 1.43.293.333.68.5 1.16.5.32 0 .587-.067.8-.2.213-.133.41-.307.59-.52l.24.19c-.173.36-.422.645-.745.855-.323.21-.715.315-1.175.315-.34 0-.647-.057-.92-.17a1.901 1.901 0 0 1-.7-.495 2.296 2.296 0 0 1-.45-.785 3.121 3.121 0 0 1-.16-1.03c0-.38.06-.728.18-1.045.12-.317.285-.588.495-.815.21-.227.455-.403.735-.53.28-.127.577-.19.89-.19.26 0 .505.043.735.13.23.087.428.213.595.38.167.167.298.37.395.61.097.24.145.51.145.81a2.202 2.202 0 0 1-.07.56h-3.2zm8.38 2.06V44h-2.46v-.36l.79-.14a68.67 68.67 0 0 0 .02-1.6v-4.29l-.82-.1v-.35l1.56-.45.14.08-.04 1.42v3.69a64.003 64.003 0 0 0 .02 1.6l.79.14zm3.19-2.23a10.014 10.014 0 0 0-.91.29 2.63 2.63 0 0 0-.525.265c-.13.09-.228.178-.295.265a.68.68 0 0 0-.13.26c-.02.087-.03.167-.03.24 0 .133.018.24.055.32a.84.84 0 0 0 .135.21c.153.153.357.23.61.23a.91.91 0 0 0 .46-.115c.08-.043.17-.1.27-.17l.36-.255v-1.54zm1.8 2.16c-.113.213-.237.355-.37.425a.932.932 0 0 1-.44.105c-.28 0-.5-.068-.66-.205a.943.943 0 0 1-.31-.545c-.133.133-.257.25-.37.35-.113.1-.227.183-.34.25-.113.067-.23.117-.35.15a1.649 1.649 0 0 1-.915-.03 1.236 1.236 0 0 1-.43-.24 1.116 1.116 0 0 1-.29-.395 1.325 1.325 0 0 1-.105-.545c0-.14.023-.277.07-.41.047-.133.13-.262.25-.385s.288-.247.505-.37c.217-.123.495-.245.835-.365.153-.053.328-.108.525-.165.197-.057.395-.112.595-.165v-.27c0-.24-.018-.438-.055-.595a.907.907 0 0 0-.165-.37.584.584 0 0 0-.285-.19 1.43 1.43 0 0 0-.425-.055 2.38 2.38 0 0 0-.51.05l-.2.7c-.093.32-.273.48-.54.48a.457.457 0 0 1-.33-.115.486.486 0 0 1-.14-.315c.093-.38.313-.685.66-.915.347-.23.777-.345 1.29-.345.527 0 .917.133 1.17.4.253.267.38.72.38 1.36v2.14c0 .393.11.59.33.59.08 0 .15-.018.21-.055.06-.037.113-.075.16-.115l.05-.06.2.22zm5.36.07V44l-1.39.1-.11-.89c-.273.333-.56.573-.86.72-.3.147-.603.22-.91.22-.2 0-.382-.032-.545-.095a.969.969 0 0 1-.415-.31 1.452 1.452 0 0 1-.255-.555 3.525 3.525 0 0 1-.085-.84l.03-2.52-.71-.15v-.35l1.47-.14.1.1-.05 1.4v1.55c0 .447.065.758.195.935.13.177.332.265.605.265.467 0 .933-.217 1.4-.65l.03-2.96-.71-.15v-.35l1.45-.14.1.1-.03 1.4v2.8l.69.15zm5.91 0V44h-2.32v-.36l.74-.14a70.211 70.211 0 0 0 .02-1.6v-.88c0-.453-.063-.77-.19-.95-.127-.18-.337-.27-.63-.27-.233 0-.458.05-.675.15-.217.1-.452.26-.705.48v1.47a70.143 70.143 0 0 0 .02 1.6l.7.14V44h-2.32v-.36l.74-.14a55.092 55.092 0 0 0 .02-1.6v-.51c0-.273-.003-.5-.01-.68l-.02-.57-.79-.09v-.35l1.39-.61.15.1.08.81c.247-.273.528-.493.845-.66.317-.167.635-.25.955-.25.433 0 .755.143.965.43.21.287.315.76.315 1.42v.96a68.906 68.906 0 0 0 .02 1.6l.7.14zm4.68-.78c-.133.42-.358.74-.675.96-.317.22-.715.33-1.195.33-.34 0-.648-.058-.925-.175a1.962 1.962 0 0 1-.71-.505 2.238 2.238 0 0 1-.45-.795 3.26 3.26 0 0 1-.155-1.035c0-.393.063-.748.19-1.065.127-.317.298-.585.515-.805.217-.22.463-.388.74-.505a2.204 2.204 0 0 1 1.51-.075c.203.067.383.158.54.275.157.117.285.253.385.41.1.157.167.328.2.515-.047.253-.2.38-.46.38-.167 0-.29-.045-.37-.135a.781.781 0 0 1-.17-.345l-.18-.66a1.216 1.216 0 0 0-.28-.065 2.451 2.451 0 0 0-.26-.015c-.433 0-.788.17-1.065.51-.277.34-.415.833-.415 1.48 0 .64.148 1.128.445 1.465.297.337.682.505 1.155.505a1.6 1.6 0 0 0 .79-.2c.24-.133.437-.327.59-.58l.25.13zm5.7.78V44h-2.32v-.36l.74-.14a70.211 70.211 0 0 0 .02-1.6v-.88c0-.453-.063-.77-.19-.95-.127-.18-.337-.27-.63-.27-.24 0-.47.052-.69.155-.22.103-.463.272-.73.505v1.44a70.143 70.143 0 0 0 .02 1.6l.69.14V44H78.7v-.36l.75-.14a54.994 54.994 0 0 0 .02-1.6v-4.29l-.82-.1v-.35l1.53-.45.14.08-.04 1.42v1.81c.247-.28.533-.505.86-.675.327-.17.65-.255.97-.255.433 0 .755.143.965.43.21.287.315.76.315 1.42v.96a68.906 68.906 0 0 0 .02 1.6l.7.14zm4.15-.62c.207.193.41.335.61.425.2.09.393.135.58.135.18 0 .35-.04.51-.12.16-.08.3-.2.42-.36.12-.16.215-.36.285-.6.07-.24.105-.52.105-.84 0-.647-.117-1.142-.35-1.485-.233-.343-.54-.515-.92-.515-.153 0-.33.04-.53.12-.2.08-.437.233-.71.46v2.78zm-.03-3.16c.233-.267.478-.462.735-.585.257-.123.525-.185.805-.185a1.663 1.663 0 0 1 1.345.665c.17.217.305.478.405.785.1.307.15.653.15 1.04s-.052.738-.155 1.055a2.468 2.468 0 0 1-.43.81c-.183.223-.4.397-.65.52a1.817 1.817 0 0 1-1.495.045 1.83 1.83 0 0 1-.64-.49h-.08l-.06.58-1.51-.1v-.36l.75-.14a54.994 54.994 0 0 0 .02-1.6v-4.29l-.82-.1v-.35l1.53-.45.14.08-.04 1.42v1.65zm6.32 3.78V44h-2.46v-.36l.79-.14a68.67 68.67 0 0 0 .02-1.6v-4.29l-.82-.1v-.35l1.56-.45.14.08-.04 1.42v3.69a64.003 64.003 0 0 0 .02 1.6l.79.14zm2.8-4.09c-.44 0-.777.178-1.01.535-.233.357-.35.875-.35 1.555 0 .673.117 1.185.35 1.535.233.35.57.525 1.01.525.433 0 .767-.175 1-.525.233-.35.35-.862.35-1.535 0-.68-.117-1.198-.35-1.555-.233-.357-.567-.535-1-.535zm0-.46c.287 0 .568.055.845.165.277.11.522.273.735.49.213.217.387.483.52.8.133.317.2.682.2 1.095 0 .413-.065.777-.195 1.09-.13.313-.303.575-.52.785-.217.21-.463.368-.74.475a2.331 2.331 0 0 1-1.7 0 2.13 2.13 0 0 1-.735-.475 2.347 2.347 0 0 1-.515-.785 2.828 2.828 0 0 1-.195-1.09c0-.413.065-.778.195-1.095.13-.317.303-.583.52-.8.217-.217.462-.38.735-.49.273-.11.557-.165.85-.165zm7.12 3.77c-.133.42-.358.74-.675.96-.317.22-.715.33-1.195.33-.34 0-.648-.058-.925-.175a1.962 1.962 0 0 1-.71-.505 2.238 2.238 0 0 1-.45-.795 3.26 3.26 0 0 1-.155-1.035c0-.393.063-.748.19-1.065.127-.317.298-.585.515-.805.217-.22.463-.388.74-.505a2.204 2.204 0 0 1 1.51-.075c.203.067.383.158.54.275.157.117.285.253.385.41.1.157.167.328.2.515-.047.253-.2.38-.46.38-.167 0-.29-.045-.37-.135a.781.781 0 0 1-.17-.345l-.18-.66a1.216 1.216 0 0 0-.28-.065 2.451 2.451 0 0 0-.26-.015c-.433 0-.788.17-1.065.51-.277.34-.415.833-.415 1.48 0 .64.148 1.128.445 1.465.297.337.682.505 1.155.505a1.6 1.6 0 0 0 .79-.2c.24-.133.437-.327.59-.58l.25.13zm5.47.78V44h-1.36l-1.54-2.48-.67.68a42.916 42.916 0 0 0 .02 1.3l.79.14V44h-2.46v-.36l.79-.14a63.638 63.638 0 0 0 .02-1.6v-4.29l-.82-.1v-.35l1.56-.45.14.08-.04 1.42v3.41l1.76-1.83-.73-.11v-.41h2.28v.41l-.96.13-1.09 1.11 1.65 2.6.66.12zm4.19-.78c-.133.42-.358.74-.675.96-.317.22-.715.33-1.195.33-.34 0-.648-.058-.925-.175a1.962 1.962 0 0 1-.71-.505 2.238 2.238 0 0 1-.45-.795 3.26 3.26 0 0 1-.155-1.035c0-.393.063-.748.19-1.065.127-.317.298-.585.515-.805.217-.22.463-.388.74-.505a2.204 2.204 0 0 1 1.51-.075c.203.067.383.158.54.275.157.117.285.253.385.41.1.157.167.328.2.515-.047.253-.2.38-.46.38-.167 0-.29-.045-.37-.135a.781.781 0 0 1-.17-.345l-.18-.66a1.216 1.216 0 0 0-.28-.065 2.451 2.451 0 0 0-.26-.015c-.433 0-.788.17-1.065.51-.277.34-.415.833-.415 1.48 0 .64.148 1.128.445 1.465.297.337.682.505 1.155.505a1.6 1.6 0 0 0 .79-.2c.24-.133.437-.327.59-.58l.25.13zm5.7.78V44h-2.32v-.36l.74-.14a70.218 70.218 0 0 0 .02-1.6v-.88c0-.453-.063-.77-.19-.95-.127-.18-.337-.27-.63-.27-.24 0-.47.052-.69.155-.22.103-.463.272-.73.505v1.44a70.153 70.153 0 0 0 .02 1.6l.69.14V44h-2.32v-.36l.75-.14a54.984 54.984 0 0 0 .02-1.6v-4.29l-.82-.1v-.35l1.53-.45.14.08-.04 1.42v1.81c.247-.28.533-.505.86-.675.327-.17.65-.255.97-.255.433 0 .755.143.965.43.21.287.315.76.315 1.42v.96a68.915 68.915 0 0 0 .02 1.6l.7.14zm3.35-2.23a10.014 10.014 0 0 0-.91.29 2.63 2.63 0 0 0-.525.265c-.13.09-.228.178-.295.265a.68.68 0 0 0-.13.26c-.02.087-.03.167-.03.24 0 .133.018.24.055.32a.84.84 0 0 0 .135.21c.153.153.357.23.61.23a.91.91 0 0 0 .46-.115c.08-.043.17-.1.27-.17l.36-.255v-1.54zm1.8 2.16c-.113.213-.237.355-.37.425a.932.932 0 0 1-.44.105c-.28 0-.5-.068-.66-.205a.943.943 0 0 1-.31-.545c-.133.133-.257.25-.37.35-.113.1-.227.183-.34.25-.113.067-.23.117-.35.15a1.649 1.649 0 0 1-.915-.03 1.236 1.236 0 0 1-.43-.24 1.116 1.116 0 0 1-.29-.395 1.325 1.325 0 0 1-.105-.545c0-.14.023-.277.07-.41.047-.133.13-.262.25-.385s.288-.247.505-.37c.217-.123.495-.245.835-.365.153-.053.328-.108.525-.165.197-.057.395-.112.595-.165v-.27c0-.24-.018-.438-.055-.595a.907.907 0 0 0-.165-.37.584.584 0 0 0-.285-.19 1.43 1.43 0 0 0-.425-.055 2.38 2.38 0 0 0-.51.05l-.2.7c-.093.32-.273.48-.54.48a.457.457 0 0 1-.33-.115.486.486 0 0 1-.14-.315c.093-.38.313-.685.66-.915.347-.23.777-.345 1.29-.345.527 0 .917.133 1.17.4.253.267.38.72.38 1.36v2.14c0 .393.11.59.33.59.08 0 .15-.018.21-.055.06-.037.113-.075.16-.115l.05-.06.2.22zm1.39-5.55a.67.67 0 0 1-.48-.18.618.618 0 0 1-.19-.47c0-.193.063-.348.19-.465a.681.681 0 0 1 .48-.175c.193 0 .353.058.48.175.127.117.19.272.19.465s-.063.35-.19.47a.67.67 0 0 1-.48.18zm1.14 5.62V44h-2.32v-.36l.75-.14a54.984 54.984 0 0 0 .02-1.6v-.5c0-.273-.003-.502-.01-.685l-.02-.575-.79-.09v-.35l1.54-.61.15.1-.03 1.36v1.35a70.153 70.153 0 0 0 .02 1.6l.69.14zm5.88 0V44h-2.32v-.36l.74-.14a70.218 70.218 0 0 0 .02-1.6v-.88c0-.453-.063-.77-.19-.95-.127-.18-.337-.27-.63-.27-.233 0-.458.05-.675.15-.217.1-.452.26-.705.48v1.47a70.153 70.153 0 0 0 .02 1.6l.7.14V44h-2.32v-.36l.74-.14a55.083 55.083 0 0 0 .02-1.6v-.51c0-.273-.003-.5-.01-.68l-.02-.57-.79-.09v-.35l1.39-.61.15.1.08.81c.247-.273.528-.493.845-.66.317-.167.635-.25.955-.25.433 0 .755.143.965.43.21.287.315.76.315 1.42v.96a68.915 68.915 0 0 0 .02 1.6l.7.14zm4.81-2.41c.507.187.862.402 1.065.645.203.243.305.522.305.835a1.275 1.275 0 0 1-.485 1c-.163.133-.367.24-.61.32-.243.08-.525.12-.845.12a2.92 2.92 0 0 1-.775-.095 3.647 3.647 0 0 1-.725-.295l-.03-1.09h.55l.19.86c.233.107.503.16.81.16.38 0 .663-.07.85-.21a.665.665 0 0 0 .28-.56.622.622 0 0 0-.235-.51c-.157-.127-.395-.25-.715-.37l-.46-.17c-.367-.133-.66-.308-.88-.525a1.085 1.085 0 0 1-.33-.805c0-.193.042-.377.125-.55.083-.173.2-.327.35-.46.15-.133.333-.24.55-.32.217-.08.458-.12.725-.12.273 0 .52.035.74.105.22.07.44.172.66.305l-.04 1.02h-.52l-.15-.8a1.634 1.634 0 0 0-.7-.17c-.307 0-.538.065-.695.195a.658.658 0 0 0-.235.535c0 .2.068.358.205.475.137.117.378.238.725.365l.3.11zm4.8 2.34a1.28 1.28 0 0 1-.495.39c-.203.093-.432.14-.685.14-.353 0-.632-.092-.835-.275-.203-.183-.305-.472-.305-.865 0-.127.002-.252.005-.375s.005-.282.005-.475V39.8h-.83v-.44l.89-.11.25-1.36h.61l-.05 1.38h1.34v.53h-1.36v3.04c0 .26.048.448.145.565a.497.497 0 0 0 .405.175c.2 0 .423-.093.67-.28l.24.27zm3.07-2.16a10.014 10.014 0 0 0-.91.29 2.63 2.63 0 0 0-.525.265c-.13.09-.228.178-.295.265a.68.68 0 0 0-.13.26c-.02.087-.03.167-.03.24 0 .133.018.24.055.32a.84.84 0 0 0 .135.21c.153.153.357.23.61.23a.91.91 0 0 0 .46-.115c.08-.043.17-.1.27-.17l.36-.255v-1.54zm1.8 2.16c-.113.213-.237.355-.37.425a.932.932 0 0 1-.44.105c-.28 0-.5-.068-.66-.205a.943.943 0 0 1-.31-.545c-.133.133-.257.25-.37.35-.113.1-.227.183-.34.25-.113.067-.23.117-.35.15a1.649 1.649 0 0 1-.915-.03 1.236 1.236 0 0 1-.43-.24 1.116 1.116 0 0 1-.29-.395 1.325 1.325 0 0 1-.105-.545c0-.14.023-.277.07-.41.047-.133.13-.262.25-.385s.288-.247.505-.37c.217-.123.495-.245.835-.365.153-.053.328-.108.525-.165.197-.057.395-.112.595-.165v-.27c0-.24-.018-.438-.055-.595a.907.907 0 0 0-.165-.37.584.584 0 0 0-.285-.19 1.43 1.43 0 0 0-.425-.055 2.38 2.38 0 0 0-.51.05l-.2.7c-.093.32-.273.48-.54.48a.457.457 0 0 1-.33-.115.486.486 0 0 1-.14-.315c.093-.38.313-.685.66-.915.347-.23.777-.345 1.29-.345.527 0 .917.133 1.17.4.253.267.38.72.38 1.36v2.14c0 .393.11.59.33.59.08 0 .15-.018.21-.055.06-.037.113-.075.16-.115l.05-.06.2.22zm1.81-3.21c.173-.4.388-.712.645-.935.257-.223.522-.335.795-.335.147 0 .288.038.425.115a.516.516 0 0 1 .255.375.492.492 0 0 1-.17.395.64.64 0 0 1-.43.145.808.808 0 0 1-.57-.25l-.07-.07c-.207.153-.38.335-.52.545a2.96 2.96 0 0 0-.35.765v.79a68.832 68.832 0 0 0 .02 1.59l.82.15V44h-2.42v-.36l.72-.13a54.984 54.984 0 0 0 .02-1.61v-.51c0-.273-.003-.5-.01-.68l-.02-.57-.79-.09v-.35l1.39-.61.15.1.11 1.17zm5.44 3.21a1.28 1.28 0 0 1-.495.39c-.203.093-.432.14-.685.14-.353 0-.632-.092-.835-.275-.203-.183-.305-.472-.305-.865 0-.127.002-.252.005-.375s.005-.282.005-.475V39.8h-.83v-.44l.89-.11.25-1.36h.61l-.05 1.38h1.34v.53h-1.36v3.04c0 .26.048.448.145.565a.497.497 0 0 0 .405.175c.2 0 .423-.093.67-.28l.24.27zm5.33.07V44l-1.39.1-.11-.89c-.273.333-.56.573-.86.72-.3.147-.603.22-.91.22-.2 0-.382-.032-.545-.095a.969.969 0 0 1-.415-.31 1.452 1.452 0 0 1-.255-.555 3.525 3.525 0 0 1-.085-.84l.03-2.52-.71-.15v-.35l1.47-.14.1.1-.05 1.4v1.55c0 .447.065.758.195.935.13.177.332.265.605.265.467 0 .933-.217 1.4-.65l.03-2.96-.71-.15v-.35l1.45-.14.1.1-.03 1.4v2.8l.69.15zm2.06-.57c.367.34.737.51 1.11.51a1.178 1.178 0 0 0 .955-.48c.123-.16.22-.36.29-.6.07-.24.105-.52.105-.84 0-.647-.117-1.142-.35-1.485-.233-.343-.533-.515-.9-.515-.153 0-.33.038-.53.115-.2.077-.427.222-.68.435v2.86zm-.06-3.23c.46-.5.963-.75 1.51-.75a1.694 1.694 0 0 1 1.355.665c.17.217.305.478.405.785.1.307.15.653.15 1.04s-.052.738-.155 1.055a2.468 2.468 0 0 1-.43.81 1.936 1.936 0 0 1-.655.52 1.848 1.848 0 0 1-.82.185c-.233 0-.46-.047-.68-.14-.22-.093-.437-.263-.65-.51v.78a64.423 64.423 0 0 0 .02 1.6l.91.15v.35h-2.57v-.35l.8-.14a68.152 68.152 0 0 0 .02-1.61v-2.89c0-.273-.003-.5-.01-.68l-.02-.57-.78-.09v-.35l1.39-.61.15.1.06.65zm6.25 1.39c.507.187.862.402 1.065.645.203.243.305.522.305.835a1.275 1.275 0 0 1-.485 1c-.163.133-.367.24-.61.32-.243.08-.525.12-.845.12a2.92 2.92 0 0 1-.775-.095 3.647 3.647 0 0 1-.725-.295l-.03-1.09h.55l.19.86c.233.107.503.16.81.16.38 0 .663-.07.85-.21a.665.665 0 0 0 .28-.56.622.622 0 0 0-.235-.51c-.157-.127-.395-.25-.715-.37l-.46-.17c-.367-.133-.66-.308-.88-.525a1.085 1.085 0 0 1-.33-.805c0-.193.042-.377.125-.55.083-.173.2-.327.35-.46.15-.133.333-.24.55-.32.217-.08.458-.12.725-.12.273 0 .52.035.74.105.22.07.44.172.66.305l-.04 1.02h-.52l-.15-.8a1.634 1.634 0 0 0-.7-.17c-.307 0-.538.065-.695.195a.658.658 0 0 0-.235.535c0 .2.068.358.205.475.137.117.378.238.725.365l.3.11z"/>
        <path fill="#A99260" fill-rule="nonzero" d="M26.68 40.86a3.14 3.14 0 0 0-.664 4.362 3.056 3.056 0 0 0 4.304.676 3.152 3.152 0 0 0 .664-4.371 3.055 3.055 0 0 0-4.305-.667zm-.596-.803a4.055 4.055 0 0 1 5.71.883c1.331 1.835.938 4.415-.879 5.762a4.056 4.056 0 0 1-5.709-.893 4.14 4.14 0 0 1 .878-5.752zM12.634 38.99c-1.702 0-3.079 1.391-3.079 3.118 0 1.728 1.379 3.125 3.08 3.125 1.702 0 3.085-1.399 3.085-3.125 0-1.725-1.382-3.119-3.086-3.119zm0-1c2.258 0 4.086 1.843 4.086 4.118 0 2.276-1.828 4.125-4.086 4.125-2.256 0-4.079-1.848-4.079-4.125 0-2.276 1.823-4.119 4.08-4.119zM28.491 1.923c-1.702 0-3.079 1.391-3.079 3.118 0 1.728 1.379 3.125 3.08 3.125 1.702 0 3.085-1.399 3.085-3.125 0-1.725-1.382-3.118-3.086-3.118zm0-1c2.258 0 4.086 1.843 4.086 4.118 0 2.276-1.828 4.125-4.086 4.125-2.256 0-4.079-1.848-4.079-4.125 0-2.276 1.822-4.118 4.08-4.118zM4.052 21.13c-1.702 0-3.079 1.393-3.079 3.12s1.379 3.124 3.08 3.124c1.702 0 3.085-1.398 3.085-3.125 0-1.725-1.382-3.118-3.086-3.118zm0-1c2.258 0 4.086 1.844 4.086 4.12s-1.828 4.124-4.086 4.124c-2.256 0-4.079-1.847-4.079-4.125 0-2.276 1.823-4.118 4.08-4.118zM28.495 18.512c-3.134 0-5.667 2.562-5.667 5.735 0 3.176 2.535 5.746 5.667 5.746 3.133 0 5.678-2.572 5.678-5.746 0-3.171-2.543-5.735-5.678-5.735zm0-1c3.69 0 6.678 3.014 6.678 6.735 0 3.724-2.99 6.746-6.678 6.746-3.687 0-6.667-3.02-6.667-6.746 0-3.723 2.978-6.735 6.667-6.735z"/>
        <path fill="#A99260" fill-rule="nonzero" d="M27.994 30.493L28 39.76l1-.001-.006-9.266zM22.327 23.747l-14.69.002.001 1 14.69-.002zM28.994 18.012l-.003-9.346h-1l.003 9.347zM25.272 18.816l-9.36-9.463-.71.703 9.359 9.463zM12.635 4.198c-1.703 0-3.08 1.392-3.08 3.119 0 1.728 1.379 3.125 3.08 3.125 1.702 0 3.085-1.399 3.085-3.125 0-1.725-1.382-3.119-3.085-3.119zm0-1c2.257 0 4.085 1.843 4.085 4.119s-1.828 4.125-4.085 4.125c-2.257 0-4.08-1.848-4.08-4.125s1.823-4.119 4.08-4.119zM24.557 28.975l-9.835 9.943.71.704 9.836-9.944z"/>
    </g>
</svg>
