<?xml version="1.0" encoding="UTF-8"?>
<svg width="40px" height="40px" viewBox="0 0 40 40" version="1.1" xmlns="http://www.w3.org/2000/svg" xmlns:xlink="http://www.w3.org/1999/xlink">
    <!-- Generator: Sketch 46.2 (44496) - http://www.bohemiancoding.com/sketch -->
    <title>medium</title>
    <desc>Created with Sketch.</desc>
    <defs></defs>
    <g id="Landing-page" stroke="none" stroke-width="1" fill="none" fill-rule="evenodd">
        <g id="icns" transform="translate(-251.000000, -528.000000)" fill="#ffffff">
            <g id="medium" transform="translate(251.000000, 528.000000)">
                <path d="M9.82666667,14.4206549 C9.86666667,14.079555 9.73333333,13.7520991 9.49333333,13.5337951 L7,10.4638959 L7,10 L14.7333333,10 L20.7066667,23.4120487 L25.96,10 L33.3333333,10 L33.3333333,10.4638959 L31.2,12.5514274 C31.0266667,12.6878673 30.9333333,12.9334593 30.9733333,13.1654072 L30.9733333,28.5012594 C30.9333333,28.7332074 31.0266667,28.9787993 31.2,29.1152393 L33.28,31.2027708 L33.28,31.6666667 L22.8266667,31.6666667 L22.8266667,31.2027708 L24.9733333,29.0606633 C25.1866667,28.8560034 25.1866667,28.7877834 25.1866667,28.4603275 L25.1866667,16.0579345 L19.2,31.6120907 L18.4,31.6120907 L11.4266667,16.0579345 L11.4266667,26.4819479 C11.3333333,26.9185558 11.5066667,27.3551637 11.8133333,27.6553317 L14.6133333,31.1618388 L14.6133333,31.6120907 L6.66666667,31.6120907 L6.66666667,31.1618388 L9.46666667,27.6553317 C9.77333333,27.3551637 9.90666667,26.9185558 9.82666667,26.4819479 L9.82666667,14.4206549 Z" id="Combined-Shape"></path>
            </g>
        </g>
    </g>
</svg>