<svg xmlns="http://www.w3.org/2000/svg" xmlns:xlink="http://www.w3.org/1999/xlink" width="63" height="64" viewBox="0 0 63 64">
    <defs>
        <path id="a" d="M0 0h64v64H0z"/>
    </defs>
    <g fill="none" fill-rule="evenodd">
        <mask id="b" fill="#fff">
            <use xlink:href="#a"/>
        </mask>
        <g fill-rule="nonzero" mask="url(#b)">
            <path fill="#2176FF" d="M53.514 9.274c-12.223-12.32-32.09-12.32-44.313 0-12.223 12.32-12.223 32.345 0 44.665s32.09 12.32 44.313 0c12.223-12.32 12.223-32.345 0-44.665zM48.625 32.3L32.046 49.01a.987.987 0 0 1-1.422 0l-16.579-16.71c-.4-.403-.4-1.03 0-1.434l16.58-16.71a.987.987 0 0 1 1.421 0l16.58 16.71c.4.403.4 1.03 0 1.434z"/>
            <path fill="#1A53F0" d="M62.715 31.54c0-8.378-3.289-16.442-9.156-22.356-4.978-5.018-13.023-5.062-18.001-.045l-4.89 4.883a.976.976 0 0 1 .667-.268c.267 0 .534.134.711.313L53.47 35.706c4.978 5.017 4.978 13.126 0 18.144a31.556 31.556 0 0 0 9.245-22.31zM9.156 53.805c4.978 5.017 13.023 5.017 18.046.045 0 0 2-2.106 4.844-4.973-.355.403-1.022.403-1.422.045l-.044-.045-16.49-16.621c-.222-.18-.311-.493-.311-.762 0-.268.089-.537.266-.716l-4.8 4.838c-4.978 5.018-5.023 13.126-.089 18.189z"/>
        </g>
    </g>
</svg>
