<svg xmlns="http://www.w3.org/2000/svg" width="48" height="43" viewBox="0 0 48 43">
    <path fill="#041E42" fill-rule="evenodd" d="M20.348 6.135c-3.965 2.622-6.94 5.402-8.922 8.338-1.983 2.937-2.974 6.66-2.974 11.17.313-.105.783-.158 1.409-.158 2.087 0 3.991.682 5.713 2.045 1.722 1.364 2.583 3.357 2.583 5.979 0 2.726-.783 4.85-2.348 6.37-1.566 1.522-3.548 2.282-5.948 2.282-3.13 0-5.557-1.206-7.278-3.618C.86 36.13 0 32.617 0 28.003 0 21.71 1.409 16.255 4.226 11.64 7.043 7.027 11.166 3.146 16.591 0l3.757 6.135zm27.548 0c-3.966 2.622-6.94 5.402-8.922 8.338C36.99 17.41 36 21.133 36 25.643c.313-.105.783-.158 1.409-.158 2.087 0 3.991.682 5.713 2.045 1.721 1.364 2.582 3.357 2.582 5.979 0 2.726-.782 4.85-2.347 6.37-1.566 1.522-3.548 2.282-5.948 2.282-3.13 0-5.557-1.206-7.279-3.618-1.721-2.413-2.582-5.926-2.582-10.54 0-6.293 1.409-11.747 4.226-16.362C34.59 7.027 38.713 3.146 44.139 0l3.757 6.135z"/>
</svg>
