<svg xmlns="http://www.w3.org/2000/svg" width="128" height="124" viewBox="0 0 128 124">
    <g fill="#EF7B45" fill-rule="nonzero">
        <path d="M6.1 28.4c.4 0 .8-.3.8-.8V14.2c0-.4-.3-.8-.8-.8-.4 0-.8.3-.8.8v13.5c0 .3.3.7.8.7zM6.1 37.2c.4 0 .8-.3.8-.8V32c0-.4-.3-.8-.8-.8-.4 0-.8.3-.8.8v4.4c0 .4.3.8.8.8zM126.7 79.7c-.4 0-.8.3-.8.8V94c0 .4.3.8.8.8.4 0 .8-.3.8-.8V80.4c0-.4-.3-.7-.8-.7zM126.7 97.5c-.4 0-.8.3-.8.8v4.4c0 .4.3.8.8.8.4 0 .8-.3.8-.8v-4.4c0-.4-.3-.8-.8-.8zM17.8 7c.1.1.3.2.5.2s.4-.1.5-.2c.3-.3.3-.8 0-1.1L17 4.1c-.3-.3-.8-.3-1.1 0-.3.3-.3.8 0 1.1L17.8 7zM23.5 12.7c.1.1.3.2.5.2s.4-.1.5-.2c.3-.3.3-.8 0-1.1l-1.8-1.8c-.3-.3-.8-.3-1.1 0-.3.3-.3.8 0 1.1l1.9 1.8zM16.6 12.9c.2 0 .4-.1.5-.2l1.8-1.8c.3-.3.3-.8 0-1.1-.3-.3-.8-.3-1.1 0L16 11.6c-.3.3-.3.8 0 1.1.2.1.4.2.6.2zM22.2 7.2c.2 0 .4-.1.5-.2l1.8-1.8c.3-.3.3-.8 0-1.1-.3-.3-.8-.3-1.1 0l-1.8 1.8c-.3.3-.3.8 0 1.1.3.1.5.2.6.2zM78.8 115.1c-.3-.3-.8-.3-1.1 0-.3.3-.3.8 0 1.1l1.8 1.8c.1.1.3.2.5.2s.4-.1.5-.2c.3-.3.3-.8 0-1.1l-1.7-1.8zM84.5 120.8c-.3-.3-.8-.3-1.1 0-.3.3-.3.8 0 1.1l1.8 1.8c.1.1.3.2.5.2s.4-.1.5-.2c.3-.3.3-.8 0-1.1l-1.7-1.8zM79.5 120.8l-1.8 1.8c-.3.3-.3.8 0 1.1.1.1.3.2.5.2s.4-.1.5-.2l1.8-1.8c.3-.3.3-.8 0-1.1-.2-.3-.7-.3-1 0zM85.2 115.1l-1.8 1.8c-.3.3-.3.8 0 1.1.1.1.3.2.5.2s.4-.1.5-.2l1.8-1.8c.3-.3.3-.8 0-1.1-.3-.2-.7-.2-1 0zM118.3 17.9l-1.8-1.8c-.3-.3-.8-.3-1.1 0-.3.3-.3.8 0 1.1l1.8 1.8c.1.1.3.2.5.2s.4-.1.5-.2c.4-.3.4-.8.1-1.1zM122.2 21.8c-.3-.3-.8-.3-1.1 0-.3.3-.3.8 0 1.1l1.8 1.8c.1.1.3.2.5.2s.4-.1.5-.2c.3-.3.3-.8 0-1.1l-1.7-1.8zM117.3 21.8l-1.8 1.8c-.3.3-.3.8 0 1.1.1.1.3.2.5.2s.4-.1.5-.2l1.8-1.8c.3-.3.3-.8 0-1.1-.3-.3-.7-.3-1 0zM122.9 16.1l-1.8 1.8c-.3.3-.3.8 0 1.1.1.1.3.2.5.2s.4-.1.5-.2l1.8-1.8c.3-.3.3-.8 0-1.1-.2-.3-.7-.3-1 0zM45.5 8c2.2 0 3.9-1.8 3.9-3.9 0-2.2-1.8-3.9-3.9-3.9-2.2 0-3.9 1.8-3.9 3.9 0 2.1 1.7 3.9 3.9 3.9zm0-6.4c1.3 0 2.4 1.1 2.4 2.4 0 1.3-1.1 2.4-2.4 2.4-1.3 0-2.4-1.1-2.4-2.4 0-1.3 1.1-2.4 2.4-2.4zM104 112.3c-2.2 0-3.9 1.8-3.9 3.9 0 2.2 1.8 3.9 3.9 3.9 2.2 0 3.9-1.8 3.9-3.9.1-2.1-1.7-3.9-3.9-3.9zm0 6.3c-1.3 0-2.4-1.1-2.4-2.4 0-1.3 1.1-2.4 2.4-2.4 1.3 0 2.4 1.1 2.4 2.4.1 1.4-1 2.4-2.4 2.4zM4.4 92.4c-2.2 0-3.9 1.8-3.9 3.9 0 2.2 1.8 3.9 3.9 3.9 2.2 0 3.9-1.8 3.9-3.9.1-2.2-1.7-3.9-3.9-3.9zm0 6.3c-1.3 0-2.4-1.1-2.4-2.4 0-1.3 1.1-2.4 2.4-2.4 1.3 0 2.4 1.1 2.4 2.4 0 1.3-1 2.4-2.4 2.4zM90.4 3.5h16.5c.4 0 .8-.3.8-.8 0-.4-.3-.8-.8-.8H90.4c-.4 0-.8.3-.8.8s.4.8.8.8zM112.3 3.5h5.4c.4 0 .8-.3.8-.8 0-.4-.3-.8-.8-.8h-5.4c-.4 0-.8.3-.8.8.1.5.4.8.8.8zM118.4 8.4c0-.4-.3-.8-.8-.8h-11.5c-.4 0-.8.3-.8.8 0 .4.3.8.8.8h11.5c.5 0 .8-.4.8-.8zM101.2 9.2c.4 0 .8-.3.8-.8 0-.4-.3-.8-.8-.8h-3.7c-.4 0-.8.3-.8.8 0 .4.3.8.8.8h3.7zM49.6 121.1H33c-.4 0-.8.3-.8.8 0 .4.3.8.8.8h16.5c.4 0 .8-.3.8-.8 0-.4-.3-.8-.7-.8zM27.6 121.1h-5.4c-.4 0-.8.3-.8.8 0 .4.3.8.8.8h5.4c.4 0 .8-.3.8-.8 0-.4-.4-.8-.8-.8zM22.2 117h11.5c.4 0 .8-.3.8-.8 0-.4-.3-.8-.8-.8H22.2c-.4 0-.8.3-.8.8.1.4.4.8.8.8zM42.5 117c.4 0 .8-.3.8-.8 0-.4-.3-.8-.8-.8h-3.7c-.4 0-.8.3-.8.8 0 .4.3.8.8.8h3.7zM95.4 35.2c.9 1.8 2.3 2.9 4 3.3.4.1.8.1 1.2.1 3.1 0 6-2.6 6.9-6.3 1-4.2-1.1-8.3-4.6-9.1-3.5-.8-7.2 2-8.1 6.2-.5 2-.3 4.1.6 5.8zm.9-5.5c.7-3 3-5.2 5.4-5.2.3 0 .6 0 .9.1 2.7.6 4.3 3.9 3.5 7.3-.8 3.4-3.6 5.7-6.3 5.1-1.3-.3-2.4-1.2-3-2.5-.8-1.4-.9-3.1-.5-4.8zM119.4 42.1c-.7-.3-1.4-.1-1.9.4-3.7 3.7-5.8 8.7-5.8 14v23.9H88.9V77h12.2c1.7 0 3.4-.7 4.6-1.9 1.2-1.2 1.9-2.9 1.9-4.6v-23c0-1.7-.7-3.4-1.9-4.6-1.2-1.2-2.9-1.9-4.6-1.9-1.7 0-3.4.7-4.6 1.9l-.1.1-8.6 12.6L81 57V43.7c0-4.5-3.6-8.1-8.1-8.1H59.5c-4.5 0-8.1 3.6-8.1 8.1V57l-6.9-1.5-8.6-12.6-.1-.1c-1.2-1.2-2.9-1.9-4.6-1.9-1.7 0-3.4.7-4.6 1.9-1.2 1.2-1.9 2.9-1.9 4.6v22.9c0 1.7.7 3.4 1.9 4.6 1.2 1.2 2.9 1.9 4.6 1.9h12.3v3.4H20.6V56.4c0-5.3-2.1-10.3-5.8-14-.5-.5-1.2-.6-1.9-.4-.7.3-1.1.9-1.1 1.6v44.6c0 .4.3.8.8.8h2.2v20.4c0 .4.3.8.8.8h2.5c.4 0 .7-.3.7-.7L21 89h18.9l3.7 15.4v5c0 .4.3.8.8.8h43.9c.4 0 .8-.3.8-.8v-5L92.6 89h18.8l2.1 20.4c0 .4.4.7.7.7h2.5c.4 0 .8-.3.8-.8V89h2.2c.4 0 .8-.3.8-.8V43.7c0-.7-.4-1.4-1.1-1.6zm-102 66.5h-1.1V89h3.1l-2 19.6zm26.1-10.7L41.4 89h2.1v8.9zm0-10.4H13.4V43.7c0-.1.1-.2.1-.2.1 0 .2 0 .3.1 3.5 3.5 5.4 8 5.4 12.9V81c0 .4.3.8.8.8h23.6v5.7h-.1zM88.4 57c.2 0 .4-.2.5-.3l8.8-12.8c.9-.9 2.2-1.4 3.5-1.4 1.3 0 2.6.5 3.6 1.5s1.5 2.2 1.5 3.6v22.9c0 1.3-.5 2.6-1.5 3.6s-2.2 1.5-3.6 1.5H88.9v-5h8.9c.4 0 .8-.3.8-.8V57.5c0-.3-.2-.6-.5-.7-.3-.1-.6-.1-.8.1l-4.7 4.5H78c-.6-.3-.9-.7-.9-.9 0-.4.6-1 1.1-1.3L88.4 57zm.5 11.8v-2.4h4c.4 0 .8-.3.8-.8v-3.1l3.4-3.3v9.6h-8.2zm-36-25.1c0-3.6 3-6.6 6.6-6.6h13.4c3.6 0 6.6 3 6.6 6.6v13.6l-1.8.4c-.1 0-.2 0-.2.1-.2.1-1.9 1.2-1.9 2.7 0 .3.1.6.3.9H56.6c.2-.3.2-.6.3-.9.1-1.5-1.7-2.6-1.9-2.7-.1 0-.1-.1-.2-.1l-1.8-.4V43.7h-.1zm-9.4 31.7H31.2c-1.3 0-2.6-.5-3.6-1.5s-1.5-2.2-1.5-3.6V47.5c0-1.3.5-2.6 1.5-3.6s2.2-1.5 3.6-1.5c1.3 0 2.6.5 3.5 1.4l8.8 12.8c.1.2.3.3.5.3l10.3 2.2c.4.3 1.1.9 1.1 1.3 0 .3-.4.6-.9.9H39.8l-4.7-4.5c-.2-.2-.5-.3-.8-.1-.3.1-.5.4-.5.7v12.1c0 .4.3.8.8.8h9v5.1h-.1zm0-6.6h-8.2v-9.5l3.4 3.3v3.1c0 .4.3.8.8.8h4v2.3zm43.9 39.8H45V66.4h42.4v42.2zm.8-43.7H40.3V63H92.1v1.9h-3.9zm.7 33V89H91l-2.1 8.9zm27.2 10.7H115L113 89h3.1v19.6zm2.9-21.1H88.9v-5.8h23.6c.4 0 .8-.3.8-.8V56.4c0-4.9 1.9-9.5 5.4-12.9.1-.1.2-.1.3-.1.1 0 .1.1.1.2v43.9h-.1zM24.8 32.3c.9 3.7 3.8 6.3 6.9 6.3.4 0 .8 0 1.2-.1 3.5-.8 5.6-4.9 4.6-9.1-1-4.2-4.6-7-8.1-6.2-3.4.8-5.5 4.9-4.6 9.1zm5-7.6c2.7-.6 5.5 1.6 6.3 5.1.8 3.5-.8 6.7-3.5 7.3-2.7.6-5.5-1.6-6.3-5.1-.8-3.4.8-6.7 3.5-7.3z"/>
        <path d="M54.2 103.4c.4 0 .8-.3.8-.8V72.4c0-.4-.3-.8-.8-.8-.4 0-.8.3-.8.8v30.3c0 .4.3.7.8.7zM62.2 103.4c.4 0 .8-.3.8-.8V72.4c0-.4-.3-.8-.8-.8-.4 0-.8.3-.8.8v30.3c0 .4.4.7.8.7zM70.2 103.4c.4 0 .8-.3.8-.8V72.4c0-.4-.3-.8-.8-.8-.4 0-.8.3-.8.8v30.3c.1.4.4.7.8.7zM78.3 103.4c.4 0 .8-.3.8-.8V72.4c0-.4-.3-.8-.8-.8-.4 0-.8.3-.8.8v30.3c0 .4.3.7.8.7zM66.2 32.2c4.3 0 7.8-3.5 7.8-7.8s-3.5-7.8-7.8-7.8-7.8 3.5-7.8 7.8 3.5 7.8 7.8 7.8zm0-14.1c3.5 0 6.3 2.8 6.3 6.3s-2.8 6.3-6.3 6.3-6.3-2.8-6.3-6.3 2.8-6.3 6.3-6.3zM63.8 40h1.5l-1.9 13.8v.4c0 .2.1.3.2.5l2 2c.1.1.3.2.5.2s.4-.1.5-.2l2-2c.1-.1.2-.3.2-.5 0-.1.1-.2 0-.4L67.1 40h1.5c.4 0 .8-.3.8-.8 0-.4-.3-.8-.8-.8h-4.8c-.4 0-.8.3-.8.8.1.5.4.8.8.8zm3.7 13.7L66.2 55 65 53.7l1.2-9 1.3 9z"/>
    </g>
</svg>
