<svg xmlns="http://www.w3.org/2000/svg" width="118" height="128" viewBox="0 0 118 128">
    <g fill="#EF7B45" fill-rule="nonzero">
        <path d="M113.1 54.7h-26v-1.1-.2c0-.4-.3-.8-.7-.8-.4 0-.8.3-.8.7v1.5h-51c-2.5 0-4.5 2-4.5 4.5v10.4h-1.2c-.4 0-.7.3-.7.7 0 .4.3.7.7.7h1.2v9.3c-1.6-1.1-2.4-1.9-2.4-1.9l-.5-.6-.5.6c-.1.1-7.1 7.5-21.8 7.2h-.7v.7c0 .3-1 27.7 22.8 39.9l.3.2.3-.2c5.6-2.9 10.3-6.8 13.9-11.7H63l-2.2 7.8h-2.5c-2.5 0-4.5 2-4.5 4.5 0 .4.3.7.7.7h38.6c.4 0 .7-.3.7-.7 0-2.5-2-4.5-4.5-4.5H87l-2.2-7.8h32.9V59.2c-.1-2.5-2.1-4.5-4.6-4.5zm-72.6 58.6c-3.5 4.8-7.9 8.6-13.3 11.4C6.7 113.9 5.6 91.4 5.5 87.1h.2c12.6 0 19.5-5.4 21.5-7.1.5.5 1.5 1.3 2.9 2.2l.4.2c3.6 2.2 9.7 4.8 18.4 4.7 0 2-.3 8-2.6 14.9-.4 1-.7 2.1-1.2 3-1.2 3-2.7 5.8-4.6 8.3zm48.9 10.4c1.4 0 2.6 1 2.9 2.3h-37c.3-1.3 1.5-2.3 2.9-2.3h31.2zm-4-1.4H62.3l2.2-7.8h18.6l2.3 7.8zm30.8-9.3H42.5c.2-.3.4-.6.5-.9.2-.4.5-.7.7-1.1.3-.5.6-1.1.9-1.6.2-.4.4-.7.6-1.1.3-.6.6-1.3.9-1.9.1-.3.3-.6.4-1 .3-.8.7-1.6.9-2.5H116V113h.2zm0-11.5H48c2.6-8.2 2.4-14.9 2.4-15.2v-.7h-4.3c-.3 0-.7 0-1-.1-.2 0-.3 0-.5-.1-.3 0-.6-.1-.9-.1-.2 0-.3 0-.5-.1-.3 0-.6-.1-.8-.1-.2 0-.3-.1-.5-.1-.3 0-.5-.1-.8-.1-.2 0-.3-.1-.5-.1-.2-.1-.5-.1-.7-.2-.2 0-.3-.1-.5-.1-.2-.1-.4-.1-.7-.2-.2 0-.3-.1-.5-.1-.2-.1-.4-.1-.6-.2-.2-.1-.3-.1-.5-.2s-.4-.1-.6-.2c-.2-.1-.3-.1-.5-.2s-.4-.1-.5-.2c-.2-.1-.3-.1-.4-.2-.2-.1-.3-.1-.5-.2-.1-.1-.3-.1-.4-.2-.2-.1-.3-.1-.4-.2-.1-.1-.3-.1-.4-.2-.1-.1-.3-.1-.4-.2-.1-.1-.3-.1-.4-.2-.1-.1-.3-.1-.4-.2-.1-.1-.2-.1-.3-.2-.1 0-.1-.1-.2-.1V59.2c0-1.6 1.3-3 3-3h78.5c1.7 0 3 1.3 3 3v42.3zM1.8 17.9c.4 0 .7-.3.7-.7v-8c0-.4-.3-.7-.7-.7-.4 0-.7.3-.7.7v7.9c0 .5.3.8.7.8zM1.8 24.5c.4 0 .7-.3.7-.7V21c0-.4-.3-.7-.7-.7-.4 0-.7.3-.7.7v2.8c0 .3.3.7.7.7zM39.8 43.3L38.5 42c-.3-.3-.8-.3-1 0-.3.3-.3.8 0 1l1.3 1.3c.1.1.3.2.5.2s.4-.1.5-.2c.3-.3.3-.7 0-1zM42.7 46.2c-.3-.3-.8-.3-1 0-.3.3-.3.8 0 1l1.3 1.3c.1.1.3.2.5.2s.4-.1.5-.2c.3-.3.3-.8 0-1l-1.3-1.3zM38.8 46.2l-1.3 1.3c-.3.3-.3.8 0 1 .1.1.3.2.5.2s.4-.1.5-.2l1.3-1.3c.3-.3.3-.8 0-1-.3-.3-.8-.3-1 0zM43.9 42c-.3-.3-.8-.3-1 0l-1.3 1.3c-.3.3-.3.8 0 1 .1.1.3.2.5.2s.4-.1.5-.2l1.3-1.3c.3-.2.3-.7 0-1z"/>
        <path d="M41.2 119.8c-.3-.3-.8-.3-1 0-.3.3-.3.8 0 1l1.3 1.3c.1.1.3.2.5.2s.4-.1.5-.2c.3-.3.3-.8 0-1l-1.3-1.3zM45.4 123.9c-.3-.3-.8-.3-1 0-.3.3-.3.8 0 1l1.3 1.3c.1.1.3.2.5.2s.4-.1.5-.2c.3-.3.3-.8 0-1l-1.3-1.3zM41.5 123.9l-1.3 1.3c-.3.3-.3.8 0 1 .1.1.3.2.5.2s.4-.1.5-.2l1.3-1.3c.3-.3.3-.8 0-1-.3-.3-.7-.3-1 0zM45.6 119.8l-1.3 1.3c-.3.3-.3.8 0 1 .1.1.3.2.5.2s.4-.1.5-.2l1.3-1.3c.3-.3.3-.8 0-1-.2-.3-.7-.3-1 0zM67.8 51.2c1.7 0 3.2-1.4 3.2-3.2 0-1.8-1.4-3.2-3.2-3.2-1.7 0-3.2 1.4-3.2 3.2 0 1.8 1.5 3.2 3.2 3.2zm0-4.9c.9 0 1.7.8 1.7 1.7 0 .9-.8 1.7-1.7 1.7-.9 0-1.7-.8-1.7-1.7 0-.9.8-1.7 1.7-1.7zM7.3 36c1.7 0 3.2-1.4 3.2-3.2 0-1.7-1.4-3.2-3.2-3.2-1.7 0-3.2 1.4-3.2 3.2 0 1.8 1.4 3.2 3.2 3.2zm0-4.9c.9 0 1.7.8 1.7 1.7 0 .9-.8 1.7-1.7 1.7-.9 0-1.7-.8-1.7-1.7 0-.9.7-1.7 1.7-1.7zM49.7 18.2h8.8c.4 0 .7-.3.7-.7 0-.4-.3-.7-.7-.7h-8.8c-.4 0-.7.3-.7.7-.1.3.3.7.7.7zM61.3 18.2h2.8c.4 0 .7-.3.7-.7 0-.4-.3-.7-.7-.7h-2.8c-.4 0-.7.3-.7.7 0 .3.3.7.7.7zM64.2 19.7H58c-.4 0-.7.3-.7.7 0 .4.3.7.7.7h6.1c.4 0 .7-.3.7-.7.1-.4-.2-.7-.6-.7zM53.4 19.7c-.4 0-.7.3-.7.7 0 .4.3.7.7.7h2c.4 0 .7-.3.7-.7 0-.4-.3-.7-.7-.7h-2zM106.6 118.8c0-.4-.3-.7-.7-.7h-8.8c-.4 0-.7.3-.7.7 0 .4.3.7.7.7h8.8c.4 0 .7-.3.7-.7zM111.6 118h-2.8c-.4 0-.7.3-.7.7 0 .4.3.7.7.7h2.8c.4 0 .7-.3.7-.7 0-.3-.3-.7-.7-.7zM111.6 121.1h-6.1c-.4 0-.7.3-.7.7 0 .4.3.7.7.7h6.1c.4 0 .7-.3.7-.7 0-.4-.3-.7-.7-.7zM102.8 121.1h-2c-.4 0-.7.3-.7.7 0 .4.3.7.7.7h2c.4 0 .7-.3.7-.7.1-.4-.2-.7-.7-.7zM102.4 14.2h8.8c.4 0 .7-.3.7-.7 0-.4-.3-.7-.7-.7h-8.8c-.4 0-.7.3-.7.7-.1.4.3.7.7.7zM114.1 14.2h2.8c.4 0 .7-.3.7-.7 0-.4-.3-.7-.7-.7h-2.8c-.4 0-.7.3-.7.7-.1.4.2.7.7.7zM116.9 15.8h-6.1c-.4 0-.7.3-.7.7 0 .4.3.7.7.7h6.1c.4 0 .7-.3.7-.7 0-.4-.3-.7-.7-.7zM106.2 15.8c-.4 0-.7.3-.7.7 0 .4.3.7.7.7h2c.4 0 .7-.3.7-.7 0-.4-.3-.7-.7-.7h-2zM90.6 42.5c.4 0 .7-.3.7-.7 0-.4-.3-.7-.7-.7h-3.3c-.4 0-.7.3-.7.7 0 .4.3.7.7.7h3.3zM83.4 41.1c-.5 0-1-.1-1.5-.4-.4-.2-.8-.1-1 .3-.2.4-.1.8.3 1 .7.4 1.4.5 2.1.5h1.4c.4 0 .7-.3.7-.7 0-.4-.3-.7-.7-.7h-1.3zM94.6 42.5c.5 0 1.1.1 1.5.4.1.1.2.1.4.1.3 0 .5-.1.6-.4.2-.4.1-.8-.3-1-.5-.3-1-.5-1.5-.5-.1 0-.2-.1-.3-.1h-2c-.4 0-.7.3-.7.7 0 .4.3.7.7.7h1.4c.1.1.1.1.2.1zM93.9 51.4c1.3-.1 2.5-.6 3.4-1.5.3-.3.3-.7 0-1-.3-.3-.7-.3-1 0-.7.6-1.6 1-2.5 1.1-.4 0-.7.4-.7.8.1.3.4.6.8.6zM97.9 48h.2c.3 0 .6-.2.7-.5.2-.6.3-1.2.3-1.9 0-.6-.1-1.3-.4-1.8-.2-.4-.6-.5-1-.4-.4.2-.5.6-.4 1 .2.4.3.8.3 1.2 0 .5-.1 1-.2 1.4-.1.4.1.8.5 1zM87.6 52.1c.2 0 .3-.1.5-.2.4-.3.9-.5 1.4-.5h1.9c.4 0 .7-.3.7-.7 0-.4-.3-.7-.7-.7h-2c-.1 0-.2 0-.3.1-.7.1-1.4.3-2 .8-.3.2-.4.7-.1 1 .2.1.4.2.6.2zM23.6 45.2c.7 0 1.5-.2 2.1-.5.4-.2.5-.6.3-1s-.6-.5-1-.3-.9.4-1.5.4h-1.4c-.4 0-.7.3-.7.7 0 .4.3.7.7.7h1.5zM19.7 43.7h-3.3c-.4 0-.7.3-.7.7 0 .4.3.7.7.7h3.3c.4 0 .7-.3.7-.7.1-.4-.3-.7-.7-.7zM9.9 45.3c.1.2.4.4.6.4.1 0 .2 0 .4-.1.5-.3 1-.4 1.5-.4H14c.4 0 .7-.3.7-.7 0-.4-.3-.7-.7-.7h-2c-.1 0-.2 0-.3.1-.5.1-1.1.3-1.5.5-.4.1-.5.6-.3.9zM9.7 52.5c.9.9 2.1 1.4 3.4 1.5h.1c.4 0 .7-.3.7-.7 0-.4-.3-.8-.7-.8-.9-.1-1.8-.5-2.5-1.1-.3-.3-.8-.3-1 0-.3.4-.3.8 0 1.1zM8.9 50.7h.2c.4-.1.6-.6.5-.9-.2-.5-.2-.9-.2-1.4 0-.4.1-.9.3-1.2.2-.4 0-.8-.4-1-.4-.2-.8 0-1 .4-.3.6-.4 1.2-.4 1.8 0 .6.1 1.3.3 1.9.1.2.4.4.7.4zM15.6 54h1.9c.6 0 1.1.1 1.4.4.1.1.3.2.5.2s.4-.1.6-.3c.3-.3.2-.8-.1-1-.6-.4-1.2-.7-2-.7-.1 0-.2-.1-.3-.1h-2c-.4 0-.7.3-.7.7 0 .5.3.8.7.8zM20.9 59.5c.3-.6.4-1.2.4-1.9 0-.4 0-1-.1-1.7-.1-.4-.4-.7-.8-.6-.4.1-.7.4-.6.8.1.4.1.7.1 1v.7c0 .3-.1.6-.2.9-.2.4 0 .8.4 1 .1 0 .2.1.3.1.1.1.4 0 .5-.3zM9.7 62.1H13c.4 0 .7-.3.7-.7 0-.4-.3-.7-.7-.7H9.7c-.4 0-.7.3-.7.7-.1.4.3.7.7.7zM18.9 61.6c.4-.2.5-.6.3-1s-.6-.5-1-.3-.9.4-1.5.4h-1.4c-.4 0-.7.3-.7.7 0 .4.3.7.7.7h1.4c.8 0 1.6-.1 2.2-.5zM3.7 62.7c.1 0 .2 0 .4-.1.5-.3 1-.4 1.5-.4H7.2c.4 0 .7-.3.7-.7 0-.4-.3-.7-.7-.7h-2c-.1 0-.2 0-.3.1-.5.1-1.1.3-1.5.5-.4.2-.5.7-.3 1 .1.1.4.3.6.3zM22.6 71h3.6c.4 0 .7-.3.7-.7 0-.4-.3-.7-.7-.7h-3.6c-.4 0-.7.3-.7.7 0 .4.3.7.7.7zM7.4 69.5h-.6c-.9 0-1.7-.3-2.4-.7-.3-.2-.8-.1-1 .2-.2.3-.1.8.2 1 .9.6 2.1 1 3.2 1h.6c.4 0 .7-.3.7-.7.1-.4-.3-.8-.7-.8zM2.3 68.1c.1 0 .2 0 .3-.1.4-.2.5-.6.3-1-.3-.6-.4-1.2-.4-1.8 0-.4.1-.7.2-1.1.1-.4-.1-.8-.4-.9-.4-.1-.8.1-.9.4-.2.5-.3 1-.3 1.6 0 .9.2 1.7.6 2.5 0 .3.3.4.6.4zM10.1 71h3.6c.4 0 .7-.3.7-.7 0-.4-.3-.7-.7-.7h-3.6c-.4 0-.7.3-.7.7 0 .4.3.7.7.7zM16.4 71H20c.4 0 .7-.3.7-.7 0-.4-.3-.7-.7-.7h-3.6c-.4 0-.7.3-.7.7-.1.4.3.7.7.7zM32.6 95.1c0-2.9-2.4-5.3-5.3-5.3S22 92.2 22 95.1c0 1.5.6 2.9 1.7 3.9l-1.8 11.2h10.9L30.9 99c1-1 1.7-2.4 1.7-3.9zm-1.7 13.6h-7.4l1.6-9.9.1-.4-.3-.3c-.9-.7-1.5-1.8-1.5-3 0-2.1 1.7-3.8 3.8-3.8 2.1 0 3.8 1.7 3.8 3.8 0 1.2-.5 2.3-1.5 3l-.3.3 1.7 10.3zM66.4 109.8h14.9c1.3 0 2.3-1 2.3-2.3 0-1.3-1-2.3-2.3-2.3H66.4c-1.3 0-2.3 1-2.3 2.3 0 1.3 1.1 2.3 2.3 2.3zm0-3.1h14.9c.5 0 .8.4.8.8 0 .5-.4.8-.8.8H66.4c-.5 0-.8-.4-.8-.8 0-.5.4-.8.8-.8zM107.1 65.2H40.7c-.4 0-.7.3-.7.7 0 .4.3.7.7.7h66.4c.4 0 .7-.3.7-.7 0-.3-.3-.7-.7-.7zM107.1 73H40.7c-.4 0-.7.3-.7.7 0 .4.3.7.7.7h66.4c.4 0 .7-.3.7-.7 0-.4-.3-.7-.7-.7zM107.1 80.7H40.7c-.4 0-.7.3-.7.7 0 .4.3.7.7.7h66.4c.4 0 .7-.3.7-.7 0-.4-.3-.7-.7-.7zM107.1 88.5H64.9c-.4 0-.7.3-.7.7 0 .4.3.7.7.7h42.2c.4 0 .7-.3.7-.7 0-.4-.3-.7-.7-.7zM25.7 34.4H36c1.6 0 3-1.3 3-3v-6.3c0-1.6-1.3-3-3-3h-.6v-3.3c0-2.5-2.1-4.6-4.6-4.6-2.5 0-4.6 2.1-4.6 4.6v3.3h-.6c-1.6 0-3 1.3-3 3v6.3c.2 1.7 1.5 3 3.1 3zm2.1-15.6c0-1.7 1.4-3.1 3.1-3.1 1.7 0 3.1 1.4 3.1 3.1v3.3h-6.2v-3.3zm-3.6 6.3c0-.8.7-1.5 1.5-1.5H36c.8 0 1.5.7 1.5 1.5v6.3c0 .8-.7 1.5-1.5 1.5H25.7c-.8 0-1.5-.7-1.5-1.5v-6.3z"/>
        <path d="M27.3 27.5h7.3c.4 0 .7-.3.7-.7 0-.4-.3-.7-.7-.7h-7.3c-.4 0-.7.3-.7.7-.1.4.3.7.7.7zM27.3 30.5h7.3c.4 0 .7-.3.7-.7 0-.4-.3-.7-.7-.7h-7.3c-.4 0-.7.3-.7.7-.1.4.3.7.7.7zM113.1 50.5c.1 0 .3 0 .4-.1 1.4-.8 2.2-2.3 2.2-3.9 0-.6-.1-1.2-.3-1.7-.2-.4-.6-.6-1-.4-.4.2-.6.6-.4 1 .2.4.2.8.2 1.2 0 1.1-.6 2.1-1.5 2.6-.4.2-.5.7-.3 1 .2.2.5.3.7.3zM112.1 43.6c.4.1.8-.1.9-.5.1-.4-.1-.8-.5-.9-1.5-.4-3.2 0-4.3 1.2-.3.3-.3.8 0 1 .1.1.3.2.5.2s.4-.1.5-.2c.7-.8 1.8-1.1 2.9-.8zM108.3 46.9c-.1-.4-.4-.7-.8-.6-.4.1-.7.4-.6.8.2 1.6 1.3 3 2.7 3.6.1 0 .2.1.3.1.3 0 .6-.2.7-.5.2-.4 0-.8-.4-1-1.1-.4-1.8-1.3-1.9-2.4zM6.5 118.1c.1-.4-.1-.8-.5-.9-.4-.1-.8-.2-1.2-.2-1.2 0-2.3.5-3.2 1.3-.3.3-.3.8 0 1 .1.1.3.2.5.2s.4-.1.5-.2c.6-.6 1.3-.9 2.1-.9.3 0 .5 0 .8.1.5.3.9 0 1-.4zM8 119.4c-.4.2-.6.6-.4 1 .2.4.2.8.2 1.2 0 1.1-.6 2.1-1.5 2.6-.4.2-.5.7-.3 1 .1.2.4.4.6.4.1 0 .3 0 .4-.1 1.4-.8 2.2-2.3 2.2-3.9 0-.6-.1-1.2-.3-1.7-.1-.4-.5-.6-.9-.5zM3.7 124.3c-1-.4-1.7-1.3-1.8-2.4-.1-.4-.4-.7-.8-.6-.4.1-.7.4-.6.8.2 1.6 1.3 3 2.7 3.6.1 0 .2.1.3.1.3 0 .6-.2.7-.5 0-.4-.2-.8-.5-1z"/>
        <path d="M27 39.7c-.3.1-.4.4-.4.7 0 .5-.1 1.1-.3 1.6-.2.4 0 .8.4 1 .1 0 .2.1.3.1.3 0 .5-.2.7-.4.3-.7.5-1.5.4-2.3 0-.1-.1-.3-.2-.4 1 .2 1.9.3 2.9.3 8.5 0 15.4-6.9 15.4-15.4S39.3 9.5 30.8 9.5s-15.4 6.9-15.4 15.4c.1 7.1 5 13.1 11.6 14.8zm3.9-28.8c7.7 0 13.9 6.2 13.9 13.9s-6.2 13.9-13.9 13.9S17 32.5 17 24.8s6.2-13.9 13.9-13.9zM72.2 38h6.7c0 .7.1 1.3.4 1.9.1.3.4.4.7.4.1 0 .2 0 .3-.1.4-.2.5-.6.4-1-.2-.4-.3-.9-.3-1.3h12c1.8 0 3.4-1 4.3-2.4h14.8c.3 1.1 1.3 1.9 2.5 1.9 1.4 0 2.6-1.2 2.6-2.6 0-1.4-1.2-2.6-2.6-2.6-1.2 0-2.2.8-2.5 1.9H97.3c.1-.4.2-.9.2-1.3s-.1-.8-.2-1.2h6.6c.3 1.1 1.3 1.9 2.5 1.9 1.4 0 2.6-1.2 2.6-2.6 0-1.4-1.2-2.6-2.6-2.6-1.2 0-2.2.8-2.5 1.9h-7.2c-.9-1.5-2.5-2.4-4.4-2.4h-1.5v-.5c0-1.3-.5-2.4-1.3-3.2V13.2c1.1-.3 1.9-1.3 1.9-2.5 0-1.4-1.2-2.6-2.6-2.6-1.4 0-2.6 1.2-2.6 2.6 0 1.2.8 2.2 1.9 2.5V23c-.6-.2-1.2-.4-1.8-.4-.2 0-.5 0-.7.1v-17c1.1-.3 1.9-1.3 1.9-2.5 0-1.4-1.2-2.6-2.6-2.6-1.4 0-2.6 1.2-2.6 2.6 0 1.2.8 2.2 1.9 2.5v17.5c-.4.2-.8.5-1.2.9-.3-1.2-.9-2.1-1.4-2.7-1.2-1.3-2.9-2-4.8-2-3.5 0-6.4 2.9-6.4 6.4 0 .8.1 1.5.4 2.3-2.1.7-3.6 2.6-3.6 4.9-.1 2.7 2.2 5 5 5zm41.8-4.3c.6 0 1.1.5 1.1 1.1 0 .6-.5 1.1-1.1 1.1-.6 0-1.1-.5-1.1-1.1 0-.6.5-1.1 1.1-1.1zm-7.6-4c.6 0 1.1.5 1.1 1.1 0 .6-.5 1.1-1.1 1.1-.6 0-1.1-.5-1.1-1.1 0-.6.5-1.1 1.1-1.1zm-18.7-19c0-.6.5-1.1 1.1-1.1.6 0 1.1.5 1.1 1.1 0 .6-.5 1.1-1.1 1.1-.6 0-1.1-.5-1.1-1.1zm-4.1-7.6c0-.6.5-1.1 1.1-1.1.6 0 1.1.5 1.1 1.1 0 .6-.5 1.1-1.1 1.1-.5 0-1.1-.5-1.1-1.1zM71.8 29.2c.2 0 .5-.2.6-.4.1-.2.1-.5 0-.7-.4-.7-.7-1.6-.7-2.4 0-2.7 2.2-4.9 4.9-4.9 1.5 0 2.8.5 3.7 1.5.9 1 1.3 2.5 1.3 4.2 0 .2-.1.5-.1.7 0 .4.3.7.7.7.4 0 .7-.3.8-.7v-.6c.3-1.5 1.6-2.6 3.1-2.6 1.7 0 3.2 1.4 3.2 3.2 0 .3-.1.7-.2 1-.1.2 0 .5.1.7.1.2.4.3.6.3h2.5c2 0 3.7 1.7 3.7 3.7s-1.7 3.7-3.7 3.7H72.2c-2 0-3.7-1.7-3.7-3.7.1-2 1.5-3.6 3.3-3.7z"/>
    </g>
</svg>
