<svg xmlns="http://www.w3.org/2000/svg" width="128" height="123" viewBox="0 0 128 123">
    <g fill="#EF7B45" fill-rule="nonzero">
        <path d="M4.4 40.6c0-.4-.3-.8-.8-.8s-.8.3-.8.8V53c0 .4.3.8.8.8s.8-.3.8-.8V40.6zM3.7 58c-.4 0-.8.3-.8.8v4.4c0 .4.3.8.8.8s.8-.3.8-.8v-4.4c-.1-.5-.4-.8-.8-.8zM85.5 91.2c0 1.9 1.6 3.5 3.5 3.5s3.5-1.6 3.5-3.5-1.6-3.5-3.5-3.5c-2 0-3.5 1.6-3.5 3.5zm5.5 0c0 1.1-.9 2-2 2s-2-.9-2-2 .9-2 2-2 2 .9 2 2zM49.8 116c-1.9 0-3.5 1.6-3.5 3.5s1.6 3.5 3.5 3.5 3.5-1.6 3.5-3.5-1.6-3.5-3.5-3.5zm0 5.6c-1.1 0-2-.9-2-2s.9-2 2-2 2 .9 2 2-.9 2-2 2zM75 11.1c1.9 0 3.5-1.6 3.5-3.5S76.9 4.1 75 4.1s-3.5 1.6-3.5 3.5 1.5 3.5 3.5 3.5zm0-5.5c1.1 0 2 .9 2 2s-.9 2-2 2-2-.9-2-2 .9-2 2-2zM118.1 50.1c0-.4-.3-.8-.8-.8h-14.4c-.4 0-.8.3-.8.8s.3.8.8.8h14.4c.5 0 .8-.4.8-.8zM122.1 49.4c-.4 0-.8.3-.8.8s.3.8.8.8h4.7c.4 0 .8-.3.8-.8s-.3-.8-.8-.8h-4.7zM126.7 54.3h-10.1c-.4 0-.8.3-.8.8 0 .4.3.8.8.8h10.1c.4 0 .8-.3.8-.8 0-.4-.3-.8-.8-.8zM109.1 54.3c-.4 0-.8.3-.8.8 0 .4.3.8.8.8h3.3c.4 0 .8-.3.8-.8 0-.4-.3-.8-.8-.8h-3.3zM28 120.2H13.6c-.4 0-.8.3-.8.8 0 .4.3.8.8.8H28c.4 0 .8-.3.8-.8 0-.4-.4-.8-.8-.8zM8.8 120.2H4.2c-.4 0-.8.3-.8.8 0 .4.3.8.8.8h4.7c.4 0 .8-.3.8-.8-.1-.4-.4-.8-.9-.8zM4.2 116.8h10.1c.4 0 .8-.3.8-.8 0-.4-.3-.8-.8-.8H4.2c-.4 0-.8.3-.8.8s.4.8.8.8zM21.8 116.8c.4 0 .8-.3.8-.8 0-.4-.3-.8-.8-.8h-3.3c-.4 0-.8.3-.8.8 0 .4.3.8.8.8h3.3zM61.4 96.7c-.3-.3-.8-.3-1.1 0-.3.3-.3.8 0 1.1l1.5 1.5c.1.1.3.2.5.2s.4-.1.5-.2c.3-.3.3-.8 0-1.1l-1.4-1.5zM67.8 104.1c.3-.3.3-.8 0-1.1l-1.5-1.5c-.3-.3-.8-.3-1.1 0-.3.3-.3.8 0 1.1l1.5 1.5c.1.1.3.2.5.2s.4-.1.6-.2zM61.9 101.5l-1.5 1.5c-.3.3-.3.8 0 1.1.1.1.3.2.5.2s.4-.1.5-.2l1.5-1.5c.3-.3.3-.8 0-1.1-.3-.3-.7-.3-1 0zM66.7 96.7l-1.5 1.5c-.3.3-.3.8 0 1.1.1.1.3.2.5.2s.4-.1.5-.2l1.5-1.5c.3-.3.3-.8 0-1.1-.2-.3-.7-.3-1 0zM77 17.3c-.3.3-.3.8 0 1.1l1.5 1.5c.1.1.3.2.5.2s.4-.1.5-.2c.3-.3.3-.8 0-1.1L78 17.3c-.2-.3-.7-.3-1 0zM83.3 24.7c.1.1.3.2.5.2s.4-.1.5-.2c.3-.3.3-.8 0-1.1l-1.5-1.5c-.3-.3-.8-.3-1.1 0-.3.3-.3.8 0 1.1l1.6 1.5zM78.5 22.1L77 23.6c-.3.3-.3.8 0 1.1.1.1.3.2.5.2s.4-.1.5-.2l1.5-1.5c.3-.3.3-.8 0-1.1-.2-.3-.7-.3-1 0zM82.4 20.1c.2 0 .4-.1.5-.2l1.5-1.5c.3-.3.3-.8 0-1.1-.3-.3-.8-.3-1.1 0l-1.5 1.5c-.3.3-.3.8 0 1.1.2.1.4.2.6.2zM18.6 3.7c.1.1.3.2.5.2s.4-.1.5-.2c.3-.3.3-.8 0-1.1l-1.5-1.5c-.3-.3-.8-.3-1.1 0-.3.3-.3.8 0 1.1l1.6 1.5zM23.5 8.5c.1.1.3.2.5.2s.4-.1.5-.2c.3-.3.3-.8 0-1.1L23 6c-.3-.3-.8-.3-1.1 0-.3.3-.3.8 0 1.1l1.6 1.4zM17.7 8.7c.2 0 .4-.1.5-.2L19.7 7c.3-.3.3-.7 0-1-.3-.3-.8-.3-1.1 0l-1.5 1.5c-.3.3-.3.8 0 1.1.2.1.4.1.6.1zM22.5 3.9c.2 0 .4-.1.5-.2l1.5-1.5c.3-.3.3-.8 0-1.1-.3-.3-.8-.3-1.1 0L22 2.6c-.3.3-.3.8 0 1.1.1.1.3.2.5.2z"/>
        <path d="M47.9 107.2c0-.9-.3-1.7-.8-2.4.9-.1 1.7-.5 2.4-1.1.7-.7 1.2-1.7 1.2-2.8 0-.9-.3-1.8-.9-2.5.9-.1 1.7-.5 2.4-1.1.7-.7 1.2-1.7 1.2-2.8 0-2.2-1.7-3.9-3.9-4 .6-.7.9-1.5.9-2.4 0-2.2-1.8-4-3.9-4h-5.8c.6-.7.9-1.5.9-2.4 0-1.7-1-3.1-2.5-3.7V67.9H44l25.3 13.4.7.4c.9.5 1.9.7 2.9.7h5.2c.2 0 .4-.1.5-.2.1-.1.2-.3.2-.5v-1.1c0-.1 0-.2-.1-.4-2.4-4.2-3.8-13.5-3.7-23.5.1-9.6 1.5-18.4 3.7-22.9 0-.1.1-.2.1-.3V33c0-.2-.1-.4-.2-.5-.1-.1-.3-.2-.5-.2h-5c-1 0-2 .2-2.9.7L43.8 46.4l-21.3-.1h-.1c-5.9 0-10.7 4.8-10.8 10.8 0 5.9 4.8 10.8 10.7 10.8h5.1v9.9c-2.6.3-5 1.7-6.5 3.9-1.1 1.5-2.8 2.4-4.6 2.4h-1.8c-.1-.1-.2-.3-.4-.4-.6-.6-1.5-.9-2.5-.8-2.2.1-4.6.2-7 .2-.4 0-.7.3-.7.8 0 .4.4.7.8.7 2.4 0 4.9-.1 7.3-.3.5 0 1 .1 1.4.4.2.2.4.4.4.9V105c0 .4-.2.7-.4.9-.3.3-.8.5-1.4.4-3.6-.2-7.1-.3-10.6-.3-.4 0-.8.3-.8.8 0 .4.3.8.8.8 3.5 0 7 .1 10.5.3h.2c.8 0 1.6-.3 2.2-.8h.2s2.3.1 3.7.8c.3.2.6.3.9.5 1.4.8 3 1.8 6.1 2.5 1.3.3 4.3.4 7.5.4 5.2 0 11-.3 11.3-.3 1.1 0 2-.4 2.8-1.2.7-.6 1.1-1.6 1.1-2.6zM13.2 57c0-5.1 4.2-9.3 9.3-9.3l21.5.2c.1 0 .2 0 .3-.1l25.5-13.1.9-.5c.7-.4 1.5-.5 2.2-.5H77c-2.1 4.8-3.4 13.5-3.5 23-.1 10.3 1.3 19.5 3.7 24.2v.1h-4.4c-.8 0-1.6-.2-2.2-.6L44.3 66.5c-.1-.1-.2-.1-.3-.1h-5.7H22.7c-5.3-.1-9.5-4.3-9.5-9.4zm24.1 10.9v9.8h-8.2v-9.8h8.2zm8.3 41c-.5.5-1.1.7-1.8.7-.2 0-15.2.7-18.5-.1-2.9-.7-4.3-1.5-5.7-2.3-.3-.2-.6-.4-.9-.5-1.2-.7-2.8-.9-3.7-1 0-.2.1-.4.1-.6V85.7h1.3c2.3 0 4.5-1.1 5.8-3 1.5-2.1 3.9-3.4 6.4-3.4h8.6c1.3 0 2.4 1.1 2.4 2.5 0 .7-.3 1.3-.7 1.7-.5.5-1.1.7-1.7.7h-4.9c-.4 0-.8.3-.8.8 0 .4.3.8.8.8h13.8c1.3 0 2.4 1.1 2.4 2.5 0 .7-.3 1.3-.7 1.7-.5.5-1.1.7-1.7.7h-8.2c-.4 0-.8.3-.8.8 0 .4.3.8.8.8H49.2c1.3 0 2.4 1.1 2.4 2.5 0 .7-.3 1.3-.7 1.7-.5.5-1.1.7-1.7.7h-2.5H38.4c-.4 0-.8.3-.8.8 0 .4.3.8.8.8h8.4c.6 0 1.2.3 1.6.7.5.5.7 1.1.7 1.7 0 .7-.3 1.3-.7 1.7-.5.5-1.1.7-1.7.7H36.5c-.4 0-.8.3-.8.8 0 .4.3.8.8.8h7.6c1.4 0 2.4 1 2.4 2.4-.1.2-.4.8-.9 1.3zM83 37.9h10.7c.4 0 .8-.3.8-.8 0-.4-.3-.8-.8-.8H83c-.4 0-.8.3-.8.8.1.5.4.8.8.8zM83 48h14.8c.4 0 .8-.3.8-.8 0-.4-.3-.8-.8-.8H83c-.4 0-.8.3-.8.8s.4.8.8.8zM99 58.1c.4 0 .8-.3.8-.8 0-.4-.3-.8-.8-.8H83c-.4 0-.8.3-.8.8 0 .4.3.8.8.8h16zM97.8 68.2c.4 0 .8-.3.8-.8 0-.4-.3-.8-.8-.8H83c-.4 0-.8.3-.8.8 0 .4.3.8.8.8h14.8zM93.7 78.3c.4 0 .8-.3.8-.8 0-.4-.3-.8-.8-.8H83c-.4 0-.8.3-.8.8 0 .4.3.8.8.8h10.7z"/>
        <path d="M51.4 50.9c.1 0 .2 0 .3-.1l16.8-8.6c.4-.2.5-.6.3-1s-.6-.5-1-.3L51 49.5c-.4.2-.5.6-.3 1 .2.2.4.4.7.4zM9.6 102.9c.4 0 .8-.3.8-.8v-3.4c0-.4-.3-.8-.8-.8-.4 0-.8.3-.8.8v3.4c.1.4.4.8.8.8zM106.9 27.1c-.7-.6-1.1-1.4-1.1-2.2 0-.4-.3-.8-.8-.8-.4 0-.8.3-.8.8 0 1.3.6 2.5 1.6 3.3.8.7 1.8 1.1 2.9 1.3v2.1c0 .4.3.8.8.8.4 0 .8-.3.8-.8v-2.1c1.1-.1 2.1-.6 2.9-1.3 1-.9 1.6-2.1 1.6-3.3 0-1.3-.6-2.5-1.6-3.3-.8-.7-1.8-1.1-2.9-1.3V14c.7.1 1.4.4 2 .9.7.6 1.1 1.4 1.1 2.2 0 .4.3.8.8.8.4 0 .8-.3.8-.8 0-1.3-.6-2.5-1.6-3.3-.8-.7-1.8-1.1-2.9-1.3v-2.1c0-.4-.3-.8-.8-.8-.4 0-.8.3-.8.8v2.1c-1.1.1-2.1.6-2.9 1.3-1 .9-1.6 2.1-1.6 3.3 0 1.3.6 2.5 1.6 3.3.8.7 1.8 1.1 2.9 1.3V28c-.8-.2-1.5-.4-2-.9zm5.4-4.4c.7.6 1.1 1.4 1.1 2.2 0 .8-.4 1.6-1.1 2.2-.5.5-1.2.8-2 .9v-6.2c.8.1 1.5.4 2 .9zm-5.4-3.4c-.7-.6-1.1-1.4-1.1-2.2 0-.8.4-1.6 1.1-2.2.5-.5 1.2-.8 2-.9v6.2c-.8-.2-1.5-.5-2-.9z"/>
        <path d="M101.1 36c0 .5-.5 2.2-1.1 3.6-.1.2-.1.4 0 .6.1.2.2.3.4.4.1 0 .2.1.4.1.6 0 1.5-.5 3.3-1.5.8-.4 1.9-1.1 2.3-1.2 8.2 1.7 16.6-3.1 19.4-11 3.2-8.9-1.4-18.7-10.3-21.9-8.9-3.2-18.7 1.4-21.9 10.3-2.8 7.8.3 16.4 7.5 20.6zM95 15.9c2.3-6.4 8.3-10.3 14.7-10.3 1.7 0 3.5.3 5.3.9 8.1 2.9 12.3 11.9 9.4 20-2.6 7.3-10.3 11.6-17.8 10-.6-.1-1.3.3-3.3 1.4-.4.2-.9.5-1.3.8 1.1-3.2.3-3.7 0-3.9-6.6-3.8-9.6-11.7-7-18.9zM10.1 35.7c1.4.6 2.9.8 4.3.8 1.5 0 3-.3 4.5-.9 2.8-1.2 5-3.4 6.2-6.3 1.2-2.8 1.1-6-.1-8.8-1.2-2.8-3.4-5-6.3-6.2-2.8-1.2-6-1.1-8.8.1-2.8 1.2-5 3.4-6.2 6.3-1.2 2.8-1.1 6 .1 8.8 1.2 2.8 3.5 5 6.3 6.2zM5.2 21.3c1-2.5 2.9-4.4 5.4-5.4 1.2-.5 2.6-.8 3.9-.8 1.3 0 2.5.2 3.7.7 2.5 1 4.4 2.9 5.4 5.4 1 2.5 1.1 5.2.1 7.6-1 2.5-2.9 4.4-5.4 5.4-2.5 1-5.2 1.1-7.6.1-2.5-1-4.4-2.9-5.4-5.4-1.1-2.4-1.1-5.1-.1-7.6z"/>
        <path d="M8.2 27.6c-.1.2-.1.4 0 .6 1.1 2.7 3.7 4.3 6.4 4.3.9 0 1.8-.2 2.7-.6 3.6-1.5 5.2-5.6 3.7-9.2-.1-.2-.2-.3-.4-.4-.2-.1-.4-.1-.6 0L8.6 27.2c-.2.1-.4.2-.4.4zm11.7-3.5c.3 1.1.2 2.4-.2 3.5-.6 1.4-1.6 2.4-2.9 3-2.6 1.1-5.5.1-6.8-2.2l9.9-4.3zM14.1 21.1c.1 0 .2.1.3.1.3 0 .6-.2.7-.5.7-1.6 2.2-1.2 2.5-1.1.4.1.8 0 1-.4.1-.4 0-.8-.4-1-1.1-.4-3.4-.6-4.4 1.9-.3.4-.1.9.3 1zM7.4 23.9c.1.1.2.1.3.1.3 0 .6-.2.7-.5.7-1.6 2.2-1.2 2.5-1.1.4.1.8 0 1-.4.1-.4 0-.8-.4-1-1.2-.3-3.5-.5-4.5 2-.2.3 0 .8.4.9zM114.7 69.3c-.2-.2-.4-.3-.6-.3-.2 0-.5.2-.6.4-1.1 1.8-2 3.3-3 4.8-.9 1.3-1.7 2.7-2.7 4.3-.2.4-.1.8.2 1 .1.1.3.1.4.1.3 0 .5-.1.6-.4 1-1.6 1.9-3 2.7-4.3.7-1 1.3-2.1 2-3.1.7 4.1.3 8.6-1.3 13.2-.8 2.5-2 5-3.4 7.4-2.2 3.6-4.9 6.9-8.1 9.9-2.5 2.3-5.2 4.3-8.1 5.9-2.5 1.5-5.3 2.7-8.2 3.7-.5.2-1 .3-1.5.5-2.1.7-4.4 1.2-6.6 1.6-2.8.5-5.7.8-8.6.8-.4 0-.7.3-.7.8 0 .4.3.7.8.7 2.7 0 5.3-.3 7.9-.7v6c0 .4.3.8.8.8h41.5c.4 0 .8-.3.8-.8V85.4c0-.4-.3-.8-.8-.8h-3.8c1.3-4.2 1.7-8.3 1.2-12 1.4 1.8 3 4 4.7 6.8.2.4.7.5 1 .2.4-.2.5-.7.2-1-2.7-4.1-4.9-7-6.8-9.3zm-37.4 46.3c2.1-.4 4.2-.9 6.2-1.5.2-.1.4-.1.6-.2v7.3h-6.8v-5.6zm15.1 5.4h-6.8v-7.7c2.4-.9 4.6-1.9 6.8-3V121zm1.5-11.6c2.4-1.4 4.7-3 6.8-4.8V121h-6.8v-11.6zm8.3-6.1c2.6-2.4 4.8-5 6.8-7.8v25.6h-6.8v-17.8zm15 17.7h-6.8V93c1.3-2.3 2.4-4.6 3.3-7h3.5v35zM33.7 27.2c2 0 4.1.1 6.1.2h.2c.5 0 1-.2 1.3-.4.4 0 1.4.1 2 .4.2.1.3.2.5.3.8.5 1.8 1.1 3.7 1.5.8.2 2.6.2 4.5.2 2.9 0 6.2-.1 6.7-.2 1.4 0 2.6-1.2 2.6-2.6 0-.4-.1-.7-.2-1.1 1.3-.1 2.4-1.2 2.4-2.6 0-.6-.2-1.1-.5-1.5.2-.1.3-.2.4-.4.5-.5.8-1.2.8-1.9s-.3-1.3-.7-1.7l.2-.2c.5-.5.8-1.2.8-1.8a2.732 2.732 0 0 0-2.7-2.7h-6.4c-.1-.2-.5-1.2.3-4.9.4-1.7.2-3.1-.6-4.2-1-1.5-2.8-1.8-3.8-2-.4 0-.9.1-1.2.5-.3.4-.4.8-.2 1.3.3.8.5 4.4-.3 5.9-1.5-.2-3.9 0-4.9 2.1-.6.8-1.4 1.2-2.4 1.2h-.9c0-.1-.1-.1-.1-.2-.4-.4-1-.6-1.7-.6-1.4.1-2.8.1-4.2.2-.4 0-.7.3-.7.8 0 .4.3.7.8.7 1.4 0 2.9-.1 4.3-.2.2 0 .4 0 .6.2.1.1.1.2.1.3v11.3c0 .1 0 .2-.1.3-.1.1-.3.2-.6.2-2-.1-4.1-.2-6.1-.2-.4 0-.8.3-.8.8.1.7.4 1 .8 1zm8.9-12.8c1.5 0 2.8-.7 3.7-1.9l.1-.1c.9-1.9 3.6-1.3 3.7-1.2.3.1.6 0 .8-.2 1.5-1.8 1.2-6.1.9-7.5.7.1 1.8.4 2.5 1.3.5.7.6 1.7.3 2.9-.7 3.2-.7 5.3 0 6.2.1.3.4.6.7.6h6.8c.3 0 .6.1.8.3.2.2.3.5.3.8 0 .3-.1.6-.3.8-.2.2-.5.3-.8.3h-6.8c-.4 0-.8.3-.8.8 0 .4.3.8.8.8h6.5c.6 0 1.1.5 1.1 1.1 0 .3-.1.6-.3.8-.2.2-.5.3-.8.3h-6.3c-.4 0-.8.3-.8.8 0 .4.3.8.8.8h5.6c.3 0 .6.1.8.3.2.2.3.5.3.8 0 .6-.5 1.1-1.1 1.1H54.4c-.4 0-.8.3-.8.8 0 .4.3.8.8.8h4.7c.3 0 .6.1.8.3.2.2.3.5.3.8 0 .6-.5 1.1-1.1 1.1-2.5.1-9.3.3-10.9 0-1.7-.4-2.5-.9-3.2-1.3-.2-.1-.4-.2-.5-.3-.6-.3-1.4-.5-2-.6V14.8l.1-.4z"/>
    </g>
</svg>
