<svg xmlns="http://www.w3.org/2000/svg" width="64" height="64" viewBox="0 0 64 64">
    <g fill="none" fill-rule="evenodd">
        <path fill="#3DB6D3" d="M52.845 18.027l-15.86-15.87c-2.743-2.744-7.227-2.744-9.96 0L11.176 17.996a2.358 2.358 0 0 0 0 3.32l4.808 4.809 3.195 2.954c.953.88 2.399.88 3.352 0l6.4-5.919a4.57 4.57 0 0 1 6.211 0l6.4 5.919c.943.88 2.4.88 3.342 0l3.195-2.954 4.766-4.766a2.352 2.352 0 0 0 0-3.331"/>
        <path fill="#E2E1E1" d="M2.147 36.996l24.867 24.867c2.744 2.745 7.228 2.745 9.961 0l24.867-24.867c4.316-4.315 1.278-5.583-1.885-8.578L56.06 24.72c-.942-.89-2.398-.88-3.352 0l-6.4 5.918a4.57 4.57 0 0 1-6.211 0l-6.4-5.918a2.445 2.445 0 0 0-3.342 0l-6.4 5.918a4.57 4.57 0 0 1-6.211 0l-6.4-5.918a2.458 2.458 0 0 0-3.352 0L4.41 28.03c-3.29 3.059-6.767 4.462-2.263 8.966"/>
    </g>
</svg>
